<svg xmlns="http://www.w3.org/2000/svg" xmlns:svg="http://www.w3.org/2000/svg" id="svg4902" width="110.089" height="93.068" version="1.1" viewBox="0 0 103.209 87.251"><metadata id="metadata4907"/><g id="layer1" transform="translate(-368.39568,-325.87958)"><g id="g4829" transform="matrix(0.125,0,0,-0.125,210.17291,429.18697)"><path style="fill:#fff;fill-opacity:.50196078;fill-rule:nonzero;stroke:none" id="path4831" d="m 1992.622,516.34129 -87.5915,-63.00875 c 8.6172,-15.04525 4.9777,-32.48763 -11.8365,-44.7299 -17.06,-12.41871 -42.7561,-15.91607 -65.5227,-10.52664 l -91.5494,-65.85784 c 8.2627,-16.37627 3.4984,-35.4771 -14.8906,-48.85039 -25.9107,-18.87501 -68.3344,-18.87501 -94.2112,0 -25.5658,18.6612 -24.8196,48.40359 1.1094,66.4956 19.3068,13.45072 47.3251,16.76005 70.8349,9.9693 l 85.4984,60.41592 -226.0536,0 c -3.1765,-4.18096 -7.3514,-8.14124 -12.559,-11.64595 -25.8867,-17.37514 -66.5804,-17.37514 -90.4234,0 -23.5215,17.17432 -21.2305,44.60375 4.6019,61.25582 25.586,16.47559 64.985,16.47559 88.5597,0 5.8617,-4.10112 10.2394,-8.86473 13.1016,-13.96448 l 225.3973,0 c 2.8772,5.09975 7.2311,9.85188 13.1463,13.96448 17.9122,12.49548 44.8091,15.48636 67.8515,9.10328 l 86.4278,61.066"/><path id="path5459" d="m 1719.1917,141.45519 359.9513,274.02608 c 18.8905,14.36946 15.6186,37.39172 -6.9447,51.42062 l -79.5802,49.43681 -87.5876,-63.00616 c 8.6172,-15.04525 4.9777,-32.48763 -11.8365,-44.7299 -17.06,-12.41871 -42.7561,-15.91607 -65.5227,-10.52664 l -91.5494,-65.85784 c 8.2627,-16.37627 3.4984,-35.4771 -14.8906,-48.85039 -25.9107,-18.87501 -68.3344,-18.87501 -94.2112,0 -25.5658,18.6612 -24.8196,48.40359 1.1094,66.4956 19.3068,13.45072 47.3251,16.76005 70.8349,9.9693 l 85.4984,60.41592 -226.0536,0 c -3.1765,-4.18096 -7.3514,-8.14124 -12.559,-11.64595 -25.8867,-17.37514 -66.5804,-17.37514 -90.4234,0 -23.5215,17.17432 -21.2305,44.60375 4.6019,61.25582 25.586,16.47559 64.985,16.47559 88.5597,0 5.8617,-4.10112 10.2394,-8.86473 13.1016,-13.96448 l 225.3973,0 c 2.8772,5.09975 7.2311,9.85188 13.1463,13.96448 17.9122,12.49548 44.8091,15.48636 67.8515,9.10328 l 86.429,61.06496 -240.6474,149.54736 c -19.0843,11.84671 -49.7534,11.84671 -68.8146,0 L 1285.039,465.76942 c -22.5665,-14.02336 -25.8398,-37.05598 -6.9502,-51.46096 l 358.2713,-272.85327 c 22.766,-17.33824 60.0627,-17.33824 82.8316,0" style="fill:#f8a49e;fill-opacity:1;fill-rule:nonzero;stroke:none"/><path id="path5478" d="m 1992.622,580.34129 -87.5915,-63.00875 c 8.6172,-15.04525 4.9777,-32.48763 -11.8365,-44.7299 -17.06,-12.41871 -42.7561,-15.91607 -65.5227,-10.52664 l -91.5494,-65.85784 c 8.2627,-16.37627 3.4984,-35.4771 -14.8906,-48.85039 -25.9107,-18.87501 -68.3344,-18.87501 -94.2112,0 -25.5658,18.6612 -24.8196,48.40359 1.1094,66.4956 19.3068,13.45072 47.3251,16.76005 70.8349,9.9693 l 85.4984,60.41592 -226.0536,0 c -3.1765,-4.18096 -7.3514,-8.14124 -12.559,-11.64595 -25.8867,-17.37514 -66.5804,-17.37514 -90.4234,0 -23.5215,17.17432 -21.2305,44.60375 4.6019,61.25582 25.586,16.47559 64.985,16.47559 88.5597,0 5.8617,-4.10112 10.2394,-8.86473 13.1016,-13.96448 l 225.3973,0 c 2.8772,5.09975 7.2311,9.85188 13.1463,13.96448 17.9122,12.49548 44.8091,15.48636 67.8515,9.10328 l 86.4278,61.066" style="fill:#fff;fill-opacity:.50196078;fill-rule:nonzero;stroke:none"/><path style="fill:#f47066;fill-opacity:1;fill-rule:nonzero;stroke:none" id="path5480" d="m 1719.1917,205.45519 359.9513,274.02608 c 18.8905,14.36946 15.6186,37.39172 -6.9447,51.42062 l -79.5802,49.43681 -87.5876,-63.00616 c 8.6172,-15.04525 4.9777,-32.48763 -11.8365,-44.7299 -17.06,-12.41871 -42.7561,-15.91607 -65.5227,-10.52664 l -91.5494,-65.85784 c 8.2627,-16.37627 3.4984,-35.4771 -14.8906,-48.85039 -25.9107,-18.87501 -68.3344,-18.87501 -94.2112,0 -25.5658,18.6612 -24.8196,48.40359 1.1094,66.4956 19.3068,13.45072 47.3251,16.76005 70.8349,9.9693 l 85.4984,60.41592 -226.0536,0 c -3.1765,-4.18096 -7.3514,-8.14124 -12.559,-11.64595 -25.8867,-17.37514 -66.5804,-17.37514 -90.4234,0 -23.5215,17.17432 -21.2305,44.60375 4.6019,61.25582 25.586,16.47559 64.985,16.47559 88.5597,0 5.8617,-4.10112 10.2394,-8.86473 13.1016,-13.96448 l 225.3973,0 c 2.8772,5.09975 7.2311,9.85188 13.1463,13.96448 17.9122,12.49548 44.8091,15.48636 67.8515,9.10328 l 86.429,61.06496 -240.6474,149.54736 c -19.0843,11.84671 -49.7534,11.84671 -68.8146,0 L 1285.039,529.76942 c -22.5665,-14.02336 -25.8398,-37.05598 -6.9502,-51.46096 l 358.2713,-272.85327 c 22.766,-17.33824 60.0627,-17.33824 82.8316,0"/><path style="fill:#fff;fill-opacity:.50196078;fill-rule:nonzero;stroke:none" id="path5486" d="m 1992.622,644.34129 -87.5915,-63.00875 c 8.6172,-15.04525 4.9777,-32.48763 -11.8365,-44.7299 -17.06,-12.41871 -42.7561,-15.91607 -65.5227,-10.52664 l -91.5494,-65.85784 c 8.2627,-16.37627 3.4984,-35.4771 -14.8906,-48.85039 -25.9107,-18.87501 -68.3344,-18.87501 -94.2112,0 -25.5658,18.6612 -24.8196,48.40359 1.1094,66.4956 19.3068,13.45072 47.3251,16.76005 70.8349,9.9693 l 85.4984,60.41592 -226.0536,0 c -3.1765,-4.18096 -7.3514,-8.14124 -12.559,-11.64595 -25.8867,-17.37514 -66.5804,-17.37514 -90.4234,0 -23.5215,17.17432 -21.2305,44.60375 4.6019,61.25582 25.586,16.47559 64.985,16.47559 88.5597,0 5.8617,-4.10112 10.2394,-8.86473 13.1016,-13.96448 l 225.3973,0 c 2.8772,5.09975 7.2311,9.85188 13.1463,13.96448 17.9122,12.49548 44.8091,15.48636 67.8515,9.10328 l 86.4278,61.066"/><path id="path5488" d="m 1719.1917,269.45519 359.9513,274.02608 c 18.8905,14.36946 15.6186,37.39172 -6.9447,51.42062 l -79.5802,49.43681 -87.5876,-63.00616 c 8.6172,-15.04525 4.9777,-32.48763 -11.8365,-44.7299 -17.06,-12.41871 -42.7561,-15.91607 -65.5227,-10.52664 l -91.5494,-65.85784 c 8.2627,-16.37627 3.4984,-35.4771 -14.8906,-48.85039 -25.9107,-18.87501 -68.3344,-18.87501 -94.2112,0 -25.5658,18.6612 -24.8196,48.40359 1.1094,66.4956 19.3068,13.45072 47.3251,16.76005 70.8349,9.9693 l 85.4984,60.41592 -226.0536,0 c -3.1765,-4.18096 -7.3514,-8.14124 -12.559,-11.64595 -25.8867,-17.37514 -66.5804,-17.37514 -90.4234,0 -23.5215,17.17432 -21.2305,44.60375 4.6019,61.25582 25.586,16.47559 64.985,16.47559 88.5597,0 5.8617,-4.10112 10.2394,-8.86473 13.1016,-13.96448 l 225.3973,0 c 2.8772,5.09975 7.2311,9.85188 13.1463,13.96448 17.9122,12.49548 44.8091,15.48636 67.8515,9.10328 l 86.429,61.06496 -240.6474,149.54736 c -19.0843,11.84671 -49.7534,11.84671 -68.8146,0 L 1285.039,593.76942 c -22.5665,-14.02336 -25.8398,-37.05598 -6.9502,-51.46096 l 358.2713,-272.85327 c 22.766,-17.33824 60.0627,-17.33824 82.8316,0" style="fill:#f03c2e;fill-opacity:1;fill-rule:nonzero;stroke:none"/></g></g></svg>