<svg xmlns="http://www.w3.org/2000/svg" xmlns:svg="http://www.w3.org/2000/svg" id="svg4188" width="210mm" height="297mm" version="1.1" viewBox="0 0 744.094 1052.362"><metadata id="metadata4193"/><g id="layer1"><g style="fill:#630e07;fill-opacity:1" id="g4825" transform="matrix(0.125,0,0,-0.125,40.96645,474.61723)"><path id="path4827" d="m 1719.1917,141.45519 c 0,0 359.9513,274.02608 359.9513,274.02608 18.8905,14.36946 15.6186,37.39172 -6.9447,51.42062 0,0 -79.5763,49.4394 -79.5763,49.4394 0,0 -87.5915,-63.00875 -87.5915,-63.00875 8.6172,-15.04525 4.9777,-32.48763 -11.8365,-44.7299 -17.06,-12.41871 -42.7561,-15.91607 -65.5227,-10.52664 0,0 -91.5494,-65.85784 -91.5494,-65.85784 8.2627,-16.37627 3.4984,-35.4771 -14.8906,-48.85039 -25.9107,-18.87501 -68.3344,-18.87501 -94.2112,0 -25.5658,18.6612 -24.8196,48.40359 1.1094,66.4956 19.3068,13.45072 47.3251,16.76005 70.8349,9.9693 0,0 85.4984,60.41592 85.4984,60.41592 0,0 -226.0536,0 -226.0536,0 -3.1765,-4.18096 -7.3514,-8.14124 -12.559,-11.64595 -25.8867,-17.37514 -66.5804,-17.37514 -90.4234,0 -23.5215,17.17432 -21.2305,44.60375 4.6019,61.25582 25.586,16.47559 64.985,16.47559 88.5597,0 5.8617,-4.10112 10.2394,-8.86473 13.1016,-13.96448 0,0 225.3973,0 225.3973,0 2.8772,5.09975 7.2311,9.85188 13.1463,13.96448 17.9122,12.49548 44.8091,15.48636 67.8515,9.10328 0,0 86.4278,61.066 86.4278,61.066 0,0 -240.6462,149.54632 -240.6462,149.54632 -19.0843,11.84671 -49.7534,11.84671 -68.8146,0 0,0 -360.0131,-223.80464 -360.0131,-223.80464 -22.5665,-14.02336 -25.8398,-37.05598 -6.9502,-51.46096 0,0 358.2713,-272.85327 358.2713,-272.85327 22.766,-17.33824 60.0627,-17.33824 82.8316,0" style="fill:#630e07;fill-opacity:1;fill-rule:nonzero;stroke:none"/></g><g id="g4165" transform="matrix(0.125,0,0,-0.125,180.96645,458.24223)"><path id="path4167" d="M1719.19171725 141.455190919C1719.19171725 141.455190919 2079.1430155 415.481265215 2079.1430155 415.481265215C2098.03350237 429.850726872 2094.76162824 452.872994674 2072.19825234 466.90188873C2072.19825234 466.90188873 1992.6219675 516.341294499 1992.6219675 516.341294499C1992.6219675 516.341294499 1905.03052374 453.332542759 1905.03052374 453.332542759C1913.64774477 438.287294923 1910.00816006 420.844912337 1893.19403891 408.602639944C1876.13396349 396.183928689 1850.43787017 392.686570493 1827.6712837 398.07599531C1827.6712837 398.07599531 1736.12194059 332.218163642 1736.12194059 332.218163642C1744.38460169 315.841887842 1739.6202512 296.741056366 1721.23127575 283.367772008C1695.32064948 264.492761209 1652.89694928 264.492761209 1627.020108 283.367772008C1601.45427155 302.028971547 1602.2005145 331.771359807 1628.12954429 349.863365154C1647.43631896 363.314092763 1675.4546168 366.623416528 1698.9644431 359.832672703C1698.9644431 359.832672703 1784.46279945 420.248594308 1784.46279945 420.248594308C1784.46279945 420.248594308 1558.40919711 420.248594308 1558.40919711 420.248594308C1555.23270645 416.067630339 1551.05784114 412.107352377 1545.85022898 408.602639944C1519.96351596 391.227499975 1479.26984538 391.227499975 1455.42677182 408.602639944C1431.90530668 425.776961217 1434.19630601 453.206394721 1460.02868176 469.858457462C1485.61470831 486.334054008 1525.0136708 486.334054008 1548.5883587 469.858457462C1554.45012811 465.757337118 1558.82776711 460.993730995 1561.69002415 455.893980196C1561.69002415 455.893980196 1787.08726535 455.893980196 1787.08726535 455.893980196C1789.96453641 460.993730995 1794.31836696 465.745856849 1800.23359987 469.858457462C1818.14578094 482.35393518 1845.0427447 485.34481857 1868.08513803 478.961737946C1868.08513803 478.961737946 1954.51286447 540.02774274 1954.51286447 540.02774274C1954.51286447 540.02774274 1713.86674826 689.574056032 1713.86674826 689.574056032C1694.78240256 701.420773369 1664.11332616 701.420773369 1645.05209063 689.574056032C1645.05209063 689.574056032 1285.03899317 465.769421513 1285.03899317 465.769421513C1262.47249287 451.74606478 1259.19919934 428.71343608 1278.08882969 414.308464533C1278.08882969 414.308464533 1636.36009359 141.455190919 1636.36009359 141.455190919C1659.12610787 124.116948312 1696.42284011 124.116948312 1719.19171725 141.455190919" style="fill:#f03c2e;fill-opacity:1;fill-rule:nonzero;stroke:none"/></g><path id="rect4754" d="m 343.75,370.93362 94.107,0 10.00014,71.25 -114.10714,0 z" style="fill:none;fill-opacity:1;stroke:#000;stroke-width:1;stroke-linejoin:round;stroke-miterlimit:4;stroke-dasharray:none;stroke-opacity:1"/><g id="g4813" transform="matrix(0.125,0,0,-0.125,40.96645,462.61723)" style="fill:#9b150b;fill-opacity:1"><path style="fill:#9b150b;fill-opacity:1;fill-rule:nonzero;stroke:none" id="path4815" d="m 1719.1917,141.45519 c 0,0 359.9513,274.02608 359.9513,274.02608 18.8905,14.36946 15.6186,37.39172 -6.9447,51.42062 0,0 -79.5763,49.4394 -79.5763,49.4394 0,0 -87.5915,-63.00875 -87.5915,-63.00875 8.6172,-15.04525 4.9777,-32.48763 -11.8365,-44.7299 -17.06,-12.41871 -42.7561,-15.91607 -65.5227,-10.52664 0,0 -91.5494,-65.85784 -91.5494,-65.85784 8.2627,-16.37627 3.4984,-35.4771 -14.8906,-48.85039 -25.9107,-18.87501 -68.3344,-18.87501 -94.2112,0 -25.5658,18.6612 -24.8196,48.40359 1.1094,66.4956 19.3068,13.45072 47.3251,16.76005 70.8349,9.9693 0,0 85.4984,60.41592 85.4984,60.41592 0,0 -226.0536,0 -226.0536,0 -3.1765,-4.18096 -7.3514,-8.14124 -12.559,-11.64595 -25.8867,-17.37514 -66.5804,-17.37514 -90.4234,0 -23.5215,17.17432 -21.2305,44.60375 4.6019,61.25582 25.586,16.47559 64.985,16.47559 88.5597,0 5.8617,-4.10112 10.2394,-8.86473 13.1016,-13.96448 0,0 225.3973,0 225.3973,0 2.8772,5.09975 7.2311,9.85188 13.1463,13.96448 17.9122,12.49548 44.8091,15.48636 67.8515,9.10328 0,0 86.4278,61.066 86.4278,61.066 0,0 -240.6462,149.54632 -240.6462,149.54632 -19.0843,11.84671 -49.7534,11.84671 -68.8146,0 0,0 -360.0131,-223.80464 -360.0131,-223.80464 -22.5665,-14.02336 -25.8398,-37.05598 -6.9502,-51.46096 0,0 358.2713,-272.85327 358.2713,-272.85327 22.766,-17.33824 60.0627,-17.33824 82.8316,0"/></g><g id="g4817" transform="matrix(0.125,0,0,-0.125,40.96645,450.61723)" style="fill:#d31d0f;fill-opacity:1"><path id="path4819" d="m 1719.1917,141.45519 c 0,0 359.9513,274.02608 359.9513,274.02608 18.8905,14.36946 15.6186,37.39172 -6.9447,51.42062 0,0 -79.5763,49.4394 -79.5763,49.4394 0,0 -87.5915,-63.00875 -87.5915,-63.00875 8.6172,-15.04525 4.9777,-32.48763 -11.8365,-44.7299 -17.06,-12.41871 -42.7561,-15.91607 -65.5227,-10.52664 0,0 -91.5494,-65.85784 -91.5494,-65.85784 8.2627,-16.37627 3.4984,-35.4771 -14.8906,-48.85039 -25.9107,-18.87501 -68.3344,-18.87501 -94.2112,0 -25.5658,18.6612 -24.8196,48.40359 1.1094,66.4956 19.3068,13.45072 47.3251,16.76005 70.8349,9.9693 0,0 85.4984,60.41592 85.4984,60.41592 0,0 -226.0536,0 -226.0536,0 -3.1765,-4.18096 -7.3514,-8.14124 -12.559,-11.64595 -25.8867,-17.37514 -66.5804,-17.37514 -90.4234,0 -23.5215,17.17432 -21.2305,44.60375 4.6019,61.25582 25.586,16.47559 64.985,16.47559 88.5597,0 5.8617,-4.10112 10.2394,-8.86473 13.1016,-13.96448 0,0 225.3973,0 225.3973,0 2.8772,5.09975 7.2311,9.85188 13.1463,13.96448 17.9122,12.49548 44.8091,15.48636 67.8515,9.10328 0,0 86.4278,61.066 86.4278,61.066 0,0 -240.6462,149.54632 -240.6462,149.54632 -19.0843,11.84671 -49.7534,11.84671 -68.8146,0 0,0 -360.0131,-223.80464 -360.0131,-223.80464 -22.5665,-14.02336 -25.8398,-37.05598 -6.9502,-51.46096 0,0 358.2713,-272.85327 358.2713,-272.85327 22.766,-17.33824 60.0627,-17.33824 82.8316,0" style="fill:#d31d0f;fill-opacity:1;fill-rule:nonzero;stroke:none"/></g><g id="g4821" transform="matrix(0.125,0,0,-0.125,40.96645,438.61723)" style="fill:#f03c2e;fill-opacity:1"><path style="fill:#f03c2e;fill-opacity:1;fill-rule:nonzero;stroke:none" id="path4823" d="m 1719.1917,141.45519 c 0,0 359.9513,274.02608 359.9513,274.02608 18.8905,14.36946 15.6186,37.39172 -6.9447,51.42062 0,0 -79.5763,49.4394 -79.5763,49.4394 0,0 -87.5915,-63.00875 -87.5915,-63.00875 8.6172,-15.04525 4.9777,-32.48763 -11.8365,-44.7299 -17.06,-12.41871 -42.7561,-15.91607 -65.5227,-10.52664 0,0 -91.5494,-65.85784 -91.5494,-65.85784 8.2627,-16.37627 3.4984,-35.4771 -14.8906,-48.85039 -25.9107,-18.87501 -68.3344,-18.87501 -94.2112,0 -25.5658,18.6612 -24.8196,48.40359 1.1094,66.4956 19.3068,13.45072 47.3251,16.76005 70.8349,9.9693 0,0 85.4984,60.41592 85.4984,60.41592 0,0 -226.0536,0 -226.0536,0 -3.1765,-4.18096 -7.3514,-8.14124 -12.559,-11.64595 -25.8867,-17.37514 -66.5804,-17.37514 -90.4234,0 -23.5215,17.17432 -21.2305,44.60375 4.6019,61.25582 25.586,16.47559 64.985,16.47559 88.5597,0 5.8617,-4.10112 10.2394,-8.86473 13.1016,-13.96448 0,0 225.3973,0 225.3973,0 2.8772,5.09975 7.2311,9.85188 13.1463,13.96448 17.9122,12.49548 44.8091,15.48636 67.8515,9.10328 0,0 86.4278,61.066 86.4278,61.066 0,0 -240.6462,149.54632 -240.6462,149.54632 -19.0843,11.84671 -49.7534,11.84671 -68.8146,0 0,0 -360.0131,-223.80464 -360.0131,-223.80464 -22.5665,-14.02336 -25.8398,-37.05598 -6.9502,-51.46096 0,0 358.2713,-272.85327 358.2713,-272.85327 22.766,-17.33824 60.0627,-17.33824 82.8316,0"/></g><g id="g4829" transform="matrix(0.125,0,0,-0.125,307.30574,460.70652)"><path style="fill:#fff;fill-opacity:.50196078;fill-rule:nonzero;stroke:none" id="path4831" d="m 1992.622,516.34129 -87.5915,-63.00875 c 8.6172,-15.04525 4.9777,-32.48763 -11.8365,-44.7299 -17.06,-12.41871 -42.7561,-15.91607 -65.5227,-10.52664 l -91.5494,-65.85784 c 8.2627,-16.37627 3.4984,-35.4771 -14.8906,-48.85039 -25.9107,-18.87501 -68.3344,-18.87501 -94.2112,0 -25.5658,18.6612 -24.8196,48.40359 1.1094,66.4956 19.3068,13.45072 47.3251,16.76005 70.8349,9.9693 l 85.4984,60.41592 -226.0536,0 c -3.1765,-4.18096 -7.3514,-8.14124 -12.559,-11.64595 -25.8867,-17.37514 -66.5804,-17.37514 -90.4234,0 -23.5215,17.17432 -21.2305,44.60375 4.6019,61.25582 25.586,16.47559 64.985,16.47559 88.5597,0 5.8617,-4.10112 10.2394,-8.86473 13.1016,-13.96448 l 225.3973,0 c 2.8772,5.09975 7.2311,9.85188 13.1463,13.96448 17.9122,12.49548 44.8091,15.48636 67.8515,9.10328 l 86.4278,61.066"/><path id="path5459" d="m 1719.1917,141.45519 359.9513,274.02608 c 18.8905,14.36946 15.6186,37.39172 -6.9447,51.42062 l -79.5802,49.43681 -87.5876,-63.00616 c 8.6172,-15.04525 4.9777,-32.48763 -11.8365,-44.7299 -17.06,-12.41871 -42.7561,-15.91607 -65.5227,-10.52664 l -91.5494,-65.85784 c 8.2627,-16.37627 3.4984,-35.4771 -14.8906,-48.85039 -25.9107,-18.87501 -68.3344,-18.87501 -94.2112,0 -25.5658,18.6612 -24.8196,48.40359 1.1094,66.4956 19.3068,13.45072 47.3251,16.76005 70.8349,9.9693 l 85.4984,60.41592 -226.0536,0 c -3.1765,-4.18096 -7.3514,-8.14124 -12.559,-11.64595 -25.8867,-17.37514 -66.5804,-17.37514 -90.4234,0 -23.5215,17.17432 -21.2305,44.60375 4.6019,61.25582 25.586,16.47559 64.985,16.47559 88.5597,0 5.8617,-4.10112 10.2394,-8.86473 13.1016,-13.96448 l 225.3973,0 c 2.8772,5.09975 7.2311,9.85188 13.1463,13.96448 17.9122,12.49548 44.8091,15.48636 67.8515,9.10328 l 86.429,61.06496 -240.6474,149.54736 c -19.0843,11.84671 -49.7534,11.84671 -68.8146,0 L 1285.039,465.76942 c -22.5665,-14.02336 -25.8398,-37.05598 -6.9502,-51.46096 l 358.2713,-272.85327 c 22.766,-17.33824 60.0627,-17.33824 82.8316,0" style="fill:#f8a49e;fill-opacity:1;fill-rule:nonzero;stroke:none"/><path id="path5478" d="m 1992.622,580.34129 -87.5915,-63.00875 c 8.6172,-15.04525 4.9777,-32.48763 -11.8365,-44.7299 -17.06,-12.41871 -42.7561,-15.91607 -65.5227,-10.52664 l -91.5494,-65.85784 c 8.2627,-16.37627 3.4984,-35.4771 -14.8906,-48.85039 -25.9107,-18.87501 -68.3344,-18.87501 -94.2112,0 -25.5658,18.6612 -24.8196,48.40359 1.1094,66.4956 19.3068,13.45072 47.3251,16.76005 70.8349,9.9693 l 85.4984,60.41592 -226.0536,0 c -3.1765,-4.18096 -7.3514,-8.14124 -12.559,-11.64595 -25.8867,-17.37514 -66.5804,-17.37514 -90.4234,0 -23.5215,17.17432 -21.2305,44.60375 4.6019,61.25582 25.586,16.47559 64.985,16.47559 88.5597,0 5.8617,-4.10112 10.2394,-8.86473 13.1016,-13.96448 l 225.3973,0 c 2.8772,5.09975 7.2311,9.85188 13.1463,13.96448 17.9122,12.49548 44.8091,15.48636 67.8515,9.10328 l 86.4278,61.066" style="fill:#fff;fill-opacity:.50196078;fill-rule:nonzero;stroke:none"/><path style="fill:#f47066;fill-opacity:1;fill-rule:nonzero;stroke:none" id="path5480" d="m 1719.1917,205.45519 359.9513,274.02608 c 18.8905,14.36946 15.6186,37.39172 -6.9447,51.42062 l -79.5802,49.43681 -87.5876,-63.00616 c 8.6172,-15.04525 4.9777,-32.48763 -11.8365,-44.7299 -17.06,-12.41871 -42.7561,-15.91607 -65.5227,-10.52664 l -91.5494,-65.85784 c 8.2627,-16.37627 3.4984,-35.4771 -14.8906,-48.85039 -25.9107,-18.87501 -68.3344,-18.87501 -94.2112,0 -25.5658,18.6612 -24.8196,48.40359 1.1094,66.4956 19.3068,13.45072 47.3251,16.76005 70.8349,9.9693 l 85.4984,60.41592 -226.0536,0 c -3.1765,-4.18096 -7.3514,-8.14124 -12.559,-11.64595 -25.8867,-17.37514 -66.5804,-17.37514 -90.4234,0 -23.5215,17.17432 -21.2305,44.60375 4.6019,61.25582 25.586,16.47559 64.985,16.47559 88.5597,0 5.8617,-4.10112 10.2394,-8.86473 13.1016,-13.96448 l 225.3973,0 c 2.8772,5.09975 7.2311,9.85188 13.1463,13.96448 17.9122,12.49548 44.8091,15.48636 67.8515,9.10328 l 86.429,61.06496 -240.6474,149.54736 c -19.0843,11.84671 -49.7534,11.84671 -68.8146,0 L 1285.039,529.76942 c -22.5665,-14.02336 -25.8398,-37.05598 -6.9502,-51.46096 l 358.2713,-272.85327 c 22.766,-17.33824 60.0627,-17.33824 82.8316,0"/><path style="fill:#fff;fill-opacity:.50196078;fill-rule:nonzero;stroke:none" id="path5486" d="m 1992.622,644.34129 -87.5915,-63.00875 c 8.6172,-15.04525 4.9777,-32.48763 -11.8365,-44.7299 -17.06,-12.41871 -42.7561,-15.91607 -65.5227,-10.52664 l -91.5494,-65.85784 c 8.2627,-16.37627 3.4984,-35.4771 -14.8906,-48.85039 -25.9107,-18.87501 -68.3344,-18.87501 -94.2112,0 -25.5658,18.6612 -24.8196,48.40359 1.1094,66.4956 19.3068,13.45072 47.3251,16.76005 70.8349,9.9693 l 85.4984,60.41592 -226.0536,0 c -3.1765,-4.18096 -7.3514,-8.14124 -12.559,-11.64595 -25.8867,-17.37514 -66.5804,-17.37514 -90.4234,0 -23.5215,17.17432 -21.2305,44.60375 4.6019,61.25582 25.586,16.47559 64.985,16.47559 88.5597,0 5.8617,-4.10112 10.2394,-8.86473 13.1016,-13.96448 l 225.3973,0 c 2.8772,5.09975 7.2311,9.85188 13.1463,13.96448 17.9122,12.49548 44.8091,15.48636 67.8515,9.10328 l 86.4278,61.066"/><path id="path5488" d="m 1719.1917,269.45519 359.9513,274.02608 c 18.8905,14.36946 15.6186,37.39172 -6.9447,51.42062 l -79.5802,49.43681 -87.5876,-63.00616 c 8.6172,-15.04525 4.9777,-32.48763 -11.8365,-44.7299 -17.06,-12.41871 -42.7561,-15.91607 -65.5227,-10.52664 l -91.5494,-65.85784 c 8.2627,-16.37627 3.4984,-35.4771 -14.8906,-48.85039 -25.9107,-18.87501 -68.3344,-18.87501 -94.2112,0 -25.5658,18.6612 -24.8196,48.40359 1.1094,66.4956 19.3068,13.45072 47.3251,16.76005 70.8349,9.9693 l 85.4984,60.41592 -226.0536,0 c -3.1765,-4.18096 -7.3514,-8.14124 -12.559,-11.64595 -25.8867,-17.37514 -66.5804,-17.37514 -90.4234,0 -23.5215,17.17432 -21.2305,44.60375 4.6019,61.25582 25.586,16.47559 64.985,16.47559 88.5597,0 5.8617,-4.10112 10.2394,-8.86473 13.1016,-13.96448 l 225.3973,0 c 2.8772,5.09975 7.2311,9.85188 13.1463,13.96448 17.9122,12.49548 44.8091,15.48636 67.8515,9.10328 l 86.429,61.06496 -240.6474,149.54736 c -19.0843,11.84671 -49.7534,11.84671 -68.8146,0 L 1285.039,593.76942 c -22.5665,-14.02336 -25.8398,-37.05598 -6.9502,-51.46096 l 358.2713,-272.85327 c 22.766,-17.33824 60.0627,-17.33824 82.8316,0" style="fill:#f03c2e;fill-opacity:1;fill-rule:nonzero;stroke:none"/></g></g></svg>