<svg xmlns="http://www.w3.org/2000/svg" xmlns:svg="http://www.w3.org/2000/svg" id="svg2" width="516.649" height="1035.588" version="1.1" viewBox="0 0 484.358 970.864"><defs id="defs4"><marker id="Arrow2Lend" orient="auto" refX="0" refY="0" style="overflow:visible"><path id="path5437" d="M 8.7185878,4.0337352 -2.2072895,0.01601326 8.7185884,-4.0017078 c -1.7454984,2.3720609 -1.7354408,5.6174519 -6e-7,8.035443 z" transform="matrix(-1.1,0,0,-1.1,-1.1,0)" style="fill-rule:evenodd;stroke-width:.625;stroke-linejoin:round"/></marker><marker id="Arrow2Lstart" orient="auto" refX="0" refY="0" style="overflow:visible"><path id="path5434" d="M 8.7185878,4.0337352 -2.2072895,0.01601326 8.7185884,-4.0017078 c -1.7454984,2.3720609 -1.7354408,5.6174519 -6e-7,8.035443 z" transform="matrix(1.1,0,0,1.1,1.1,0)" style="fill-rule:evenodd;stroke-width:.625;stroke-linejoin:round"/></marker><marker id="Arrow1Send" orient="auto" refX="0" refY="0" style="overflow:visible"><path id="path5431" d="M 0,0 5,-5 -12.5,0 5,5 0,0 Z" transform="matrix(-0.2,0,0,-0.2,-1.2,0)" style="fill-rule:evenodd;stroke:#000;stroke-width:1pt"/></marker><marker id="Arrow1Sstart" orient="auto" refX="0" refY="0" style="overflow:visible"><path id="path5428" d="M 0,0 5,-5 -12.5,0 5,5 0,0 Z" transform="matrix(0.2,0,0,0.2,1.2,0)" style="fill-rule:evenodd;stroke:#000;stroke-width:1pt"/></marker><marker id="Arrow1Mend" orient="auto" refX="0" refY="0" style="overflow:visible"><path id="path5425" d="M 0,0 5,-5 -12.5,0 5,5 0,0 Z" transform="matrix(-0.4,0,0,-0.4,-4,0)" style="fill-rule:evenodd;stroke:#000;stroke-width:1pt"/></marker><marker id="Arrow1Mstart" orient="auto" refX="0" refY="0" style="overflow:visible"><path id="path5422" d="M 0,0 5,-5 -12.5,0 5,5 0,0 Z" transform="matrix(0.4,0,0,0.4,4,0)" style="fill-rule:evenodd;stroke:#000;stroke-width:1pt"/></marker><marker id="marker5770" orient="auto" refX="0" refY="0" style="overflow:visible"><path id="path5772" d="M 0,0 5,-5 -12.5,0 5,5 0,0 Z" transform="matrix(-0.8,0,0,-0.8,-10,0)" style="fill-rule:evenodd;stroke:#000;stroke-width:1pt"/></marker><marker id="Arrow1Lstart" orient="auto" refX="0" refY="0" style="overflow:visible"><path id="path5416" d="M 0,0 5,-5 -12.5,0 5,5 0,0 Z" transform="matrix(0.8,0,0,0.8,10,0)" style="fill-rule:evenodd;stroke:#000;stroke-width:1pt"/></marker><marker id="marker5700" orient="auto" refX="0" refY="0" style="overflow:visible"><path id="path5702" d="M 8.7185878,4.0337352 -2.2072895,0.01601326 8.7185884,-4.0017078 c -1.7454984,2.3720609 -1.7354408,5.6174519 -6e-7,8.035443 z" transform="scale(-0.6,-0.6)" style="fill:#ff2a2a;fill-opacity:1;fill-rule:evenodd;stroke:#d40000;stroke-width:.625;stroke-linejoin:round;stroke-opacity:1"/></marker><marker style="overflow:visible" id="marker5694" orient="auto" refX="0" refY="0"><path style="fill:#ff2a2a;fill-opacity:1;fill-rule:evenodd;stroke:#d40000;stroke-width:.625;stroke-linejoin:round;stroke-opacity:1" id="path5696" d="M 8.7185878,4.0337352 -2.2072895,0.01601326 8.7185884,-4.0017078 c -1.7454984,2.3720609 -1.7354408,5.6174519 -6e-7,8.035443 z" transform="scale(-0.6,-0.6)"/></marker><marker style="overflow:visible" id="marker5688" orient="auto" refX="0" refY="0"><path style="fill:#ff2a2a;fill-opacity:1;fill-rule:evenodd;stroke:#d40000;stroke-width:.625;stroke-linejoin:round;stroke-opacity:1" id="path5690" d="M 8.7185878,4.0337352 -2.2072895,0.01601326 8.7185884,-4.0017078 c -1.7454984,2.3720609 -1.7354408,5.6174519 -6e-7,8.035443 z" transform="scale(-0.6,-0.6)"/></marker><marker style="overflow:visible" id="marker5682" orient="auto" refX="0" refY="0"><path style="fill:#ff2a2a;fill-opacity:1;fill-rule:evenodd;stroke:#d40000;stroke-width:.625;stroke-linejoin:round;stroke-opacity:1" id="path5684" d="M 8.7185878,4.0337352 -2.2072895,0.01601326 8.7185884,-4.0017078 c -1.7454984,2.3720609 -1.7354408,5.6174519 -6e-7,8.035443 z" transform="scale(-0.6,-0.6)"/></marker><marker id="Arrow2Mend" orient="auto" refX="0" refY="0" style="overflow:visible"><path id="path5443" d="M 8.7185878,4.0337352 -2.2072895,0.01601326 8.7185884,-4.0017078 c -1.7454984,2.3720609 -1.7354408,5.6174519 -6e-7,8.035443 z" transform="scale(-0.6,-0.6)" style="fill:#ff2a2a;fill-opacity:1;fill-rule:evenodd;stroke:#d40000;stroke-width:.625;stroke-linejoin:round;stroke-opacity:1"/></marker><marker id="DiamondSend" orient="auto" refX="0" refY="0" style="overflow:visible"><path id="path5519" d="M 0,-7.0710768 -7.0710894,0 0,7.0710589 7.0710462,0 0,-7.0710768 Z" transform="matrix(0.2,0,0,0.2,-1.2,0)" style="fill:#ff2a2a;fill-opacity:1;fill-rule:evenodd;stroke:#d40000;stroke-width:1pt;stroke-opacity:1"/></marker><marker id="TriangleOutM" orient="auto" refX="0" refY="0" style="overflow:visible"><path id="path5561" d="m 5.77,0 -8.65,5 0,-10 8.65,5 z" transform="scale(0.4,0.4)" style="fill:#ff2a2a;fill-opacity:1;fill-rule:evenodd;stroke:#d40000;stroke-width:1pt;stroke-opacity:1"/></marker><marker id="Arrow1Lend" orient="auto" refX="0" refY="0" style="overflow:visible"><path id="path5419" d="M 0,0 5,-5 -12.5,0 5,5 0,0 Z" transform="matrix(-0.8,0,0,-0.8,-10,0)" style="fill:#ff2a2a;fill-opacity:1;fill-rule:evenodd;stroke:#d40000;stroke-width:1pt;stroke-opacity:1"/></marker></defs><metadata id="metadata7"/><g id="layer1" transform="translate(-44.451773,-9.2218236)"><g id="g5876" transform="translate(0,458.01534)"><path id="path5878" d="m 161.62441,340.95846 0,96.97465 -96.974651,0 0,-96.97465" style="fill:none;fill-opacity:.99215686;stroke:#000;stroke-width:8;stroke-miterlimit:4;stroke-dasharray:none;stroke-opacity:1"/><path style="fill:none;fill-opacity:.99215686;stroke:#000;stroke-width:8;stroke-miterlimit:4;stroke-dasharray:none;stroke-opacity:1" id="path5880" d="m 511.64226,340.95846 0,96.97465 -96.97465,0 0,-96.97465"/><path id="path5882" d="m 394.96963,340.95846 0,96.97465 -96.97465,0 0,-96.97465" style="fill:none;fill-opacity:.99215686;stroke:#000;stroke-width:8;stroke-miterlimit:4;stroke-dasharray:none;stroke-opacity:1"/><path style="fill:none;fill-opacity:.99215686;stroke:#000;stroke-width:8;stroke-miterlimit:4;stroke-dasharray:none;stroke-opacity:1" id="path5884" d="m 278.29702,340.95846 0,96.97465 -96.97465,0 0,-96.97465"/></g><g id="g5866" transform="translate(0,229.00765)"><path style="fill:none;fill-opacity:.99215686;stroke:#000;stroke-width:8;stroke-miterlimit:4;stroke-dasharray:none;stroke-opacity:1" id="path5868" d="m 161.62441,340.95846 0,96.97465 -96.974651,0 0,-96.97465"/><path id="path5870" d="m 511.64226,340.95846 0,96.97465 -96.97465,0 0,-96.97465" style="fill:none;fill-opacity:.99215686;stroke:#000;stroke-width:8;stroke-miterlimit:4;stroke-dasharray:none;stroke-opacity:1"/><path style="fill:none;fill-opacity:.99215686;stroke:#000;stroke-width:8;stroke-miterlimit:4;stroke-dasharray:none;stroke-opacity:1" id="path5872" d="m 394.96963,340.95846 0,96.97465 -96.97465,0 0,-96.97465"/><path id="path5874" d="m 278.29702,340.95846 0,96.97465 -96.97465,0 0,-96.97465" style="fill:none;fill-opacity:.99215686;stroke:#000;stroke-width:8;stroke-miterlimit:4;stroke-dasharray:none;stroke-opacity:1"/></g><g id="g5852" transform="translate(0,-229.00766)"><path style="fill:none;fill-opacity:.99215686;stroke:#000;stroke-width:8;stroke-miterlimit:4;stroke-dasharray:none;stroke-opacity:1" id="path5854" d="m 161.62441,340.95846 0,96.97465 -96.974651,0 0,-96.97465"/><path id="path5856" d="m 511.64226,340.95846 0,96.97465 -96.97465,0 0,-96.97465" style="fill:none;fill-opacity:.99215686;stroke:#000;stroke-width:8;stroke-miterlimit:4;stroke-dasharray:none;stroke-opacity:1"/><path style="fill:none;fill-opacity:.99215686;stroke:#000;stroke-width:8;stroke-miterlimit:4;stroke-dasharray:none;stroke-opacity:1" id="path5858" d="m 394.96963,340.95846 0,96.97465 -96.97465,0 0,-96.97465"/><path id="path5860" d="m 278.29702,340.95846 0,96.97465 -96.97465,0 0,-96.97465" style="fill:none;fill-opacity:.99215686;stroke:#000;stroke-width:8;stroke-miterlimit:4;stroke-dasharray:none;stroke-opacity:1"/></g><rect style="fill:#55d400;fill-opacity:1;stroke:#000;stroke-width:.81611168;stroke-miterlimit:4;stroke-dasharray:none;stroke-opacity:1" id="rect4184" width="77.811" height="12" x="124.368" y="-7.963" transform="matrix(0.95182666,0.30663662,0.30663662,-0.95182666,0,0)"/><rect style="fill:#55d400;fill-opacity:1;stroke:#000;stroke-width:.81611168;stroke-miterlimit:4;stroke-dasharray:none;stroke-opacity:1" id="rect4435" width="40.927" height="12" x="69.694" y="68.022"/><rect style="fill:#55d400;fill-opacity:1;stroke:#000;stroke-width:.81611168;stroke-miterlimit:4;stroke-dasharray:none;stroke-opacity:1" id="rect4437" width="10.105" height="12" x="205.474" y="63.604"/><rect style="fill:#55d400;fill-opacity:1;stroke:#000;stroke-width:.81611168;stroke-miterlimit:4;stroke-dasharray:none;stroke-opacity:1" id="rect4439" width="64.674" height="12" x="224.296" y="171.193" transform="matrix(0.91932993,-0.39348759,0.39348759,0.91932993,0,0)"/><rect style="fill:#55d400;fill-opacity:1;stroke:#000;stroke-width:.81611168;stroke-miterlimit:4;stroke-dasharray:none;stroke-opacity:1" id="rect4441" width="45.474" height="12" x="412.215" y="45.492"/><rect style="fill:#55d400;fill-opacity:1;stroke:#000;stroke-width:.81611168;stroke-miterlimit:4;stroke-dasharray:none;stroke-opacity:1" id="rect4443" width="66.695" height="12" x="433.525" y="-126.16" transform="matrix(0.92814543,0.37221776,-0.37221776,0.92814543,0,0)"/><rect style="fill:#55d400;fill-opacity:1;stroke:#000;stroke-width:.81611168;stroke-miterlimit:4;stroke-dasharray:none;stroke-opacity:1" id="rect4445" width="26.274" height="12" x="378.716" y="65.332"/><rect style="fill:#55d400;fill-opacity:1;stroke:#000;stroke-width:.81611168;stroke-miterlimit:4;stroke-dasharray:none;stroke-opacity:1" id="rect4447" width="40.927" height="12" x="155.893" y="70.04"/><rect style="fill:#55d400;fill-opacity:1;stroke:#000;stroke-width:.81611168;stroke-miterlimit:4;stroke-dasharray:none;stroke-opacity:1" id="rect4449" width="33.348" height="12" x="230.455" y="-104.002" transform="matrix(0.8601682,0.51001046,-0.51001046,0.8601682,0,0)"/><rect style="fill:#55d400;fill-opacity:1;stroke:#000;stroke-width:.81611168;stroke-miterlimit:4;stroke-dasharray:none;stroke-opacity:1" id="rect4451" width="40.421" height="12" x="288.614" y="110.765" transform="matrix(0.97422689,-0.2255703,0.2255703,0.97422689,0,0)"/><rect style="fill:#55d400;fill-opacity:1;stroke:#000;stroke-width:.81611168;stroke-miterlimit:4;stroke-dasharray:none;stroke-opacity:1" id="rect4453" width="52.548" height="12" x="268.751" y="-24.97" transform="matrix(0.94127523,0.33764024,-0.33764024,0.94127523,0,0)"/><rect style="fill:#55d400;fill-opacity:1;stroke:#000;stroke-width:.81611168;stroke-miterlimit:4;stroke-dasharray:none;stroke-opacity:1" id="rect4455" width="38.906" height="12" x="341.974" y="-104.446" transform="matrix(0.91413158,0.40541764,-0.40541764,0.91413158,0,0)"/><rect style="fill:#55d400;fill-opacity:1;stroke:#000;stroke-width:.81611168;stroke-miterlimit:4;stroke-dasharray:none;stroke-opacity:1" id="rect4457" width="38.906" height="12" x="390.045" y="210.329" transform="matrix(0.9502807,-0.31139458,0.31139458,0.9502807,0,0)"/><rect style="fill:#55d400;fill-opacity:1;stroke:#000;stroke-width:.81611168;stroke-miterlimit:4;stroke-dasharray:none;stroke-opacity:1" id="rect4459" width="57.601" height="12" x="470.801" y="76.766"/><rect style="fill:#55d400;fill-opacity:1;stroke:#000;stroke-width:.81611168;stroke-miterlimit:4;stroke-dasharray:none;stroke-opacity:1" id="rect4461" width="60.632" height="12" x="140.389" y="475.383" transform="matrix(0.40681948,-0.91350857,0.91350857,0.40681948,0,0)"/><rect style="fill:#55d400;fill-opacity:1;stroke:#000;stroke-width:.81611168;stroke-miterlimit:4;stroke-dasharray:none;stroke-opacity:1" id="rect4463" width="43.958" height="12" x="117.404" y="203.847" transform="matrix(0.77184938,-0.63580542,0.63580542,0.77184938,0,0)"/><rect style="fill:#55d400;fill-opacity:1;stroke:#000;stroke-width:.81611168;stroke-miterlimit:4;stroke-dasharray:none;stroke-opacity:1" id="rect4465" width="55.58" height="12" x="170.116" y="30.696"/><rect style="fill:#55d400;fill-opacity:1;stroke:#000;stroke-width:.81611168;stroke-miterlimit:4;stroke-dasharray:none;stroke-opacity:1" id="rect4467" width="52.043" height="12" x="48.267" y="86.399" transform="matrix(0.85149317,-0.5243657,0.5243657,0.85149317,0,0)"/><rect style="fill:#55d400;fill-opacity:1;stroke:#000;stroke-width:.81611168;stroke-miterlimit:4;stroke-dasharray:none;stroke-opacity:1" id="rect4469" width="31.327" height="12" x="101.588" y="-105.211" transform="matrix(0.34111113,0.94002298,-0.94002298,0.34111113,0,0)"/><rect style="fill:#55d400;fill-opacity:1;stroke:#000;stroke-width:.81611168;stroke-miterlimit:4;stroke-dasharray:none;stroke-opacity:1" id="rect4471" width="29.811" height="12" x="333.848" y="78.111"/><rect style="fill:#55d400;fill-opacity:1;stroke:#000;stroke-width:.81611168;stroke-miterlimit:4;stroke-dasharray:none;stroke-opacity:1" id="rect4473" width="57.095" height="12" x="350.393" y="-174.845" transform="matrix(0.87621049,0.48192861,-0.48192861,0.87621049,0,0)"/><rect style="fill:#55d400;fill-opacity:1;stroke:#000;stroke-width:.81611168;stroke-miterlimit:4;stroke-dasharray:none;stroke-opacity:1" id="rect4475" width="47.495" height="12" x="44.86" y="46.837"/><rect id="rect4345" width="77.811" height="12" x="243.26" y="61.184" transform="matrix(0,1,1,0,0,0)" style="fill:#55d400;fill-opacity:1;stroke:#000;stroke-width:.81611168;stroke-miterlimit:4;stroke-dasharray:none;stroke-opacity:1"/><rect id="rect4347" width="40.927" height="12" x="-321.072" y="322.494" transform="matrix(0,-1,1,0,0,0)" style="fill:#55d400;fill-opacity:1;stroke:#000;stroke-width:.81611168;stroke-miterlimit:4;stroke-dasharray:none;stroke-opacity:1"/><rect id="rect4349" width="10.105" height="12" x="310.966" y="-515.401" transform="matrix(0,1,-1,0,0,0)" style="fill:#55d400;fill-opacity:1;stroke:#000;stroke-width:.81611168;stroke-miterlimit:4;stroke-dasharray:none;stroke-opacity:1"/><rect id="rect4351" width="64.674" height="12" x="-321.072" y="101.385" transform="matrix(0,-1,1,0,0,0)" style="fill:#55d400;fill-opacity:1;stroke:#000;stroke-width:.81611168;stroke-miterlimit:4;stroke-dasharray:none;stroke-opacity:1"/><rect id="rect4353" width="45.474" height="12" x="-321.072" y="262.192" transform="matrix(0,-1,1,0,0,0)" style="fill:#55d400;fill-opacity:1;stroke:#000;stroke-width:.81611168;stroke-miterlimit:4;stroke-dasharray:none;stroke-opacity:1"/><rect id="rect4355" width="66.695" height="12" x="254.376" y="-93.284" transform="matrix(0,1,-1,0,0,0)" style="fill:#55d400;fill-opacity:1;stroke:#000;stroke-width:.81611168;stroke-miterlimit:4;stroke-dasharray:none;stroke-opacity:1"/><rect id="rect4357" width="26.274" height="12" x="-321.072" y="463.2" transform="matrix(0,-1,1,0,0,0)" style="fill:#55d400;fill-opacity:1;stroke:#000;stroke-width:.81611168;stroke-miterlimit:4;stroke-dasharray:none;stroke-opacity:1"/><rect id="rect4359" width="40.927" height="12" x="280.145" y="-314.393" transform="matrix(0,1,-1,0,0,0)" style="fill:#55d400;fill-opacity:1;stroke:#000;stroke-width:.81611168;stroke-miterlimit:4;stroke-dasharray:none;stroke-opacity:1"/><rect id="rect4361" width="33.348" height="12" x="287.724" y="-414.897" transform="matrix(0,1,-1,0,0,0)" style="fill:#55d400;fill-opacity:1;stroke:#000;stroke-width:.81611168;stroke-miterlimit:4;stroke-dasharray:none;stroke-opacity:1"/><rect id="rect4363" width="40.421" height="12" x="-321.072" y="342.595" transform="matrix(0,-1,1,0,0,0)" style="fill:#55d400;fill-opacity:1;stroke:#000;stroke-width:.81611168;stroke-miterlimit:4;stroke-dasharray:none;stroke-opacity:1"/><rect id="rect4365" width="52.548" height="12" x="-321.072" y="201.889" transform="matrix(0,-1,1,0,0,0)" style="fill:#55d400;fill-opacity:1;stroke:#000;stroke-width:.81611168;stroke-miterlimit:4;stroke-dasharray:none;stroke-opacity:1"/><rect id="rect4367" width="38.906" height="12" x="-321.072" y="362.696" transform="matrix(0,-1,1,0,0,0)" style="fill:#55d400;fill-opacity:1;stroke:#000;stroke-width:.81611168;stroke-miterlimit:4;stroke-dasharray:none;stroke-opacity:1"/><rect id="rect4369" width="38.906" height="12" x="-321.072" y="382.797" transform="matrix(0,-1,1,0,0,0)" style="fill:#55d400;fill-opacity:1;stroke:#000;stroke-width:.81611168;stroke-miterlimit:4;stroke-dasharray:none;stroke-opacity:1"/><rect id="rect4371" width="57.601" height="12" x="-321.072" y="141.587" transform="matrix(0,-1,1,0,0,0)" style="fill:#55d400;fill-opacity:1;stroke:#000;stroke-width:.81611168;stroke-miterlimit:4;stroke-dasharray:none;stroke-opacity:1"/><rect id="rect4373" width="60.632" height="12" x="-321.072" y="121.486" transform="matrix(0,-1,1,0,0,0)" style="fill:#55d400;fill-opacity:1;stroke:#000;stroke-width:.81611168;stroke-miterlimit:4;stroke-dasharray:none;stroke-opacity:1"/><rect id="rect4375" width="43.958" height="12" x="-321.072" y="282.293" transform="matrix(0,-1,1,0,0,0)" style="fill:#55d400;fill-opacity:1;stroke:#000;stroke-width:.81611168;stroke-miterlimit:4;stroke-dasharray:none;stroke-opacity:1"/><rect id="rect4377" width="55.58" height="12" x="-321.072" y="181.789" transform="matrix(0,-1,1,0,0,0)" style="fill:#55d400;fill-opacity:1;stroke:#000;stroke-width:.81611168;stroke-miterlimit:4;stroke-dasharray:none;stroke-opacity:1"/><rect id="rect4379" width="52.043" height="12" x="-321.072" y="221.99" transform="matrix(0,-1,1,0,0,0)" style="fill:#55d400;fill-opacity:1;stroke:#000;stroke-width:.81611168;stroke-miterlimit:4;stroke-dasharray:none;stroke-opacity:1"/><rect id="rect4381" width="31.327" height="12" x="289.745" y="-434.998" transform="matrix(0,1,-1,0,0,0)" style="fill:#55d400;fill-opacity:1;stroke:#000;stroke-width:.81611168;stroke-miterlimit:4;stroke-dasharray:none;stroke-opacity:1"/><rect id="rect4383" width="29.811" height="12" x="-321.072" y="443.099" transform="matrix(0,-1,1,0,0,0)" style="fill:#55d400;fill-opacity:1;stroke:#000;stroke-width:.81611168;stroke-miterlimit:4;stroke-dasharray:none;stroke-opacity:1"/><rect id="rect4385" width="57.095" height="12" x="-321.072" y="161.688" transform="matrix(0,-1,1,0,0,0)" style="fill:#55d400;fill-opacity:1;stroke:#000;stroke-width:.81611168;stroke-miterlimit:4;stroke-dasharray:none;stroke-opacity:1"/><rect id="rect4387" width="47.495" height="12" x="-321.072" y="242.091" transform="matrix(0,-1,1,0,0,0)" style="fill:#55d400;fill-opacity:1;stroke:#000;stroke-width:.81611168;stroke-miterlimit:4;stroke-dasharray:none;stroke-opacity:1"/><rect id="rect5163" width="14.605" height="12" x="214.577" y="-82.133" transform="matrix(0.84433604,0.535814,-0.535814,0.84433604,0,0)" style="fill:#55d400;fill-opacity:1;stroke:#000;stroke-width:.81611174;stroke-miterlimit:4;stroke-dasharray:none;stroke-opacity:1"/><rect style="fill:#55d400;fill-opacity:1;stroke:#000;stroke-width:.81611174;stroke-miterlimit:4;stroke-dasharray:none;stroke-opacity:1" id="rect5165" width="14.605" height="12" x="-321.072" y="483.301" transform="matrix(0,-1,1,0,0,0)"/><g id="g5338"><rect id="rect5281" width="26.274" height="12" x="472.225" y="590.332" style="fill:#55d400;fill-opacity:1;stroke:#000;stroke-width:.81611168;stroke-miterlimit:4;stroke-dasharray:none;stroke-opacity:1"/><rect id="rect5283" width="40.927" height="12" x="617.536" y="-502.282" transform="matrix(0,1,-1,0,0,0)" style="fill:#55d400;fill-opacity:1;stroke:#000;stroke-width:.81611168;stroke-miterlimit:4;stroke-dasharray:none;stroke-opacity:1"/><rect id="rect5285" width="33.348" height="12" x="-458.211" y="-602.332" transform="scale(-1,-1)" style="fill:#55d400;fill-opacity:1;stroke:#000;stroke-width:.81611168;stroke-miterlimit:4;stroke-dasharray:none;stroke-opacity:1"/><rect id="rect5295" width="57.601" height="12" x="424.863" y="627.752" style="fill:#55d400;fill-opacity:1;stroke:#000;stroke-width:.81611168;stroke-miterlimit:4;stroke-dasharray:none;stroke-opacity:1"/><rect id="rect5297" width="60.632" height="12" x="424.863" y="646.462" style="fill:#55d400;fill-opacity:1;stroke:#000;stroke-width:.81611168;stroke-miterlimit:4;stroke-dasharray:none;stroke-opacity:1"/><rect id="rect5299" width="43.958" height="12" x="424.863" y="609.042" style="fill:#55d400;fill-opacity:1;stroke:#000;stroke-width:.81611168;stroke-miterlimit:4;stroke-dasharray:none;stroke-opacity:1"/></g><g id="g5315" transform="translate(0,0.57745361)"><rect id="rect5269" width="77.811" height="12" x="-151.491" y="645.885" transform="scale(-1,1)" style="fill:#55d400;fill-opacity:1;stroke:#000;stroke-width:.81611168;stroke-miterlimit:4;stroke-dasharray:none;stroke-opacity:1"/><rect id="rect5273" width="10.105" height="12" x="-118.474" y="-602.585" transform="scale(-1,-1)" style="fill:#55d400;fill-opacity:1;stroke:#000;stroke-width:.81611168;stroke-miterlimit:4;stroke-dasharray:none;stroke-opacity:1"/><rect id="rect5289" width="52.548" height="12" x="73.679" y="627.452" style="fill:#55d400;fill-opacity:1;stroke:#000;stroke-width:.81611168;stroke-miterlimit:4;stroke-dasharray:none;stroke-opacity:1"/><rect id="rect5291" width="38.906" height="12" x="-639.452" y="134.906" transform="matrix(0,-1,1,0,0,0)" style="fill:#55d400;fill-opacity:1;stroke:#000;stroke-width:.81611168;stroke-miterlimit:4;stroke-dasharray:none;stroke-opacity:1"/><rect id="rect5303" width="52.043" height="12" x="73.679" y="609.018" style="fill:#55d400;fill-opacity:1;stroke:#000;stroke-width:.81611168;stroke-miterlimit:4;stroke-dasharray:none;stroke-opacity:1"/><rect id="rect5307" width="29.811" height="12" x="73.679" y="590.585" style="fill:#55d400;fill-opacity:1;stroke:#000;stroke-width:.81611168;stroke-miterlimit:4;stroke-dasharray:none;stroke-opacity:1"/></g><g id="g5323" transform="translate(0,0.57745361)"><rect id="rect5279" width="66.695" height="12" x="-256.999" y="-657.885" transform="scale(-1,-1)" style="fill:#55d400;fill-opacity:1;stroke:#000;stroke-width:.81611168;stroke-miterlimit:4;stroke-dasharray:none;stroke-opacity:1"/><rect id="rect5287" width="40.421" height="12" x="-640.209" y="252.691" transform="matrix(0,-1,1,0,0,0)" style="fill:#55d400;fill-opacity:1;stroke:#000;stroke-width:.81611168;stroke-miterlimit:4;stroke-dasharray:none;stroke-opacity:1"/><rect id="rect5301" width="55.58" height="12" x="190.303" y="628.209" style="fill:#55d400;fill-opacity:1;stroke:#000;stroke-width:.81611168;stroke-miterlimit:4;stroke-dasharray:none;stroke-opacity:1"/><rect id="rect5305" width="31.327" height="12" x="-221.63" y="-604.858" transform="scale(-1,-1)" style="fill:#55d400;fill-opacity:1;stroke:#000;stroke-width:.81611168;stroke-miterlimit:4;stroke-dasharray:none;stroke-opacity:1"/><rect id="rect5311" width="47.495" height="12" x="190.303" y="610.533" style="fill:#55d400;fill-opacity:1;stroke:#000;stroke-width:.81611168;stroke-miterlimit:4;stroke-dasharray:none;stroke-opacity:1"/></g><g id="g5330" transform="translate(0,0.57745361)"><rect id="rect5271" width="40.927" height="12" x="-639.283" y="374.012" transform="matrix(0,-1,1,0,0,0)" style="fill:#55d400;fill-opacity:1;stroke:#000;stroke-width:.81611168;stroke-miterlimit:4;stroke-dasharray:none;stroke-opacity:1"/><rect id="rect5275" width="64.674" height="12" x="306.569" y="645.885" style="fill:#55d400;fill-opacity:1;stroke:#000;stroke-width:.81611168;stroke-miterlimit:4;stroke-dasharray:none;stroke-opacity:1"/><rect id="rect5277" width="45.474" height="12" x="306.569" y="608.68" style="fill:#55d400;fill-opacity:1;stroke:#000;stroke-width:.81611168;stroke-miterlimit:4;stroke-dasharray:none;stroke-opacity:1"/><rect id="rect5293" width="38.906" height="12" x="306.569" y="590.078" style="fill:#55d400;fill-opacity:1;stroke:#000;stroke-width:.81611168;stroke-miterlimit:4;stroke-dasharray:none;stroke-opacity:1"/><rect id="rect5309" width="57.095" height="12" x="306.569" y="627.283" style="fill:#55d400;fill-opacity:1;stroke:#000;stroke-width:.81611168;stroke-miterlimit:4;stroke-dasharray:none;stroke-opacity:1"/><rect style="fill:#55d400;fill-opacity:1;stroke:#000;stroke-width:.81611174;stroke-miterlimit:4;stroke-dasharray:none;stroke-opacity:1" id="rect5313" width="14.605" height="12" x="352.194" y="590.078"/></g><g id="g5346" transform="translate(-351.02801,227.78939)"><rect style="fill:#55d400;fill-opacity:1;stroke:#000;stroke-width:.81611168;stroke-miterlimit:4;stroke-dasharray:none;stroke-opacity:1" id="rect5348" width="26.274" height="12" x="472.225" y="590.332"/><rect style="fill:#55d400;fill-opacity:1;stroke:#000;stroke-width:.81611168;stroke-miterlimit:4;stroke-dasharray:none;stroke-opacity:1" id="rect5350" width="40.927" height="12" x="617.536" y="-502.282" transform="matrix(0,1,-1,0,0,0)"/><rect style="fill:#55d400;fill-opacity:1;stroke:#000;stroke-width:.81611168;stroke-miterlimit:4;stroke-dasharray:none;stroke-opacity:1" id="rect5352" width="33.348" height="12" x="-458.211" y="-602.332" transform="scale(-1,-1)"/><rect style="fill:#55d400;fill-opacity:1;stroke:#000;stroke-width:.81611168;stroke-miterlimit:4;stroke-dasharray:none;stroke-opacity:1" id="rect5354" width="57.601" height="12" x="424.863" y="627.752"/><rect style="fill:#55d400;fill-opacity:1;stroke:#000;stroke-width:.81611168;stroke-miterlimit:4;stroke-dasharray:none;stroke-opacity:1" id="rect5356" width="60.632" height="12" x="424.863" y="646.462"/><rect style="fill:#55d400;fill-opacity:1;stroke:#000;stroke-width:.81611168;stroke-miterlimit:4;stroke-dasharray:none;stroke-opacity:1" id="rect5358" width="43.958" height="12" x="424.863" y="609.042"/></g><g id="g5360" transform="translate(117.68278,228.36684)"><rect style="fill:#55d400;fill-opacity:1;stroke:#000;stroke-width:.81611168;stroke-miterlimit:4;stroke-dasharray:none;stroke-opacity:1" id="rect5362" width="77.811" height="12" x="-151.491" y="645.885" transform="scale(-1,1)"/><rect style="fill:#55d400;fill-opacity:1;stroke:#000;stroke-width:.81611168;stroke-miterlimit:4;stroke-dasharray:none;stroke-opacity:1" id="rect5364" width="10.105" height="12" x="-118.474" y="-602.585" transform="scale(-1,-1)"/><rect style="fill:#55d400;fill-opacity:1;stroke:#000;stroke-width:.81611168;stroke-miterlimit:4;stroke-dasharray:none;stroke-opacity:1" id="rect5366" width="52.548" height="12" x="73.679" y="627.452"/><rect style="fill:#55d400;fill-opacity:1;stroke:#000;stroke-width:.81611168;stroke-miterlimit:4;stroke-dasharray:none;stroke-opacity:1" id="rect5368" width="38.906" height="12" x="-639.452" y="134.906" transform="matrix(0,-1,1,0,0,0)"/><rect style="fill:#55d400;fill-opacity:1;stroke:#000;stroke-width:.81611168;stroke-miterlimit:4;stroke-dasharray:none;stroke-opacity:1" id="rect5370" width="52.043" height="12" x="73.679" y="609.018"/><rect style="fill:#55d400;fill-opacity:1;stroke:#000;stroke-width:.81611168;stroke-miterlimit:4;stroke-dasharray:none;stroke-opacity:1" id="rect5372" width="29.811" height="12" x="73.679" y="590.585"/></g><g id="g5374" transform="translate(235.87062,228.36684)"><rect style="fill:#55d400;fill-opacity:1;stroke:#000;stroke-width:.81611168;stroke-miterlimit:4;stroke-dasharray:none;stroke-opacity:1" id="rect5376" width="66.695" height="12" x="-256.999" y="-657.885" transform="scale(-1,-1)"/><rect style="fill:#55d400;fill-opacity:1;stroke:#000;stroke-width:.81611168;stroke-miterlimit:4;stroke-dasharray:none;stroke-opacity:1" id="rect5378" width="40.421" height="12" x="-640.209" y="252.691" transform="matrix(0,-1,1,0,0,0)"/><rect style="fill:#55d400;fill-opacity:1;stroke:#000;stroke-width:.81611168;stroke-miterlimit:4;stroke-dasharray:none;stroke-opacity:1" id="rect5380" width="55.58" height="12" x="190.303" y="628.209"/><rect style="fill:#55d400;fill-opacity:1;stroke:#000;stroke-width:.81611168;stroke-miterlimit:4;stroke-dasharray:none;stroke-opacity:1" id="rect5382" width="31.327" height="12" x="-221.63" y="-604.858" transform="scale(-1,-1)"/><rect style="fill:#55d400;fill-opacity:1;stroke:#000;stroke-width:.81611168;stroke-miterlimit:4;stroke-dasharray:none;stroke-opacity:1" id="rect5384" width="47.495" height="12" x="190.303" y="610.533"/></g><g id="g5386" transform="translate(0.50507856,228.36684)"><rect style="fill:#55d400;fill-opacity:1;stroke:#000;stroke-width:.81611168;stroke-miterlimit:4;stroke-dasharray:none;stroke-opacity:1" id="rect5388" width="40.927" height="12" x="-639.283" y="374.012" transform="matrix(0,-1,1,0,0,0)"/><rect style="fill:#55d400;fill-opacity:1;stroke:#000;stroke-width:.81611168;stroke-miterlimit:4;stroke-dasharray:none;stroke-opacity:1" id="rect5390" width="64.674" height="12" x="306.569" y="645.885"/><rect style="fill:#55d400;fill-opacity:1;stroke:#000;stroke-width:.81611168;stroke-miterlimit:4;stroke-dasharray:none;stroke-opacity:1" id="rect5392" width="45.474" height="12" x="306.569" y="608.68"/><rect style="fill:#55d400;fill-opacity:1;stroke:#000;stroke-width:.81611168;stroke-miterlimit:4;stroke-dasharray:none;stroke-opacity:1" id="rect5394" width="38.906" height="12" x="306.569" y="590.078"/><rect style="fill:#55d400;fill-opacity:1;stroke:#000;stroke-width:.81611168;stroke-miterlimit:4;stroke-dasharray:none;stroke-opacity:1" id="rect5396" width="57.095" height="12" x="306.569" y="627.283"/><rect id="rect5398" width="14.605" height="12" x="352.194" y="590.078" style="fill:#55d400;fill-opacity:1;stroke:#000;stroke-width:.81611174;stroke-miterlimit:4;stroke-dasharray:none;stroke-opacity:1"/></g><path style="fill:#ff2a2a;fill-rule:evenodd;stroke:#d40000;stroke-width:4;stroke-linecap:round;stroke-linejoin:round;stroke-miterlimit:4;stroke-dasharray:none;stroke-opacity:1;marker-end:url(#Arrow2Mend)" id="path5400" d="M 109.5136,680.26973 230.98744,798.01202"/><path id="path5680" d="M 234.48159,678.05384 463.81,799.30967" style="fill:#ff2a2a;fill-rule:evenodd;stroke:#d40000;stroke-width:4;stroke-linecap:round;stroke-linejoin:round;stroke-miterlimit:4;stroke-dasharray:none;stroke-opacity:1;marker-end:url(#marker5682)"/><path id="path5686" d="M 471.26363,678.60424 117.12406,799.34098" style="fill:#ff2a2a;fill-rule:evenodd;stroke:#d40000;stroke-width:3.99999976;stroke-linecap:round;stroke-linejoin:round;stroke-miterlimit:4;stroke-dasharray:none;stroke-opacity:1;marker-end:url(#marker5688)"/><path style="fill:#ff2a2a;fill-rule:evenodd;stroke:#d40000;stroke-width:3.99999976;stroke-linecap:round;stroke-linejoin:round;stroke-miterlimit:4;stroke-dasharray:none;stroke-opacity:1;marker-end:url(#marker5700)" id="path5698" d="m 345.84144,677.38751 0.57902,119.06638"/><path style="fill:none;fill-rule:evenodd;stroke:#d40000;stroke-width:4;stroke-linecap:round;stroke-linejoin:round;stroke-miterlimit:4;stroke-dasharray:none;stroke-opacity:1" id="path5710" d="m 60.609153,916.49669 c 73.404417,39.58899 146.808837,37.16685 220.213257,0"/><path id="path5712" d="m 294.96454,916.49669 c 73.40442,39.58899 146.80884,37.16685 220.21326,0" style="fill:none;fill-rule:evenodd;stroke:#d40000;stroke-width:4;stroke-linecap:round;stroke-linejoin:round;stroke-miterlimit:4;stroke-dasharray:none;stroke-opacity:1"/><text style="font-style:normal;font-weight:400;font-size:40px;line-height:125%;font-family:sans-serif;letter-spacing:0;word-spacing:0;fill:#000;fill-opacity:1;stroke:none;stroke-width:1px;stroke-linecap:butt;stroke-linejoin:miter;stroke-opacity:1" id="text5714" x="98.323" y="979.631" xml:space="preserve"><tspan id="tspan5716" x="98.323" y="979.631" style="font-style:normal;font-variant:normal;font-weight:400;font-stretch:normal;font-size:30px;font-family:Monaco;-inkscape-font-specification:Monaco">block #1</tspan></text><text id="text5718" x="332.679" y="979.631" xml:space="preserve" style="font-style:normal;font-weight:400;font-size:40px;line-height:125%;font-family:sans-serif;letter-spacing:0;word-spacing:0;fill:#000;fill-opacity:1;stroke:none;stroke-width:1px;stroke-linecap:butt;stroke-linejoin:miter;stroke-opacity:1"><tspan style="font-style:normal;font-variant:normal;font-weight:400;font-stretch:normal;font-size:30px;font-family:Monaco;-inkscape-font-specification:Monaco" id="tspan5720" x="332.679" y="979.631">block #2</tspan></text><rect style="fill:none;fill-opacity:1;stroke:#000;stroke-width:.81599998;stroke-miterlimit:4;stroke-dasharray:3.26399994,6.52799988;stroke-dashoffset:0;stroke-opacity:1" id="rect5722" width="77.811" height="12" x="473.26" y="61.184" transform="matrix(0,1,1,0,0,0)"/><rect style="fill:none;fill-opacity:1;stroke:#000;stroke-width:.81599998;stroke-miterlimit:4;stroke-dasharray:3.26399994,6.52799988;stroke-dashoffset:0;stroke-opacity:1" id="rect5724" width="40.927" height="12" x="-551.072" y="322.494" transform="matrix(0,-1,1,0,0,0)"/><rect style="fill:none;fill-opacity:1;stroke:#000;stroke-width:.81599998;stroke-miterlimit:4;stroke-dasharray:3.26399994,6.52799988;stroke-dashoffset:0;stroke-opacity:1" id="rect5726" width="10.105" height="12" x="540.966" y="-515.401" transform="matrix(0,1,-1,0,0,0)"/><rect style="fill:none;fill-opacity:1;stroke:#000;stroke-width:.81599998;stroke-miterlimit:4;stroke-dasharray:3.26399994,6.52799988;stroke-dashoffset:0;stroke-opacity:1" id="rect5728" width="64.674" height="12" x="-551.072" y="101.385" transform="matrix(0,-1,1,0,0,0)"/><rect style="fill:none;fill-opacity:1;stroke:#000;stroke-width:.81599998;stroke-miterlimit:4;stroke-dasharray:3.26399994,6.52799988;stroke-dashoffset:0;stroke-opacity:1" id="rect5730" width="45.474" height="12" x="-551.072" y="262.192" transform="matrix(0,-1,1,0,0,0)"/><rect style="fill:none;fill-opacity:1;stroke:#000;stroke-width:.81599998;stroke-miterlimit:4;stroke-dasharray:3.26399994,6.52799988;stroke-dashoffset:0;stroke-opacity:1" id="rect5732" width="66.695" height="12" x="484.376" y="-93.284" transform="matrix(0,1,-1,0,0,0)"/><rect style="fill:none;fill-opacity:1;stroke:#000;stroke-width:.81599998;stroke-miterlimit:4;stroke-dasharray:3.26399994,6.52799988;stroke-dashoffset:0;stroke-opacity:1" id="rect5734" width="26.274" height="12" x="-551.072" y="463.2" transform="matrix(0,-1,1,0,0,0)"/><rect style="fill:none;fill-opacity:1;stroke:#000;stroke-width:.81599998;stroke-miterlimit:4;stroke-dasharray:3.26399994,6.52799988;stroke-dashoffset:0;stroke-opacity:1" id="rect5736" width="40.927" height="12" x="510.145" y="-314.393" transform="matrix(0,1,-1,0,0,0)"/><rect style="fill:none;fill-opacity:1;stroke:#000;stroke-width:.81599998;stroke-miterlimit:4;stroke-dasharray:3.26399994,6.52799988;stroke-dashoffset:0;stroke-opacity:1" id="rect5738" width="33.348" height="12" x="517.724" y="-414.897" transform="matrix(0,1,-1,0,0,0)"/><rect style="fill:none;fill-opacity:1;stroke:#000;stroke-width:.81599998;stroke-miterlimit:4;stroke-dasharray:3.26399994,6.52799988;stroke-dashoffset:0;stroke-opacity:1" id="rect5740" width="40.421" height="12" x="-551.072" y="342.595" transform="matrix(0,-1,1,0,0,0)"/><rect style="fill:none;fill-opacity:1;stroke:#000;stroke-width:.81599998;stroke-miterlimit:4;stroke-dasharray:3.26399994,6.52799988;stroke-dashoffset:0;stroke-opacity:1" id="rect5742" width="52.548" height="12" x="-551.072" y="201.889" transform="matrix(0,-1,1,0,0,0)"/><rect style="fill:none;fill-opacity:1;stroke:#000;stroke-width:.81599998;stroke-miterlimit:4;stroke-dasharray:3.26399994,6.52799988;stroke-dashoffset:0;stroke-opacity:1" id="rect5744" width="38.906" height="12" x="-551.072" y="362.696" transform="matrix(0,-1,1,0,0,0)"/><rect style="fill:none;fill-opacity:1;stroke:#000;stroke-width:.81599998;stroke-miterlimit:4;stroke-dasharray:3.26399994,6.52799988;stroke-dashoffset:0;stroke-opacity:1" id="rect5746" width="38.906" height="12" x="-551.072" y="382.797" transform="matrix(0,-1,1,0,0,0)"/><rect style="fill:none;fill-opacity:1;stroke:#000;stroke-width:.81599998;stroke-miterlimit:4;stroke-dasharray:3.26399994,6.52799988;stroke-dashoffset:0;stroke-opacity:1" id="rect5748" width="57.601" height="12" x="-551.072" y="141.587" transform="matrix(0,-1,1,0,0,0)"/><rect style="fill:none;fill-opacity:1;stroke:#000;stroke-width:.81599998;stroke-miterlimit:4;stroke-dasharray:3.26399994,6.52799988;stroke-dashoffset:0;stroke-opacity:1" id="rect5750" width="60.632" height="12" x="-551.072" y="121.486" transform="matrix(0,-1,1,0,0,0)"/><rect style="fill:none;fill-opacity:1;stroke:#000;stroke-width:.81599998;stroke-miterlimit:4;stroke-dasharray:3.26399994,6.52799988;stroke-dashoffset:0;stroke-opacity:1" id="rect5752" width="43.958" height="12" x="-551.072" y="282.293" transform="matrix(0,-1,1,0,0,0)"/><rect style="fill:none;fill-opacity:1;stroke:#000;stroke-width:.81599998;stroke-miterlimit:4;stroke-dasharray:3.26399994,6.52799988;stroke-dashoffset:0;stroke-opacity:1" id="rect5754" width="55.58" height="12" x="-551.072" y="181.789" transform="matrix(0,-1,1,0,0,0)"/><rect style="fill:none;fill-opacity:1;stroke:#000;stroke-width:.81599998;stroke-miterlimit:4;stroke-dasharray:3.26399994,6.52799988;stroke-dashoffset:0;stroke-opacity:1" id="rect5756" width="52.043" height="12" x="-551.072" y="221.99" transform="matrix(0,-1,1,0,0,0)"/><rect style="fill:none;fill-opacity:1;stroke:#000;stroke-width:.81599998;stroke-miterlimit:4;stroke-dasharray:3.26399994,6.52799988;stroke-dashoffset:0;stroke-opacity:1" id="rect5758" width="31.327" height="12" x="519.745" y="-434.998" transform="matrix(0,1,-1,0,0,0)"/><rect style="fill:none;fill-opacity:1;stroke:#000;stroke-width:.81599998;stroke-miterlimit:4;stroke-dasharray:3.26399994,6.52799988;stroke-dashoffset:0;stroke-opacity:1" id="rect5760" width="29.811" height="12" x="-551.072" y="443.099" transform="matrix(0,-1,1,0,0,0)"/><rect style="fill:none;fill-opacity:1;stroke:#000;stroke-width:.81599998;stroke-miterlimit:4;stroke-dasharray:3.26399994,6.52799988;stroke-dashoffset:0;stroke-opacity:1" id="rect5762" width="57.095" height="12" x="-551.072" y="161.688" transform="matrix(0,-1,1,0,0,0)"/><rect style="fill:none;fill-opacity:1;stroke:#000;stroke-width:.81599998;stroke-miterlimit:4;stroke-dasharray:3.26399994,6.52799988;stroke-dashoffset:0;stroke-opacity:1" id="rect5764" width="47.495" height="12" x="-551.072" y="242.091" transform="matrix(0,-1,1,0,0,0)"/><rect id="rect5766" width="14.605" height="12" x="-551.072" y="483.301" transform="matrix(0,-1,1,0,0,0)" style="fill:none;fill-opacity:1;stroke:#000;stroke-width:.81599998;stroke-miterlimit:4;stroke-dasharray:3.26399994,6.52799988;stroke-dashoffset:0;stroke-opacity:1"/><g id="g5846"><path id="path4337" d="m 161.62441,340.95846 0,96.97465 -96.974651,0 0,-96.97465" style="fill:none;fill-opacity:.99215686;stroke:#000;stroke-width:8;stroke-miterlimit:4;stroke-dasharray:none;stroke-opacity:1"/><path style="fill:none;fill-opacity:.99215686;stroke:#000;stroke-width:8;stroke-miterlimit:4;stroke-dasharray:none;stroke-opacity:1" id="path5840" d="m 511.64226,340.95846 0,96.97465 -96.97465,0 0,-96.97465"/><path id="path5842" d="m 394.96963,340.95846 0,96.97465 -96.97465,0 0,-96.97465" style="fill:none;fill-opacity:.99215686;stroke:#000;stroke-width:8;stroke-miterlimit:4;stroke-dasharray:none;stroke-opacity:1"/><path style="fill:none;fill-opacity:.99215686;stroke:#000;stroke-width:8;stroke-miterlimit:4;stroke-dasharray:none;stroke-opacity:1" id="path5844" d="m 278.29702,340.95846 0,96.97465 -96.97465,0 0,-96.97465"/></g></g></svg>