<svg xmlns="http://www.w3.org/2000/svg" xmlns:xlink="http://www.w3.org/1999/xlink" width="252.421" height="250.392" viewBox="0 0 236.645 234.743"><defs><pattern id="a" width="9" height="1" patternTransform="scale(10)" patternUnits="userSpaceOnUse"><path d="M0-.5h1v2H0z"/></pattern><pattern id="b" width="9" height="1" patternTransform="scale(10)" patternUnits="userSpaceOnUse"><path fill="#b0b0b0" d="M0-.5h1v2H0z"/></pattern><pattern id="c" width="9" height="1" patternTransform="scale(10)" patternUnits="userSpaceOnUse"><path fill="#b0b0b0" d="M0-.5h1v2H0z"/></pattern><pattern id="f" patternTransform="rotate(45) scale(.83333 11.50005)" xlink:href="#d"/><pattern id="d" width="9" height="1" patternTransform="scale(10)" patternUnits="userSpaceOnUse"><path fill="silver" d="M0-.5h1v2H0z"/></pattern><pattern id="g" patternTransform="rotate(45) scale(.83333 10.50004)" xlink:href="#e"/><pattern id="e" width="9" height="1" patternTransform="scale(10)" patternUnits="userSpaceOnUse"><path fill="silver" d="M0-.5h1v2H0z"/></pattern></defs><path fill="url(#f)" d="M56.569 142.012h84.4v130.6h-84.4z" transform="translate(-35.384 -38.21)"/><path fill="url(#g)" d="M141.035 57.462h130.494v84.5H141.035z" transform="translate(-35.384 -38.21)"/><path fill="none" stroke="#000" stroke-linecap="round" d="M21.185 19.222h214.96v214.96H21.185z"/><path fill="none" stroke="#000" stroke-dasharray="6 6" d="M105.65 18.722v216.02M20.684 103.751h215.137"/><path fill="none" stroke="#000" stroke-width=".5" d="M21.116 18.901c10.75-10.75 73.482-11.017 84.5 0M20.992 103.525c-10.75-10.75-11.018-73.482 0-84.5M105.616 18.901c10.75-10.75 119.232-10.892 130.25.125M20.765 233.929c-10.75-10.75-10.893-119.232.125-130.25"/><text style="line-height:125%;-inkscape-font-specification:monospace" x="33.48" y="7.651" font-family="monospace" font-size="40" font-weight="400" letter-spacing="0" word-spacing="0"><tspan x="33.48" y="7.651" font-size="10" style="-inkscape-font-specification:monospace">developers</tspan></text><text x="134.256" y="7.651" font-family="monospace" font-size="40" font-weight="400" letter-spacing="0" word-spacing="0" style="line-height:125%;-inkscape-font-specification:monospace"><tspan style="-inkscape-font-specification:monospace" x="134.256" y="7.651" font-size="10">repositories</tspan></text><text x="-91.161" y="7.651" font-family="monospace" font-size="40" font-weight="400" letter-spacing="0" transform="rotate(-90)" word-spacing="0" style="line-height:125%;-inkscape-font-specification:monospace"><tspan style="-inkscape-font-specification:monospace" x="-91.161" y="7.651" font-size="10">developers</tspan></text><text style="line-height:125%;-inkscape-font-specification:monospace" x="-205.288" y="7.651" font-family="monospace" font-size="40" font-weight="400" letter-spacing="0" transform="rotate(-90)" word-spacing="0"><tspan x="-205.288" y="7.651" font-size="10" style="-inkscape-font-specification:monospace">repositories</tspan></text><circle cx="154.241" cy="69.776" r="2.375" fill="#d40000"/><circle cx="70.473" cy="152.941" r="2.375" fill="#d40000"/><text style="line-height:125%" x="156.116" y="66.651" fill="#d40000" font-family="sans-serif" font-size="40" font-weight="400" letter-spacing="0" word-spacing="0"><tspan x="156.116" y="66.651" font-size="15">C<tspan baseline-shift="sub" font-size="65%">ij</tspan></tspan></text><text x="71.951" y="149.316" fill="#d40000" font-family="sans-serif" font-size="40" font-weight="400" letter-spacing="0" word-spacing="0" style="line-height:125%"><tspan x="71.951" y="149.316" font-size="15">C<tspan baseline-shift="sub" font-size="65%">ji</tspan></tspan></text><text style="line-height:125%" x="53.236" y="74.406" font-family="sans-serif" font-size="40" font-weight="400" letter-spacing="0" word-spacing="0"><tspan x="53.236" y="74.406" font-size="35" style="-inkscape-font-specification:sans-serif">0</tspan></text><text x="159.07" y="181.887" font-family="sans-serif" font-size="40" font-weight="400" letter-spacing="0" word-spacing="0" style="line-height:125%"><tspan style="-inkscape-font-specification:sans-serif" x="159.07" y="181.887" font-size="35">0</tspan></text></svg>