<svg xmlns="http://www.w3.org/2000/svg" xmlns:xlink="http://www.w3.org/1999/xlink" width="1193pt" height="1000" viewBox="0 0 1193 750"><g id="graph0" class="graph" transform="scale(1.4465 1.4465) rotate(0) translate(4 514.5045)"><title>Armin Ronacher</title><polygon fill="#fff" stroke="transparent" points="-4 4 -4 -514.505 820.807 -514.505 820.807 4 -4 4"/><g id="node1" class="node"><title>6019034</title><ellipse cx="402.707" cy="-255.252" fill="red" stroke="#000" rx="93.726" ry="25.412"/><text x="402.707" y="-258.052" fill="#fff" font-family="Times,serif" font-size="14" text-anchor="middle">Armin Ronacher</text><text x="402.707" y="-244.052" fill="#fff" font-family="Times,serif" font-size="14" text-anchor="middle">x<tspan dy="3" font-size="10">AR</tspan></text></g><g id="node2" class="node"><title>0</title><ellipse cx="729.522" cy="-421.122" fill="none" stroke="#000" rx="84.622" ry="25.412"/><text x="729.522" y="-423.922" fill="#000" font-family="Times,serif" font-size="14" text-anchor="middle">rust-lang/rust</text><text x="729.522" y="-409.922" fill="#000" font-family="Times,serif" font-size="14" text-anchor="middle">x<tspan dy="3" font-size="10">0</tspan></text></g><g id="edge1" class="edge"><title>0-&gt;6019034</title><path fill="none" stroke="#000" d="M686.1231,-399.0957C626.7935,-368.984 520.4237,-314.9977 456.2251,-282.4147"/><polygon fill="#000" stroke="#000" points="457.571 -279.173 447.07 -277.768 454.403 -285.415 457.571 -279.173"/><text x="545.436" y="-347.23" fill="#000" font-family="Times,serif" font-size="14" text-anchor="middle">w<tspan dy="3" font-size="10">0→AR</tspan></text></g><g id="node3" class="node"><title>1</title><ellipse cx="531.986" cy="-439.925" fill="none" stroke="#000" rx="93.453" ry="25.412"/><text x="531.986" y="-442.725" fill="#000" font-family="Times,serif" font-size="14" text-anchor="middle">Distrotech/mercurial</text><text x="531.986" y="-428.725" fill="#000" font-family="Times,serif" font-size="14" text-anchor="middle">x<tspan dy="3" font-size="10">1</tspan></text></g><g id="edge2" class="edge"><title>1-&gt;6019034</title><path fill="none" stroke="#000" d="M514.2815,-414.634C491.4261,-381.9857 451.5855,-325.0745 426.2117,-288.8289"/><polygon fill="#000" stroke="#000" points="429.007 -286.718 420.404 -280.533 423.272 -290.733 429.007 -286.718"/><text x="440.007" y="-351.205" fill="#000" font-family="Times,serif" font-size="14" text-anchor="middle">w<tspan dy="3" font-size="10">1→AR</tspan></text></g><g id="node4" class="node"><title>2</title><ellipse cx="320.504" cy="-477.563" fill="none" stroke="#000" rx="84.622" ry="25.412"/><text x="320.504" y="-480.363" fill="#000" font-family="Times,serif" font-size="14" text-anchor="middle">openSUSE/salt</text><text x="320.504" y="-466.363" fill="#000" font-family="Times,serif" font-size="14" text-anchor="middle">x<tspan dy="3" font-size="10">2</tspan></text></g><g id="edge3" class="edge"><title>2-&gt;6019034</title><path fill="none" stroke="#000" d="M329.934,-452.0613C344.6364,-412.2995 373.0578,-335.4353 389.6982,-290.4324"/><polygon fill="#000" stroke="#000" points="393.075 -291.391 393.26 -280.798 386.51 -288.964 393.075 -291.391"/><text x="331.389" y="-370.051" fill="#000" font-family="Times,serif" font-size="14" text-anchor="middle">w<tspan dy="3" font-size="10">2→AR</tspan></text></g><g id="node5" class="node"><title>3</title><ellipse cx="87.179" cy="-444.195" fill="none" stroke="#000" rx="84.622" ry="25.412"/><text x="87.179" y="-446.995" fill="#000" font-family="Times,serif" font-size="14" text-anchor="middle">celery/celery</text><text x="87.179" y="-432.995" fill="#000" font-family="Times,serif" font-size="14" text-anchor="middle">x<tspan dy="3" font-size="10">3</tspan></text></g><g id="edge4" class="edge"><title>3-&gt;6019034</title><path fill="none" stroke="#000" d="M125.2392,-421.4042C182.7297,-386.9779 291.6683,-321.7437 354.5845,-284.0684"/><polygon fill="#000" stroke="#000" points="356.74 -286.857 363.522 -278.717 353.144 -280.851 356.74 -286.857"/><text x="194.166" y="-353.579" fill="#000" font-family="Times,serif" font-size="14" text-anchor="middle">w<tspan dy="3" font-size="10">3→AR</tspan></text></g><g id="node6" class="node"><title>4</title><ellipse cx="109.032" cy="-255.252" fill="none" stroke="#000" rx="95.351" ry="25.412"/><text x="109.032" y="-258.052" fill="#000" font-family="Times,serif" font-size="14" text-anchor="middle">kennethreitz/requests</text><text x="109.032" y="-244.052" fill="#000" font-family="Times,serif" font-size="14" text-anchor="middle">x<tspan dy="3" font-size="10">4</tspan></text></g><g id="edge5" class="edge"><title>4-&gt;6019034</title><path fill="none" stroke="#000" d="M204.6074,-255.2522C295.9445,-255.2522 297.2831,-255.2522 298.6222,-255.2522"/><polygon fill="#000" stroke="#000" points="298.884 -258.752 308.884 -255.252 298.884 -251.752 298.884 -258.752"/><text x="250" y="-263.736" fill="#000" font-family="Times,serif" font-size="14" text-anchor="middle">w<tspan dy="3" font-size="10">4→AR</tspan></text></g><g id="node7" class="node"><title>5</title><ellipse cx="87.179" cy="-66.309" fill="none" stroke="#000" rx="87.359" ry="25.412"/><text x="87.179" y="-69.109" fill="#000" font-family="Times,serif" font-size="14" text-anchor="middle">cheshire/virtualenv</text><text x="87.179" y="-55.109" fill="#000" font-family="Times,serif" font-size="14" text-anchor="middle">x<tspan dy="3" font-size="10">5</tspan></text></g><g id="edge6" class="edge"><title>5-&gt;6019034</title><path fill="none" stroke="#000" d="M125.5536,-89.2885C183.1592,-123.7837 291.9077,-188.9041 354.6927,-226.5008"/><polygon fill="#000" stroke="#000" points="353.233 -229.707 363.611 -231.841 356.83 -223.701 353.233 -229.707"/><text x="214.461" y="-164.07" fill="#000" font-family="Times,serif" font-size="14" text-anchor="middle">w<tspan dy="3" font-size="10">5→AR</tspan></text></g><g id="node8" class="node"><title>6</title><ellipse cx="320.504" cy="-32.941" fill="none" stroke="#000" rx="84.622" ry="25.412"/><text x="320.504" y="-35.741" fill="#000" font-family="Times,serif" font-size="14" text-anchor="middle">pallets/jinja</text><text x="320.504" y="-21.741" fill="#000" font-family="Times,serif" font-size="14" text-anchor="middle">x<tspan dy="3" font-size="10">6</tspan></text></g><g id="edge7" class="edge"><title>6-&gt;6019034</title><path fill="none" stroke="#000" d="M329.934,-58.4432C344.6364,-98.205 373.0578,-175.0691 389.6982,-220.0721"/><polygon fill="#000" stroke="#000" points="386.51 -221.541 393.26 -229.706 393.075 -219.113 386.51 -221.541"/><text x="335.389" y="-147.421" fill="#000" font-family="Times,serif" font-size="14" text-anchor="middle">w<tspan dy="3" font-size="10">6→AR</tspan></text></g><g id="node9" class="node"><title>7</title><ellipse cx="531.986" cy="-70.58" fill="none" stroke="#000" rx="84.622" ry="25.412"/><text x="531.986" y="-73.38" fill="#000" font-family="Times,serif" font-size="14" text-anchor="middle">pallets/flask</text><text x="531.986" y="-59.38" fill="#000" font-family="Times,serif" font-size="14" text-anchor="middle">x<tspan dy="3" font-size="10">7</tspan></text></g><g id="edge8" class="edge"><title>7-&gt;6019034</title><path fill="none" stroke="#000" d="M514.2815,-95.8705C491.4261,-128.5188 451.5855,-185.4299 426.2117,-221.6756"/><polygon fill="#000" stroke="#000" points="423.272 -219.772 420.404 -229.971 429.007 -223.786 423.272 -219.772"/><text x="447.283" y="-146.266" fill="#000" font-family="Times,serif" font-size="14" text-anchor="middle">w<tspan dy="3" font-size="10">7→AR</tspan></text></g><g id="node10" class="node"><title>8</title><ellipse cx="729.522" cy="-89.382" fill="none" stroke="#000" rx="87.072" ry="25.412"/><text x="729.522" y="-92.183" fill="#000" font-family="Times,serif" font-size="14" text-anchor="middle">&gt;200 other</text><text x="729.522" y="-78.183" fill="#000" font-family="Times,serif" font-size="14" text-anchor="middle">x<tspan dy="3" font-size="10">...</tspan></text></g><g id="edge9" class="edge"><title>8-&gt;6019034</title><path fill="none" stroke="#000" d="M685.785,-111.5804C626.3526,-141.7443 520.1678,-195.6367 456.1036,-228.1514"/><polygon fill="#000" stroke="#000" points="454.301 -225.141 446.968 -232.788 457.469 -231.383 454.301 -225.141"/><text x="600.189" y="-175.716" fill="#000" font-family="Times,serif" font-size="14" text-anchor="middle">w<tspan dy="3" font-size="10">...→AR</tspan></text></g></g></svg>