<svg xmlns="http://www.w3.org/2000/svg" xmlns:svg="http://www.w3.org/2000/svg" xmlns:xlink="http://www.w3.org/1999/xlink" id="svg7852" width="1440" height="1152" version="1.1" viewBox="0 0 1080 864"><metadata id="metadata9039"/><defs id="defs7854"><style id="style7856" type="text/css">*{stroke-linecap:butt;stroke-linejoin:round}</style></defs><g id="figure_1"><g id="patch_1"><path style="fill:none" id="path7860" d="M 0 864 L 1080 864 L 1080 0 L 0 0 z"/></g><g id="axes_1"><g id="patch_2"><path style="fill:none" id="path7864" d="M 135 756 L 972 756 L 972 103.68 L 135 103.68 z"/></g><g id="PolyCollection_1"><path style="fill:violet" id="path7867" d="M 135 706.075003 L 135 756 L 190.8 756 L 246.6 756 L 302.4 756 L 358.2 756 L 414 756 L 469.8 756 L 525.6 756 L 581.4 756 L 637.2 756 L 693 756 L 748.8 756 L 804.6 756 L 860.4 756 L 916.2 756 L 972 756 L 972 644.331569 L 972 644.331569 L 916.2 651.021242 L 860.4 655.901956 L 804.6 653.711842 L 748.8 656.016567 L 693 654.870787 L 637.2 657.217653 L 581.4 657.182566 L 525.6 657.765244 L 469.8 681.035783 L 414 685.067664 L 358.2 684.35517 L 302.4 702.753266 L 246.6 708.203687 L 190.8 709.631879 L 135 706.075003 z" clip-path="url(#p4f8df83cda)"/></g><g id="PolyCollection_2"><path style="fill:#8b008b" id="path7870" d="M 135 686.595166 L 135 706.075003 L 190.8 709.631879 L 246.6 708.203687 L 302.4 702.753266 L 358.2 684.35517 L 414 685.067664 L 469.8 681.035783 L 525.6 657.765244 L 581.4 657.182566 L 637.2 657.217653 L 693 654.870787 L 748.8 656.016567 L 804.6 653.711842 L 860.4 655.901956 L 916.2 651.021242 L 972 644.331569 L 972 535.390769 L 972 535.390769 L 916.2 548.769998 L 860.4 557.410235 L 804.6 561.256774 L 748.8 570.365568 L 693 573.765023 L 637.2 588.521097 L 581.4 605.176805 L 525.6 612.976424 L 469.8 641.697236 L 414 648.25293 L 358.2 649.065547 L 302.4 667.366209 L 246.6 675.111734 L 190.8 673.654642 L 135 686.595166 z" clip-path="url(#p4f8df83cda)"/></g><g id="PolyCollection_3"><path style="fill:#d8bfd8" id="path7873" d="M 135 450.521727 L 135 686.595166 L 190.8 673.654642 L 246.6 675.111734 L 302.4 667.366209 L 358.2 649.065547 L 414 648.25293 L 469.8 641.697236 L 525.6 612.976424 L 581.4 605.176805 L 637.2 588.521097 L 693 573.765023 L 748.8 570.365568 L 804.6 561.256774 L 860.4 557.410235 L 916.2 548.769998 L 972 535.390769 L 972 483.266092 L 972 483.266092 L 916.2 493.626236 L 860.4 497.416101 L 804.6 494.805785 L 748.8 495.703564 L 693 488.566069 L 637.2 489.355694 L 581.4 485.159096 L 525.6 462.917953 L 469.8 461.827184 L 414 460.055824 L 358.2 453.186954 L 302.4 468.126629 L 246.6 450.467702 L 190.8 441.764418 L 135 450.521727 z" clip-path="url(#p4f8df83cda)"/></g><g id="PolyCollection_4"><path style="fill:#639" id="path7876" d="M 135 294.094659 L 135 450.521727 L 190.8 441.764418 L 246.6 450.467702 L 302.4 468.126629 L 358.2 453.186954 L 414 460.055824 L 469.8 461.827184 L 525.6 462.917953 L 581.4 485.159096 L 637.2 489.355694 L 693 488.566069 L 748.8 495.703564 L 804.6 494.805785 L 860.4 497.416101 L 916.2 493.626236 L 972 483.266092 L 972 424.880291 L 972 424.880291 L 916.2 435.664601 L 860.4 434.180782 L 804.6 433.289355 L 748.8 434.225904 L 693 422.976628 L 637.2 414.733719 L 581.4 402.747707 L 525.6 355.832576 L 469.8 344.490435 L 414 332.478322 L 358.2 328.023637 L 302.4 322.022385 L 246.6 319.997401 L 190.8 294.168945 L 135 294.094659 z" clip-path="url(#p4f8df83cda)"/></g><g id="PolyCollection_5"><path style="fill:#7b68ee" id="path7879" d="M 135 278.966032 L 135 294.094659 L 190.8 294.168945 L 246.6 319.997401 L 302.4 322.022385 L 358.2 328.023637 L 414 332.478322 L 469.8 344.490435 L 525.6 355.832576 L 581.4 402.747707 L 637.2 414.733719 L 693 422.976628 L 748.8 434.225904 L 804.6 433.289355 L 860.4 434.180782 L 916.2 435.664601 L 972 424.880291 L 972 368.981858 L 972 368.981858 L 916.2 379.656523 L 860.4 379.156242 L 804.6 376.436791 L 748.8 379.927783 L 693 370.921218 L 637.2 366.649101 L 581.4 359.471082 L 525.6 315.106197 L 469.8 305.404346 L 414 302.630926 L 358.2 298.380181 L 302.4 296.030281 L 246.6 294.107426 L 190.8 265.589244 L 135 278.966032 z" clip-path="url(#p4f8df83cda)"/></g><g id="PolyCollection_6"><path style="fill:#87cefa" id="path7882" d="M 135 273.993995 L 135 278.966032 L 190.8 265.589244 L 246.6 294.107426 L 302.4 296.030281 L 358.2 298.380181 L 414 302.630926 L 469.8 305.404346 L 525.6 315.106197 L 581.4 359.471082 L 637.2 366.649101 L 693 370.921218 L 748.8 379.927783 L 804.6 376.436791 L 860.4 379.156242 L 916.2 379.656523 L 972 368.981858 L 972 327.05338 L 972 327.05338 L 916.2 331.075201 L 860.4 321.491787 L 804.6 303.864582 L 748.8 301.306138 L 693 292.163789 L 637.2 287.460462 L 581.4 290.712078 L 525.6 276.846342 L 469.8 281.469391 L 414 279.038602 L 358.2 283.743243 L 302.4 284.58683 L 246.6 286.02057 L 190.8 253.681574 L 135 273.993995 z" clip-path="url(#p4f8df83cda)"/></g><g id="PolyCollection_7"><path style="fill:navy" id="path7885" d="M 135 261.442803 L 135 273.993995 L 190.8 253.681574 L 246.6 286.02057 L 302.4 284.58683 L 358.2 283.743243 L 414 279.038602 L 469.8 281.469391 L 525.6 276.846342 L 581.4 290.712078 L 637.2 287.460462 L 693 292.163789 L 748.8 301.306138 L 804.6 303.864582 L 860.4 321.491787 L 916.2 331.075201 L 972 327.05338 L 972 281.483459 L 972 281.483459 L 916.2 288.308733 L 860.4 283.973696 L 804.6 271.166119 L 748.8 272.315934 L 693 267.590771 L 637.2 266.171258 L 581.4 270.482983 L 525.6 259.86947 L 469.8 260.850263 L 414 262.752963 L 358.2 261.026745 L 302.4 270.205574 L 246.6 270.901506 L 190.8 244.334865 L 135 261.442803 z" clip-path="url(#p4f8df83cda)"/></g><g id="PolyCollection_8"><path style="fill:#add8e6" id="path7888" d="M 135 251.865345 L 135 261.442803 L 190.8 244.334865 L 246.6 270.901506 L 302.4 270.205574 L 358.2 261.026745 L 414 262.752963 L 469.8 260.850263 L 525.6 259.86947 L 581.4 270.482983 L 637.2 266.171258 L 693 267.590771 L 748.8 272.315934 L 804.6 271.166119 L 860.4 283.973696 L 916.2 288.308733 L 972 281.483459 L 972 259.86338 L 972 259.86338 L 916.2 263.389446 L 860.4 256.031877 L 804.6 241.869014 L 748.8 241.212973 L 693 234.777341 L 637.2 238.259082 L 581.4 244.697548 L 525.6 240.404238 L 469.8 244.308133 L 414 248.541581 L 358.2 243.428493 L 302.4 257.361936 L 246.6 256.328608 L 190.8 228.81785 L 135 251.865345 z" clip-path="url(#p4f8df83cda)"/></g><g id="PolyCollection_9"><path style="fill:teal" id="path7891" d="M 135 251.865345 L 135 251.865345 L 190.8 228.81785 L 246.6 256.328608 L 302.4 257.361936 L 358.2 243.428493 L 414 248.541581 L 469.8 244.308133 L 525.6 240.404238 L 581.4 244.697548 L 637.2 238.259082 L 693 234.777341 L 748.8 241.212973 L 804.6 241.869014 L 860.4 256.031877 L 916.2 263.389446 L 972 259.86338 L 972 236.415287 L 972 236.415287 L 916.2 240.080414 L 860.4 235.152025 L 804.6 223.55966 L 748.8 229.236887 L 693 225.914809 L 637.2 230.676551 L 581.4 238.801171 L 525.6 240.404238 L 469.8 244.308133 L 414 248.541581 L 358.2 243.428493 L 302.4 257.361936 L 246.6 256.328608 L 190.8 228.81785 L 135 251.865345 z" clip-path="url(#p4f8df83cda)"/></g><g id="PolyCollection_10"><path style="fill:#00fa9a" id="path7894" d="M 135 251.865345 L 135 251.865345 L 190.8 228.81785 L 246.6 256.328608 L 302.4 257.361936 L 358.2 243.428493 L 414 248.541581 L 469.8 244.308133 L 525.6 240.404238 L 581.4 238.801171 L 637.2 230.676551 L 693 225.914809 L 748.8 229.236887 L 804.6 223.55966 L 860.4 235.152025 L 916.2 240.080414 L 972 236.415287 L 972 212.348468 L 972 212.348468 L 916.2 218.571501 L 860.4 222.811726 L 804.6 223.55966 L 748.8 229.236887 L 693 225.914809 L 637.2 230.676551 L 581.4 238.801171 L 525.6 240.404238 L 469.8 244.308133 L 414 248.541581 L 358.2 243.428493 L 302.4 257.361936 L 246.6 256.328608 L 190.8 228.81785 L 135 251.865345 z" clip-path="url(#p4f8df83cda)"/></g><g id="PolyCollection_11"><path style="fill:green" id="path7897" d="M 135 251.865345 L 135 251.865345 L 190.8 228.81785 L 246.6 256.328608 L 302.4 257.361936 L 358.2 243.428493 L 414 248.541581 L 469.8 244.308133 L 525.6 240.404238 L 581.4 238.801171 L 637.2 230.676551 L 693 225.914809 L 748.8 229.236887 L 804.6 223.55966 L 860.4 222.811726 L 916.2 218.571501 L 972 212.348468 L 972 198.203382 L 972 198.203382 L 916.2 203.99515 L 860.4 207.526156 L 804.6 206.904364 L 748.8 214.292592 L 693 210.733782 L 637.2 217.057555 L 581.4 228.820821 L 525.6 233.340045 L 469.8 239.132109 L 414 243.264317 L 358.2 238.711307 L 302.4 250.013112 L 246.6 251.641862 L 190.8 228.81785 L 135 251.865345 z" clip-path="url(#p4f8df83cda)"/></g><g id="PolyCollection_12"><path style="fill:#adff2f" id="path7900" d="M 135 165.727245 L 135 251.865345 L 190.8 228.81785 L 246.6 251.641862 L 302.4 250.013112 L 358.2 238.711307 L 414 243.264317 L 469.8 239.132109 L 525.6 233.340045 L 581.4 228.820821 L 637.2 217.057555 L 693 210.733782 L 748.8 214.292592 L 804.6 206.904364 L 860.4 207.526156 L 916.2 203.99515 L 972 198.203382 L 972 188.962457 L 972 188.962457 L 916.2 193.248598 L 860.4 194.774872 L 804.6 190.432163 L 748.8 195.493304 L 693 187.551603 L 637.2 189.495664 L 581.4 193.620657 L 525.6 182.0553 L 469.8 180.198094 L 414 176.744449 L 358.2 170.74276 L 302.4 169.856329 L 246.6 172.983549 L 190.8 159.268652 L 135 165.727245 z" clip-path="url(#p4f8df83cda)"/></g><g id="PolyCollection_13"><path style="fill:olive" id="path7903" d="M 135 154.601568 L 135 165.727245 L 190.8 159.268652 L 246.6 172.983549 L 302.4 169.856329 L 358.2 170.74276 L 414 176.744449 L 469.8 180.198094 L 525.6 182.0553 L 581.4 193.620657 L 637.2 189.495664 L 693 187.551603 L 748.8 195.493304 L 804.6 190.432163 L 860.4 194.774872 L 916.2 193.248598 L 972 188.962457 L 972 176.429139 L 972 176.429139 L 916.2 179.958345 L 860.4 182.143126 L 804.6 181.18086 L 748.8 186.924583 L 693 179.042848 L 637.2 180.7873 L 581.4 182.994273 L 525.6 170.308512 L 469.8 168.062371 L 414 161.968481 L 358.2 158.441556 L 302.4 154.4348 L 246.6 158.011757 L 190.8 147.3628 L 135 154.601568 z" clip-path="url(#p4f8df83cda)"/></g><g id="PolyCollection_14"><path style="fill:khaki" id="path7906" d="M 135 149.629531 L 135 154.601568 L 190.8 147.3628 L 246.6 158.011757 L 302.4 154.4348 L 358.2 158.441556 L 414 161.968481 L 469.8 168.062371 L 525.6 170.308512 L 581.4 182.994273 L 637.2 180.7873 L 693 179.042848 L 748.8 186.924583 L 804.6 181.18086 L 860.4 182.143126 L 916.2 179.958345 L 972 176.429139 L 972 166.570812 L 972 166.570812 L 916.2 168.414375 L 860.4 169.266207 L 804.6 168.015573 L 748.8 169.513496 L 693 164.698254 L 637.2 166.467135 L 581.4 166.263727 L 525.6 158.400164 L 469.8 158.086028 L 414 150.281412 L 358.2 149.773514 L 302.4 146.420677 L 246.6 152.686383 L 190.8 141.967139 L 135 149.629531 z" clip-path="url(#p4f8df83cda)"/></g><g id="PolyCollection_15"><path style="fill:#b8860b" id="path7909" d="M 135 144.309313 L 135 149.629531 L 190.8 141.967139 L 246.6 152.686383 L 302.4 146.420677 L 358.2 149.773514 L 414 150.281412 L 469.8 158.086028 L 525.6 158.400164 L 581.4 166.263727 L 637.2 166.467135 L 693 164.698254 L 748.8 169.513496 L 804.6 168.015573 L 860.4 169.266207 L 916.2 168.414375 L 972 166.570812 L 972 155.686722 L 972 155.686722 L 916.2 157.132257 L 860.4 157.663729 L 804.6 156.299454 L 748.8 157.374743 L 693 153.472479 L 637.2 154.696998 L 581.4 155.271222 L 525.6 148.4523 L 469.8 148.535489 L 414 141.54564 L 358.2 140.768124 L 302.4 140.151473 L 246.6 146.481559 L 190.8 136.588752 L 135 144.309313 z" clip-path="url(#p4f8df83cda)"/></g><g id="PolyCollection_16"><path style="fill:gold" id="path7912" d="M 135 139.337276 L 135 144.309313 L 190.8 136.588752 L 246.6 146.481559 L 302.4 140.151473 L 358.2 140.768124 L 414 141.54564 L 469.8 148.535489 L 525.6 148.4523 L 581.4 155.271222 L 637.2 154.696998 L 693 153.472479 L 748.8 157.374743 L 804.6 156.299454 L 860.4 157.663729 L 916.2 157.132257 L 972 155.686722 L 972 143.878396 L 972 143.878396 L 916.2 145.831765 L 860.4 146.587504 L 804.6 146.627547 L 748.8 148.072132 L 693 145.087976 L 637.2 147.153127 L 581.4 148.147094 L 525.6 141.297177 L 469.8 141.889689 L 414 135.443964 L 358.2 134.352885 L 302.4 134.500586 L 246.6 141.228509 L 190.8 131.35207 L 135 139.337276 z" clip-path="url(#p4f8df83cda)"/></g><g id="PolyCollection_17"><path style="fill:#ff8c00" id="path7915" d="M 135 139.337276 L 135 139.337276 L 190.8 131.35207 L 246.6 141.228509 L 302.4 134.500586 L 358.2 134.352885 L 414 135.443964 L 469.8 141.889689 L 525.6 141.297177 L 581.4 148.147094 L 637.2 147.153127 L 693 145.087976 L 748.8 148.072132 L 804.6 146.627547 L 860.4 146.587504 L 916.2 145.831765 L 972 143.878396 L 972 135.506315 L 972 135.506315 L 916.2 136.279643 L 860.4 135.543151 L 804.6 135.103241 L 748.8 135.904644 L 693 133.45059 L 637.2 134.176448 L 581.4 138.081003 L 525.6 135.438228 L 469.8 136.884135 L 414 135.443964 L 358.2 134.352885 L 302.4 134.500586 L 246.6 141.228509 L 190.8 131.35207 L 135 139.337276 z" clip-path="url(#p4f8df83cda)"/></g><g id="PolyCollection_18"><path style="fill:#ffdab9" id="path7918" d="M 135 139.337276 L 135 139.337276 L 190.8 131.35207 L 246.6 141.228509 L 302.4 134.500586 L 358.2 134.352885 L 414 135.443964 L 469.8 136.884135 L 525.6 135.438228 L 581.4 138.081003 L 637.2 134.176448 L 693 133.45059 L 748.8 135.904644 L 804.6 135.103241 L 860.4 135.543151 L 916.2 136.279643 L 972 135.506315 L 972 126.35393 L 972 126.35393 L 916.2 127.273056 L 860.4 128.386302 L 804.6 129.60192 L 748.8 130.950507 L 693 133.45059 L 637.2 134.176448 L 581.4 138.081003 L 525.6 135.438228 L 469.8 136.884135 L 414 135.443964 L 358.2 134.352885 L 302.4 134.500586 L 246.6 141.228509 L 190.8 131.35207 L 135 139.337276 z" clip-path="url(#p4f8df83cda)"/></g><g id="PolyCollection_19"><path style="fill:tomato" id="path7921" d="M 135 130.356764 L 135 139.337276 L 190.8 131.35207 L 246.6 141.228509 L 302.4 134.500586 L 358.2 134.352885 L 414 135.443964 L 469.8 136.884135 L 525.6 135.438228 L 581.4 138.081003 L 637.2 134.176448 L 693 133.45059 L 748.8 130.950507 L 804.6 129.60192 L 860.4 128.386302 L 916.2 127.273056 L 972 126.35393 L 972 120.584778 L 972 120.584778 L 916.2 121.061797 L 860.4 121.408875 L 804.6 121.943361 L 748.8 122.316987 L 693 123.603152 L 637.2 124.150753 L 581.4 126.65308 L 525.6 126.465307 L 469.8 128.206198 L 414 129.767935 L 358.2 128.59068 L 302.4 129.282774 L 246.6 132.968608 L 190.8 126.512895 L 135 130.356764 z" clip-path="url(#p4f8df83cda)"/></g><g id="PolyCollection_20"><path style="fill:#b22222" id="path7924" d="M 135 125.384727 L 135 130.356764 L 190.8 126.512895 L 246.6 132.968608 L 302.4 129.282774 L 358.2 128.59068 L 414 129.767935 L 469.8 128.206198 L 525.6 126.465307 L 581.4 126.65308 L 637.2 124.150753 L 693 123.603152 L 748.8 122.316987 L 804.6 121.943361 L 860.4 121.408875 L 916.2 121.061797 L 972 120.584778 L 972 114.250921 L 972 114.250921 L 916.2 114.520035 L 860.4 114.972035 L 804.6 115.168878 L 748.8 115.495479 L 693 115.977124 L 637.2 116.229568 L 581.4 118.299785 L 525.6 118.951298 L 469.8 121.29423 L 414 123.82641 L 358.2 121.968753 L 302.4 122.413471 L 246.6 124.540653 L 190.8 119.51471 L 135 125.384727 z" clip-path="url(#p4f8df83cda)"/></g><g id="PolyCollection_21"><path style="fill:#bc8f8f" id="path7927" d="M 135 110.776777 L 135 125.384727 L 190.8 119.51471 L 246.6 124.540653 L 302.4 122.413471 L 358.2 121.968753 L 414 123.82641 L 469.8 121.29423 L 525.6 118.951298 L 581.4 118.299785 L 637.2 116.229568 L 693 115.977124 L 748.8 115.495479 L 804.6 115.168878 L 860.4 114.972035 L 916.2 114.520035 L 972 114.250921 L 972 108.909679 L 972 108.909679 L 916.2 109.013326 L 860.4 109.092111 L 804.6 109.245582 L 748.8 109.207857 L 693 109.26769 L 637.2 109.404647 L 581.4 110.257213 L 525.6 109.398957 L 469.8 109.844988 L 414 110.583694 L 358.2 110.038158 L 302.4 108.882013 L 246.6 110.802746 L 190.8 109.749503 L 135 110.776777 z" clip-path="url(#p4f8df83cda)"/></g><g id="PolyCollection_22"><path style="fill:#696969" id="path7930" d="M 135 103.68 L 135 110.776777 L 190.8 109.749503 L 246.6 110.802746 L 302.4 108.882013 L 358.2 110.038158 L 414 110.583694 L 469.8 109.844988 L 525.6 109.398957 L 581.4 110.257213 L 637.2 109.404647 L 693 109.26769 L 748.8 109.207857 L 804.6 109.245582 L 860.4 109.092111 L 916.2 109.013326 L 972 108.909679 L 972 103.68 L 972 103.68 L 916.2 103.68 L 860.4 103.68 L 804.6 103.68 L 748.8 103.68 L 693 103.68 L 637.2 103.68 L 581.4 103.68 L 525.6 103.68 L 469.8 103.68 L 414 103.68 L 358.2 103.68 L 302.4 103.68 L 246.6 103.68 L 190.8 103.68 L 135 103.68 z" clip-path="url(#p4f8df83cda)"/></g><g id="matplotlib.axis_1"><g id="xtick_1"><g id="line2d_1"><defs id="defs7935"><path id="mec20aec8ae" d="M 0 0 L 0 3.5" style="stroke:#000;stroke-width:.8"/></defs><g id="g7938"><use style="stroke:#000;stroke-width:.8" id="use7940" x="135" y="756" xlink:href="#mec20aec8ae"/></g></g><g id="text_1"><defs id="defs7943"><path id="DejaVuSans-32" d="M 19.1875 8.296875 L 53.609375 8.296875 L 53.609375 0 L 7.328125 0 L 7.328125 8.296875 Q 12.9375 14.109375 22.625 23.890625 Q 32.328125 33.6875 34.8125 36.53125 Q 39.546875 41.84375 41.421875 45.53125 Q 43.3125 49.21875 43.3125 52.78125 Q 43.3125 58.59375 39.234375 62.25 Q 35.15625 65.921875 28.609375 65.921875 Q 23.96875 65.921875 18.8125 64.3125 Q 13.671875 62.703125 7.8125 59.421875 L 7.8125 69.390625 Q 13.765625 71.78125 18.9375 73 Q 24.125 74.21875 28.421875 74.21875 Q 39.75 74.21875 46.484375 68.546875 Q 53.21875 62.890625 53.21875 53.421875 Q 53.21875 48.921875 51.53125 44.890625 Q 49.859375 40.875 45.40625 35.40625 Q 44.1875 33.984375 37.640625 27.21875 Q 31.109375 20.453125 19.1875 8.296875"/><path id="DejaVuSans-30" d="M 31.78125 66.40625 Q 24.171875 66.40625 20.328125 58.90625 Q 16.5 51.421875 16.5 36.375 Q 16.5 21.390625 20.328125 13.890625 Q 24.171875 6.390625 31.78125 6.390625 Q 39.453125 6.390625 43.28125 13.890625 Q 47.125 21.390625 47.125 36.375 Q 47.125 51.421875 43.28125 58.90625 Q 39.453125 66.40625 31.78125 66.40625 M 31.78125 74.21875 Q 44.046875 74.21875 50.515625 64.515625 Q 56.984375 54.828125 56.984375 36.375 Q 56.984375 17.96875 50.515625 8.265625 Q 44.046875 -1.421875 31.78125 -1.421875 Q 19.53125 -1.421875 13.0625 8.265625 Q 6.59375 17.96875 6.59375 36.375 Q 6.59375 54.828125 13.0625 64.515625 Q 19.53125 74.21875 31.78125 74.21875"/></defs><g id="g7947" transform="translate(122.275 770.598438)scale(0.1 -0.1)"><use id="use7949" xlink:href="#DejaVuSans-32"/><use id="use7951" x="63.623" xlink:href="#DejaVuSans-30"/><use id="use7953" x="127.246" xlink:href="#DejaVuSans-30"/><use id="use7955" x="190.869" xlink:href="#DejaVuSans-30"/></g></g></g><g id="xtick_2"><g id="line2d_2"><g id="g7959"><use style="stroke:#000;stroke-width:.8" id="use7961" x="246.6" y="756" xlink:href="#mec20aec8ae"/></g></g><g id="text_2"><g id="g7964" transform="translate(233.875 770.598438)scale(0.1 -0.1)"><use id="use7966" xlink:href="#DejaVuSans-32"/><use id="use7968" x="63.623" xlink:href="#DejaVuSans-30"/><use id="use7970" x="127.246" xlink:href="#DejaVuSans-30"/><use id="use7972" x="190.869" xlink:href="#DejaVuSans-32"/></g></g></g><g id="xtick_3"><g id="line2d_3"><g id="g7976"><use style="stroke:#000;stroke-width:.8" id="use7978" x="358.2" y="756" xlink:href="#mec20aec8ae"/></g></g><g id="text_3"><defs id="defs7981"><path id="DejaVuSans-34" d="M 37.796875 64.3125 L 12.890625 25.390625 L 37.796875 25.390625 z M 35.203125 72.90625 L 47.609375 72.90625 L 47.609375 25.390625 L 58.015625 25.390625 L 58.015625 17.1875 L 47.609375 17.1875 L 47.609375 0 L 37.796875 0 L 37.796875 17.1875 L 4.890625 17.1875 L 4.890625 26.703125 z"/></defs><g id="g7984" transform="translate(345.475 770.598438)scale(0.1 -0.1)"><use id="use7986" xlink:href="#DejaVuSans-32"/><use id="use7988" x="63.623" xlink:href="#DejaVuSans-30"/><use id="use7990" x="127.246" xlink:href="#DejaVuSans-30"/><use id="use7992" x="190.869" xlink:href="#DejaVuSans-34"/></g></g></g><g id="xtick_4"><g id="line2d_4"><g id="g7996"><use style="stroke:#000;stroke-width:.8" id="use7998" x="469.8" y="756" xlink:href="#mec20aec8ae"/></g></g><g id="text_4"><defs id="defs8001"><path id="DejaVuSans-36" d="M 33.015625 40.375 Q 26.375 40.375 22.484375 35.828125 Q 18.609375 31.296875 18.609375 23.390625 Q 18.609375 15.53125 22.484375 10.953125 Q 26.375 6.390625 33.015625 6.390625 Q 39.65625 6.390625 43.53125 10.953125 Q 47.40625 15.53125 47.40625 23.390625 Q 47.40625 31.296875 43.53125 35.828125 Q 39.65625 40.375 33.015625 40.375 M 52.59375 71.296875 L 52.59375 62.3125 Q 48.875 64.0625 45.09375 64.984375 Q 41.3125 65.921875 37.59375 65.921875 Q 27.828125 65.921875 22.671875 59.328125 Q 17.53125 52.734375 16.796875 39.40625 Q 19.671875 43.65625 24.015625 45.921875 Q 28.375 48.1875 33.59375 48.1875 Q 44.578125 48.1875 50.953125 41.515625 Q 57.328125 34.859375 57.328125 23.390625 Q 57.328125 12.15625 50.6875 5.359375 Q 44.046875 -1.421875 33.015625 -1.421875 Q 20.359375 -1.421875 13.671875 8.265625 Q 6.984375 17.96875 6.984375 36.375 Q 6.984375 53.65625 15.1875 63.9375 Q 23.390625 74.21875 37.203125 74.21875 Q 40.921875 74.21875 44.703125 73.484375 Q 48.484375 72.75 52.59375 71.296875"/></defs><g id="g8004" transform="translate(457.075 770.598438)scale(0.1 -0.1)"><use id="use8006" xlink:href="#DejaVuSans-32"/><use id="use8008" x="63.623" xlink:href="#DejaVuSans-30"/><use id="use8010" x="127.246" xlink:href="#DejaVuSans-30"/><use id="use8012" x="190.869" xlink:href="#DejaVuSans-36"/></g></g></g><g id="xtick_5"><g id="line2d_5"><g id="g8016"><use style="stroke:#000;stroke-width:.8" id="use8018" x="581.4" y="756" xlink:href="#mec20aec8ae"/></g></g><g id="text_5"><defs id="defs8021"><path id="DejaVuSans-38" d="M 31.78125 34.625 Q 24.75 34.625 20.71875 30.859375 Q 16.703125 27.09375 16.703125 20.515625 Q 16.703125 13.921875 20.71875 10.15625 Q 24.75 6.390625 31.78125 6.390625 Q 38.8125 6.390625 42.859375 10.171875 Q 46.921875 13.96875 46.921875 20.515625 Q 46.921875 27.09375 42.890625 30.859375 Q 38.875 34.625 31.78125 34.625 M 21.921875 38.8125 Q 15.578125 40.375 12.03125 44.71875 Q 8.5 49.078125 8.5 55.328125 Q 8.5 64.0625 14.71875 69.140625 Q 20.953125 74.21875 31.78125 74.21875 Q 42.671875 74.21875 48.875 69.140625 Q 55.078125 64.0625 55.078125 55.328125 Q 55.078125 49.078125 51.53125 44.71875 Q 48 40.375 41.703125 38.8125 Q 48.828125 37.15625 52.796875 32.3125 Q 56.78125 27.484375 56.78125 20.515625 Q 56.78125 9.90625 50.3125 4.234375 Q 43.84375 -1.421875 31.78125 -1.421875 Q 19.734375 -1.421875 13.25 4.234375 Q 6.78125 9.90625 6.78125 20.515625 Q 6.78125 27.484375 10.78125 32.3125 Q 14.796875 37.15625 21.921875 38.8125 M 18.3125 54.390625 Q 18.3125 48.734375 21.84375 45.5625 Q 25.390625 42.390625 31.78125 42.390625 Q 38.140625 42.390625 41.71875 45.5625 Q 45.3125 48.734375 45.3125 54.390625 Q 45.3125 60.0625 41.71875 63.234375 Q 38.140625 66.40625 31.78125 66.40625 Q 25.390625 66.40625 21.84375 63.234375 Q 18.3125 60.0625 18.3125 54.390625"/></defs><g id="g8024" transform="translate(568.675 770.598438)scale(0.1 -0.1)"><use id="use8026" xlink:href="#DejaVuSans-32"/><use id="use8028" x="63.623" xlink:href="#DejaVuSans-30"/><use id="use8030" x="127.246" xlink:href="#DejaVuSans-30"/><use id="use8032" x="190.869" xlink:href="#DejaVuSans-38"/></g></g></g><g id="xtick_6"><g id="line2d_6"><g id="g8036"><use style="stroke:#000;stroke-width:.8" id="use8038" x="693" y="756" xlink:href="#mec20aec8ae"/></g></g><g id="text_6"><defs id="defs8041"><path id="DejaVuSans-31" d="M 12.40625 8.296875 L 28.515625 8.296875 L 28.515625 63.921875 L 10.984375 60.40625 L 10.984375 69.390625 L 28.421875 72.90625 L 38.28125 72.90625 L 38.28125 8.296875 L 54.390625 8.296875 L 54.390625 0 L 12.40625 0 z"/></defs><g id="g8044" transform="translate(680.275 770.598438)scale(0.1 -0.1)"><use id="use8046" xlink:href="#DejaVuSans-32"/><use id="use8048" x="63.623" xlink:href="#DejaVuSans-30"/><use id="use8050" x="127.246" xlink:href="#DejaVuSans-31"/><use id="use8052" x="190.869" xlink:href="#DejaVuSans-30"/></g></g></g><g id="xtick_7"><g id="line2d_7"><g id="g8056"><use style="stroke:#000;stroke-width:.8" id="use8058" x="804.6" y="756" xlink:href="#mec20aec8ae"/></g></g><g id="text_7"><g id="g8061" transform="translate(791.875 770.598438)scale(0.1 -0.1)"><use id="use8063" xlink:href="#DejaVuSans-32"/><use id="use8065" x="63.623" xlink:href="#DejaVuSans-30"/><use id="use8067" x="127.246" xlink:href="#DejaVuSans-31"/><use id="use8069" x="190.869" xlink:href="#DejaVuSans-32"/></g></g></g><g id="xtick_8"><g id="line2d_8"><g id="g8073"><use style="stroke:#000;stroke-width:.8" id="use8075" x="916.2" y="756" xlink:href="#mec20aec8ae"/></g></g><g id="text_8"><g id="g8078" transform="translate(903.475 770.598438)scale(0.1 -0.1)"><use id="use8080" xlink:href="#DejaVuSans-32"/><use id="use8082" x="63.623" xlink:href="#DejaVuSans-30"/><use id="use8084" x="127.246" xlink:href="#DejaVuSans-31"/><use id="use8086" x="190.869" xlink:href="#DejaVuSans-34"/></g></g></g><g id="text_9"><defs id="defs8089"><path id="DejaVuSans-74" d="M 18.3125 70.21875 L 18.3125 54.6875 L 36.8125 54.6875 L 36.8125 47.703125 L 18.3125 47.703125 L 18.3125 18.015625 Q 18.3125 11.328125 20.140625 9.421875 Q 21.96875 7.515625 27.59375 7.515625 L 36.8125 7.515625 L 36.8125 0 L 27.59375 0 Q 17.1875 0 13.234375 3.875 Q 9.28125 7.765625 9.28125 18.015625 L 9.28125 47.703125 L 2.6875 47.703125 L 2.6875 54.6875 L 9.28125 54.6875 L 9.28125 70.21875 z"/><path id="DejaVuSans-69" d="M 9.421875 54.6875 L 18.40625 54.6875 L 18.40625 0 L 9.421875 0 z M 9.421875 75.984375 L 18.40625 75.984375 L 18.40625 64.59375 L 9.421875 64.59375 z"/><path id="DejaVuSans-6d" d="M 52 44.1875 Q 55.375 50.25 60.0625 53.125 Q 64.75 56 71.09375 56 Q 79.640625 56 84.28125 50.015625 Q 88.921875 44.046875 88.921875 33.015625 L 88.921875 0 L 79.890625 0 L 79.890625 32.71875 Q 79.890625 40.578125 77.09375 44.375 Q 74.3125 48.1875 68.609375 48.1875 Q 61.625 48.1875 57.5625 43.546875 Q 53.515625 38.921875 53.515625 30.90625 L 53.515625 0 L 44.484375 0 L 44.484375 32.71875 Q 44.484375 40.625 41.703125 44.40625 Q 38.921875 48.1875 33.109375 48.1875 Q 26.21875 48.1875 22.15625 43.53125 Q 18.109375 38.875 18.109375 30.90625 L 18.109375 0 L 9.078125 0 L 9.078125 54.6875 L 18.109375 54.6875 L 18.109375 46.1875 Q 21.1875 51.21875 25.484375 53.609375 Q 29.78125 56 35.6875 56 Q 41.65625 56 45.828125 52.96875 Q 50 49.953125 52 44.1875"/><path id="DejaVuSans-65" d="M 56.203125 29.59375 L 56.203125 25.203125 L 14.890625 25.203125 Q 15.484375 15.921875 20.484375 11.0625 Q 25.484375 6.203125 34.421875 6.203125 Q 39.59375 6.203125 44.453125 7.46875 Q 49.3125 8.734375 54.109375 11.28125 L 54.109375 2.78125 Q 49.265625 0.734375 44.1875 -0.34375 Q 39.109375 -1.421875 33.890625 -1.421875 Q 20.796875 -1.421875 13.15625 6.1875 Q 5.515625 13.8125 5.515625 26.8125 Q 5.515625 40.234375 12.765625 48.109375 Q 20.015625 56 32.328125 56 Q 43.359375 56 49.78125 48.890625 Q 56.203125 41.796875 56.203125 29.59375 M 47.21875 32.234375 Q 47.125 39.59375 43.09375 43.984375 Q 39.0625 48.390625 32.421875 48.390625 Q 24.90625 48.390625 20.390625 44.140625 Q 15.875 39.890625 15.1875 32.171875 z"/></defs><g id="g8095" transform="translate(536.555859 788.075781)scale(0.15 -0.15)"><use id="use8097" xlink:href="#DejaVuSans-74"/><use id="use8099" x="39.209" xlink:href="#DejaVuSans-69"/><use id="use8101" x="66.992" xlink:href="#DejaVuSans-6d"/><use id="use8103" x="164.404" xlink:href="#DejaVuSans-65"/></g></g></g><g id="matplotlib.axis_2"><g id="ytick_1"><g id="line2d_9"><defs id="defs8108"><path id="m49fdd41448" d="M 0 0 L -3.5 0" style="stroke:#000;stroke-width:.8"/></defs><g id="g8111"><use style="stroke:#000;stroke-width:.8" id="use8113" x="135" y="756" xlink:href="#m49fdd41448"/></g></g><g id="text_10"><defs id="defs8116"><path id="DejaVuSans-2e" d="M 10.6875 12.40625 L 21 12.40625 L 21 0 L 10.6875 0 z"/></defs><g id="g8119" transform="translate(112.096875 759.799219)scale(0.1 -0.1)"><use id="use8121" xlink:href="#DejaVuSans-30"/><use id="use8123" x="63.623" xlink:href="#DejaVuSans-2e"/><use id="use8125" x="95.41" xlink:href="#DejaVuSans-30"/></g></g></g><g id="ytick_2"><g id="line2d_10"><g id="g8129"><use style="stroke:#000;stroke-width:.8" id="use8131" x="135" y="625.536" xlink:href="#m49fdd41448"/></g></g><g id="text_11"><g id="g8134" transform="translate(112.096875 629.335219)scale(0.1 -0.1)"><use id="use8136" xlink:href="#DejaVuSans-30"/><use id="use8138" x="63.623" xlink:href="#DejaVuSans-2e"/><use id="use8140" x="95.41" xlink:href="#DejaVuSans-32"/></g></g></g><g id="ytick_3"><g id="line2d_11"><g id="g8144"><use style="stroke:#000;stroke-width:.8" id="use8146" x="135" y="495.072" xlink:href="#m49fdd41448"/></g></g><g id="text_12"><g id="g8149" transform="translate(112.096875 498.871219)scale(0.1 -0.1)"><use id="use8151" xlink:href="#DejaVuSans-30"/><use id="use8153" x="63.623" xlink:href="#DejaVuSans-2e"/><use id="use8155" x="95.41" xlink:href="#DejaVuSans-34"/></g></g></g><g id="ytick_4"><g id="line2d_12"><g id="g8159"><use style="stroke:#000;stroke-width:.8" id="use8161" x="135" y="364.608" xlink:href="#m49fdd41448"/></g></g><g id="text_13"><g id="g8164" transform="translate(112.096875 368.407219)scale(0.1 -0.1)"><use id="use8166" xlink:href="#DejaVuSans-30"/><use id="use8168" x="63.623" xlink:href="#DejaVuSans-2e"/><use id="use8170" x="95.41" xlink:href="#DejaVuSans-36"/></g></g></g><g id="ytick_5"><g id="line2d_13"><g id="g8174"><use style="stroke:#000;stroke-width:.8" id="use8176" x="135" y="234.144" xlink:href="#m49fdd41448"/></g></g><g id="text_14"><g id="g8179" transform="translate(112.096875 237.943219)scale(0.1 -0.1)"><use id="use8181" xlink:href="#DejaVuSans-30"/><use id="use8183" x="63.623" xlink:href="#DejaVuSans-2e"/><use id="use8185" x="95.41" xlink:href="#DejaVuSans-38"/></g></g></g><g id="ytick_6"><g id="line2d_14"><g id="g8189"><use style="stroke:#000;stroke-width:.8" id="use8191" x="135" y="103.68" xlink:href="#m49fdd41448"/></g></g><g id="text_15"><g id="g8194" transform="translate(112.096875 107.479219)scale(0.1 -0.1)"><use id="use8196" xlink:href="#DejaVuSans-31"/><use id="use8198" x="63.623" xlink:href="#DejaVuSans-2e"/><use id="use8200" x="95.41" xlink:href="#DejaVuSans-30"/></g></g></g><g id="text_16"><defs id="defs8203"><path id="DejaVuSans-70" d="M 18.109375 8.203125 L 18.109375 -20.796875 L 9.078125 -20.796875 L 9.078125 54.6875 L 18.109375 54.6875 L 18.109375 46.390625 Q 20.953125 51.265625 25.265625 53.625 Q 29.59375 56 35.59375 56 Q 45.5625 56 51.78125 48.09375 Q 58.015625 40.1875 58.015625 27.296875 Q 58.015625 14.40625 51.78125 6.484375 Q 45.5625 -1.421875 35.59375 -1.421875 Q 29.59375 -1.421875 25.265625 0.953125 Q 20.953125 3.328125 18.109375 8.203125 M 48.6875 27.296875 Q 48.6875 37.203125 44.609375 42.84375 Q 40.53125 48.484375 33.40625 48.484375 Q 26.265625 48.484375 22.1875 42.84375 Q 18.109375 37.203125 18.109375 27.296875 Q 18.109375 17.390625 22.1875 11.75 Q 26.265625 6.109375 33.40625 6.109375 Q 40.53125 6.109375 44.609375 11.75 Q 48.6875 17.390625 48.6875 27.296875"/><path id="DejaVuSans-6f" d="M 30.609375 48.390625 Q 23.390625 48.390625 19.1875 42.75 Q 14.984375 37.109375 14.984375 27.296875 Q 14.984375 17.484375 19.15625 11.84375 Q 23.34375 6.203125 30.609375 6.203125 Q 37.796875 6.203125 41.984375 11.859375 Q 46.1875 17.53125 46.1875 27.296875 Q 46.1875 37.015625 41.984375 42.703125 Q 37.796875 48.390625 30.609375 48.390625 M 30.609375 56 Q 42.328125 56 49.015625 48.375 Q 55.71875 40.765625 55.71875 27.296875 Q 55.71875 13.875 49.015625 6.21875 Q 42.328125 -1.421875 30.609375 -1.421875 Q 18.84375 -1.421875 12.171875 6.21875 Q 5.515625 13.875 5.515625 27.296875 Q 5.515625 40.765625 12.171875 48.375 Q 18.84375 56 30.609375 56"/><path id="DejaVuSans-75" d="M 8.5 21.578125 L 8.5 54.6875 L 17.484375 54.6875 L 17.484375 21.921875 Q 17.484375 14.15625 20.5 10.265625 Q 23.53125 6.390625 29.59375 6.390625 Q 36.859375 6.390625 41.078125 11.03125 Q 45.3125 15.671875 45.3125 23.6875 L 45.3125 54.6875 L 54.296875 54.6875 L 54.296875 0 L 45.3125 0 L 45.3125 8.40625 Q 42.046875 3.421875 37.71875 1 Q 33.40625 -1.421875 27.6875 -1.421875 Q 18.265625 -1.421875 13.375 4.4375 Q 8.5 10.296875 8.5 21.578125 M 31.109375 56 z"/><path id="DejaVuSans-6c" d="M 9.421875 75.984375 L 18.40625 75.984375 L 18.40625 0 L 9.421875 0 z"/><path id="DejaVuSans-61" d="M 34.28125 27.484375 Q 23.390625 27.484375 19.1875 25 Q 14.984375 22.515625 14.984375 16.5 Q 14.984375 11.71875 18.140625 8.90625 Q 21.296875 6.109375 26.703125 6.109375 Q 34.1875 6.109375 38.703125 11.40625 Q 43.21875 16.703125 43.21875 25.484375 L 43.21875 27.484375 z M 52.203125 31.203125 L 52.203125 0 L 43.21875 0 L 43.21875 8.296875 Q 40.140625 3.328125 35.546875 0.953125 Q 30.953125 -1.421875 24.3125 -1.421875 Q 15.921875 -1.421875 10.953125 3.296875 Q 6 8.015625 6 15.921875 Q 6 25.140625 12.171875 29.828125 Q 18.359375 34.515625 30.609375 34.515625 L 43.21875 34.515625 L 43.21875 35.40625 Q 43.21875 41.609375 39.140625 45 Q 35.0625 48.390625 27.6875 48.390625 Q 23 48.390625 18.546875 47.265625 Q 14.109375 46.140625 10.015625 43.890625 L 10.015625 52.203125 Q 14.9375 54.109375 19.578125 55.046875 Q 24.21875 56 28.609375 56 Q 40.484375 56 46.34375 49.84375 Q 52.203125 43.703125 52.203125 31.203125"/><path id="DejaVuSans-72" d="M 41.109375 46.296875 Q 39.59375 47.171875 37.8125 47.578125 Q 36.03125 48 33.890625 48 Q 26.265625 48 22.1875 43.046875 Q 18.109375 38.09375 18.109375 28.8125 L 18.109375 0 L 9.078125 0 L 9.078125 54.6875 L 18.109375 54.6875 L 18.109375 46.1875 Q 20.953125 51.171875 25.484375 53.578125 Q 30.03125 56 36.53125 56 Q 37.453125 56 38.578125 55.875 Q 39.703125 55.765625 41.0625 55.515625 z"/><path id="DejaVuSans-79" d="M 32.171875 -5.078125 Q 28.375 -14.84375 24.75 -17.8125 Q 21.140625 -20.796875 15.09375 -20.796875 L 7.90625 -20.796875 L 7.90625 -13.28125 L 13.1875 -13.28125 Q 16.890625 -13.28125 18.9375 -11.515625 Q 21 -9.765625 23.484375 -3.21875 L 25.09375 0.875 L 2.984375 54.6875 L 12.5 54.6875 L 29.59375 11.921875 L 46.6875 54.6875 L 56.203125 54.6875 z"/></defs><g id="g8212" transform="translate(104.977344 467.930625)rotate(-90)scale(0.15 -0.15)"><use id="use8214" xlink:href="#DejaVuSans-70"/><use id="use8216" x="63.477" xlink:href="#DejaVuSans-6f"/><use id="use8218" x="124.658" xlink:href="#DejaVuSans-70"/><use id="use8220" x="188.135" xlink:href="#DejaVuSans-75"/><use id="use8222" x="251.514" xlink:href="#DejaVuSans-6c"/><use id="use8224" x="279.297" xlink:href="#DejaVuSans-61"/><use id="use8226" x="340.576" xlink:href="#DejaVuSans-72"/><use id="use8228" x="381.689" xlink:href="#DejaVuSans-69"/><use id="use8230" x="409.473" xlink:href="#DejaVuSans-74"/><use id="use8232" x="448.682" xlink:href="#DejaVuSans-79"/></g></g></g><g id="patch_3"><path style="fill:none;stroke:#000;stroke-linecap:square;stroke-linejoin:miter;stroke-width:.8" id="path8235" d="M 135 756 L 135 103.68"/></g><g id="patch_4"><path style="fill:none;stroke:#000;stroke-linecap:square;stroke-linejoin:miter;stroke-width:.8" id="path8238" d="M 972 756 L 972 103.68"/></g><g id="patch_5"><path style="fill:none;stroke:#000;stroke-linecap:square;stroke-linejoin:miter;stroke-width:.8" id="path8241" d="M 135 756 L 972 756"/></g><g id="patch_6"><path style="fill:none;stroke:#000;stroke-linecap:square;stroke-linejoin:miter;stroke-width:.8" id="path8244" d="M 135 103.68 L 972 103.68"/></g><g id="text_17"><defs id="defs8247"><path id="DejaVuSans-Bold-43" d="M 67 4 Q 61.8125 1.3125 56.203125 -0.046875 Q 50.59375 -1.421875 44.484375 -1.421875 Q 26.265625 -1.421875 15.625 8.765625 Q 4.984375 18.953125 4.984375 36.375 Q 4.984375 53.859375 15.625 64.03125 Q 26.265625 74.21875 44.484375 74.21875 Q 50.59375 74.21875 56.203125 72.84375 Q 61.8125 71.484375 67 68.796875 L 67 53.71875 Q 61.765625 57.28125 56.6875 58.9375 Q 51.609375 60.59375 46 60.59375 Q 35.9375 60.59375 30.171875 54.140625 Q 24.421875 47.703125 24.421875 36.375 Q 24.421875 25.09375 30.171875 18.640625 Q 35.9375 12.203125 46 12.203125 Q 51.609375 12.203125 56.6875 13.859375 Q 61.765625 15.53125 67 19.09375 z"/><path id="DejaVuSans-Bold-2b" d="M 47.703125 62.703125 L 47.703125 37.109375 L 73.1875 37.109375 L 73.1875 25.59375 L 47.703125 25.59375 L 47.703125 0 L 36.078125 0 L 36.078125 25.59375 L 10.59375 25.59375 L 10.59375 37.109375 L 36.078125 37.109375 L 36.078125 62.703125 z"/></defs><g id="g8251" transform="translate(302.4 403.7472)scale(0.25 -0.25)"><use id="use8253" xlink:href="#DejaVuSans-Bold-43"/><use id="use8255" x="73.389" xlink:href="#DejaVuSans-Bold-2b"/><use id="use8257" x="157.178" xlink:href="#DejaVuSans-Bold-2b"/></g></g><g id="text_18"><defs id="defs8260"><path id="DejaVuSans-Bold-50" d="M 9.1875 72.90625 L 40.375 72.90625 Q 54.296875 72.90625 61.734375 66.71875 Q 69.1875 60.546875 69.1875 49.125 Q 69.1875 37.640625 61.734375 31.46875 Q 54.296875 25.296875 40.375 25.296875 L 27.984375 25.296875 L 27.984375 0 L 9.1875 0 z M 27.984375 59.28125 L 27.984375 38.921875 L 38.375 38.921875 Q 43.84375 38.921875 46.828125 41.578125 Q 49.8125 44.234375 49.8125 49.125 Q 49.8125 54 46.828125 56.640625 Q 43.84375 59.28125 38.375 59.28125 z"/><path id="DejaVuSans-Bold-79" d="M 1.21875 54.6875 L 18.703125 54.6875 L 33.40625 17.578125 L 45.90625 54.6875 L 63.375 54.6875 L 40.375 -5.171875 Q 36.921875 -14.3125 32.296875 -17.9375 Q 27.6875 -21.578125 20.125 -21.578125 L 10.015625 -21.578125 L 10.015625 -10.109375 L 15.484375 -10.109375 Q 19.921875 -10.109375 21.9375 -8.6875 Q 23.96875 -7.28125 25.09375 -3.609375 L 25.59375 -2.09375 z"/><path id="DejaVuSans-Bold-74" d="M 27.484375 70.21875 L 27.484375 54.6875 L 45.515625 54.6875 L 45.515625 42.1875 L 27.484375 42.1875 L 27.484375 19 Q 27.484375 15.1875 29 13.84375 Q 30.515625 12.5 35.015625 12.5 L 44 12.5 L 44 0 L 29 0 Q 18.65625 0 14.328125 4.3125 Q 10.015625 8.640625 10.015625 19 L 10.015625 42.1875 L 1.3125 42.1875 L 1.3125 54.6875 L 10.015625 54.6875 L 10.015625 70.21875 z"/><path id="DejaVuSans-Bold-68" d="M 63.375 33.296875 L 63.375 0 L 45.796875 0 L 45.796875 5.421875 L 45.796875 25.390625 Q 45.796875 32.5625 45.484375 35.25 Q 45.171875 37.9375 44.390625 39.203125 Q 43.359375 40.921875 41.59375 41.875 Q 39.84375 42.828125 37.59375 42.828125 Q 32.125 42.828125 29 38.59375 Q 25.875 34.375 25.875 26.90625 L 25.875 0 L 8.40625 0 L 8.40625 75.984375 L 25.875 75.984375 L 25.875 46.6875 Q 29.828125 51.46875 34.265625 53.734375 Q 38.71875 56 44.09375 56 Q 53.5625 56 58.46875 50.1875 Q 63.375 44.390625 63.375 33.296875"/><path id="DejaVuSans-Bold-6f" d="M 34.421875 43.5 Q 28.609375 43.5 25.5625 39.328125 Q 22.515625 35.15625 22.515625 27.296875 Q 22.515625 19.4375 25.5625 15.25 Q 28.609375 11.078125 34.421875 11.078125 Q 40.140625 11.078125 43.15625 15.25 Q 46.1875 19.4375 46.1875 27.296875 Q 46.1875 35.15625 43.15625 39.328125 Q 40.140625 43.5 34.421875 43.5 M 34.421875 56 Q 48.53125 56 56.46875 48.375 Q 64.40625 40.765625 64.40625 27.296875 Q 64.40625 13.8125 56.46875 6.1875 Q 48.53125 -1.421875 34.421875 -1.421875 Q 20.265625 -1.421875 12.28125 6.1875 Q 4.296875 13.8125 4.296875 27.296875 Q 4.296875 40.765625 12.28125 48.375 Q 20.265625 56 34.421875 56"/><path id="DejaVuSans-Bold-6e" d="M 63.375 33.296875 L 63.375 0 L 45.796875 0 L 45.796875 5.421875 L 45.796875 25.484375 Q 45.796875 32.5625 45.484375 35.25 Q 45.171875 37.9375 44.390625 39.203125 Q 43.359375 40.921875 41.59375 41.875 Q 39.84375 42.828125 37.59375 42.828125 Q 32.125 42.828125 29 38.59375 Q 25.875 34.375 25.875 26.90625 L 25.875 0 L 8.40625 0 L 8.40625 54.6875 L 25.875 54.6875 L 25.875 46.6875 Q 29.828125 51.46875 34.265625 53.734375 Q 38.71875 56 44.09375 56 Q 53.5625 56 58.46875 50.1875 Q 63.375 44.390625 63.375 33.296875"/></defs><g id="g8268" transform="translate(748.8 710.3376)scale(0.2 -0.2)"><use id="use8270" xlink:href="#DejaVuSans-Bold-50"/><use id="use8272" x="73.307" xlink:href="#DejaVuSans-Bold-79"/><use id="use8274" x="138.492" xlink:href="#DejaVuSans-Bold-74"/><use id="use8276" x="186.295" xlink:href="#DejaVuSans-Bold-68"/><use id="use8278" x="257.486" xlink:href="#DejaVuSans-Bold-6f"/><use id="use8280" x="326.188" xlink:href="#DejaVuSans-Bold-6e"/></g></g><g id="text_19"><defs id="defs8283"><path id="DejaVuSans-Bold-48" d="M 9.1875 72.90625 L 27.984375 72.90625 L 27.984375 45.125 L 55.71875 45.125 L 55.71875 72.90625 L 74.515625 72.90625 L 74.515625 0 L 55.71875 0 L 55.71875 30.90625 L 27.984375 30.90625 L 27.984375 0 L 9.1875 0 z"/></defs><g id="g8286" transform="translate(748.8 413.532)scale(0.15 -0.15)"><use id="use8288" xlink:href="#DejaVuSans-Bold-50"/><use id="use8290" x="73.291" xlink:href="#DejaVuSans-Bold-48"/><use id="use8292" x="156.982" xlink:href="#DejaVuSans-Bold-50"/></g></g><g id="text_20"><defs id="defs8295"><path id="DejaVuSans-Bold-65" d="M 62.984375 27.484375 L 62.984375 22.515625 L 22.125 22.515625 Q 22.75 16.359375 26.5625 13.28125 Q 30.375 10.203125 37.203125 10.203125 Q 42.71875 10.203125 48.5 11.84375 Q 54.296875 13.484375 60.40625 16.796875 L 60.40625 3.328125 Q 54.203125 0.984375 48 -0.21875 Q 41.796875 -1.421875 35.59375 -1.421875 Q 20.75 -1.421875 12.515625 6.125 Q 4.296875 13.671875 4.296875 27.296875 Q 4.296875 40.671875 12.375 48.328125 Q 20.453125 56 34.625 56 Q 47.515625 56 55.25 48.234375 Q 62.984375 40.484375 62.984375 27.484375 M 45.015625 33.296875 Q 45.015625 38.28125 42.109375 41.328125 Q 39.203125 44.390625 34.515625 44.390625 Q 29.4375 44.390625 26.265625 41.53125 Q 23.09375 38.671875 22.3125 33.296875 z"/><path id="DejaVuSans-Bold-72" d="M 49.03125 39.796875 Q 46.734375 40.875 44.453125 41.375 Q 42.1875 41.890625 39.890625 41.890625 Q 33.15625 41.890625 29.515625 37.5625 Q 25.875 33.25 25.875 25.203125 L 25.875 0 L 8.40625 0 L 8.40625 54.6875 L 25.875 54.6875 L 25.875 45.703125 Q 29.25 51.078125 33.609375 53.53125 Q 37.984375 56 44.09375 56 Q 44.96875 56 45.984375 55.921875 Q 47.015625 55.859375 48.96875 55.609375 z"/><path id="DejaVuSans-Bold-6c" d="M 8.40625 75.984375 L 25.875 75.984375 L 25.875 0 L 8.40625 0 z"/></defs><g id="g8300" transform="translate(302.4 214.5744)scale(0.18 -0.18)"><use id="use8302" xlink:href="#DejaVuSans-Bold-50"/><use id="use8304" x="73.291" xlink:href="#DejaVuSans-Bold-65"/><use id="use8306" x="141.113" xlink:href="#DejaVuSans-Bold-72"/><use id="use8308" x="190.43" xlink:href="#DejaVuSans-Bold-6c"/></g></g><g id="text_21"><g id="g8311" transform="translate(302.4 566.8272)scale(0.25 -0.25)"><use id="use8313" xlink:href="#DejaVuSans-Bold-43"/></g></g><g id="text_22"><defs id="defs8316"><path id="DejaVuSans-Bold-53" d="M 59.90625 70.609375 L 59.90625 55.171875 Q 53.90625 57.859375 48.1875 59.21875 Q 42.484375 60.59375 37.40625 60.59375 Q 30.671875 60.59375 27.4375 58.734375 Q 24.21875 56.890625 24.21875 52.984375 Q 24.21875 50.046875 26.390625 48.40625 Q 28.5625 46.78125 34.28125 45.609375 L 42.28125 44 Q 54.4375 41.546875 59.5625 36.5625 Q 64.703125 31.59375 64.703125 22.40625 Q 64.703125 10.359375 57.546875 4.46875 Q 50.390625 -1.421875 35.6875 -1.421875 Q 28.765625 -1.421875 21.78125 -0.09375 Q 14.796875 1.21875 7.8125 3.8125 L 7.8125 19.671875 Q 14.796875 15.96875 21.3125 14.078125 Q 27.828125 12.203125 33.890625 12.203125 Q 40.046875 12.203125 43.3125 14.25 Q 46.578125 16.3125 46.578125 20.125 Q 46.578125 23.53125 44.359375 25.390625 Q 42.140625 27.25 35.5 28.71875 L 28.21875 30.328125 Q 17.28125 32.671875 12.21875 37.796875 Q 7.171875 42.921875 7.171875 51.609375 Q 7.171875 62.5 14.203125 68.359375 Q 21.234375 74.21875 34.421875 74.21875 Q 40.4375 74.21875 46.78125 73.3125 Q 53.125 72.40625 59.90625 70.609375"/><path id="DejaVuSans-Bold-63" d="M 52.59375 52.984375 L 52.59375 38.71875 Q 49.03125 41.15625 45.4375 42.328125 Q 41.84375 43.5 37.984375 43.5 Q 30.671875 43.5 26.59375 39.234375 Q 22.515625 34.96875 22.515625 27.296875 Q 22.515625 19.625 26.59375 15.34375 Q 30.671875 11.078125 37.984375 11.078125 Q 42.09375 11.078125 45.78125 12.296875 Q 49.46875 13.53125 52.59375 15.921875 L 52.59375 1.609375 Q 48.484375 0.09375 44.265625 -0.65625 Q 40.046875 -1.421875 35.796875 -1.421875 Q 21 -1.421875 12.640625 6.171875 Q 4.296875 13.765625 4.296875 27.296875 Q 4.296875 40.828125 12.640625 48.40625 Q 21 56 35.796875 56 Q 40.09375 56 44.265625 55.25 Q 48.4375 54.5 52.59375 52.984375"/><path id="DejaVuSans-Bold-61" d="M 32.90625 24.609375 Q 27.4375 24.609375 24.671875 22.75 Q 21.921875 20.90625 21.921875 17.28125 Q 21.921875 13.96875 24.140625 12.078125 Q 26.375 10.203125 30.328125 10.203125 Q 35.25 10.203125 38.625 13.734375 Q 42 17.28125 42 22.609375 L 42 24.609375 z M 59.625 31.203125 L 59.625 0 L 42 0 L 42 8.109375 Q 38.484375 3.125 34.078125 0.84375 Q 29.6875 -1.421875 23.390625 -1.421875 Q 14.890625 -1.421875 9.59375 3.53125 Q 4.296875 8.5 4.296875 16.40625 Q 4.296875 26.03125 10.90625 30.515625 Q 17.53125 35.015625 31.6875 35.015625 L 42 35.015625 L 42 36.375 Q 42 40.53125 38.71875 42.453125 Q 35.453125 44.390625 28.515625 44.390625 Q 22.90625 44.390625 18.0625 43.265625 Q 13.234375 42.140625 9.078125 39.890625 L 9.078125 53.21875 Q 14.703125 54.59375 20.359375 55.296875 Q 26.03125 56 31.6875 56 Q 46.484375 56 53.046875 50.171875 Q 59.625 44.34375 59.625 31.203125"/></defs><g style="fill:#fff" id="g8321" transform="translate(665.1 224.3592)scale(0.13 -0.13)"><use id="use8323" xlink:href="#DejaVuSans-Bold-53"/><use id="use8325" x="72.021" xlink:href="#DejaVuSans-Bold-63"/><use id="use8327" x="131.299" xlink:href="#DejaVuSans-Bold-61"/><use id="use8329" x="198.779" xlink:href="#DejaVuSans-Bold-6c"/><use id="use8331" x="233.057" xlink:href="#DejaVuSans-Bold-61"/></g></g><g id="text_23"><defs id="defs8334"><path id="DejaVuSans-Bold-52" d="M 35.890625 40.578125 Q 41.796875 40.578125 44.359375 42.765625 Q 46.921875 44.96875 46.921875 50 Q 46.921875 54.984375 44.359375 57.125 Q 41.796875 59.28125 35.890625 59.28125 L 27.984375 59.28125 L 27.984375 40.578125 z M 27.984375 27.59375 L 27.984375 0 L 9.1875 0 L 9.1875 72.90625 L 37.890625 72.90625 Q 52.296875 72.90625 59 68.0625 Q 65.71875 63.234375 65.71875 52.78125 Q 65.71875 45.5625 62.21875 40.921875 Q 58.734375 36.28125 51.703125 34.078125 Q 55.5625 33.203125 58.609375 30.09375 Q 61.671875 27 64.796875 20.703125 L 75 0 L 54.984375 0 L 46.09375 18.109375 Q 43.40625 23.578125 40.640625 25.578125 Q 37.890625 27.59375 33.296875 27.59375 z"/><path id="DejaVuSans-Bold-75" d="M 7.8125 21.296875 L 7.8125 54.6875 L 25.390625 54.6875 L 25.390625 49.21875 Q 25.390625 44.78125 25.34375 38.0625 Q 25.296875 31.34375 25.296875 29.109375 Q 25.296875 22.515625 25.640625 19.609375 Q 25.984375 16.703125 26.8125 15.375 Q 27.875 13.671875 29.609375 12.734375 Q 31.34375 11.8125 33.59375 11.8125 Q 39.0625 11.8125 42.1875 16.015625 Q 45.3125 20.21875 45.3125 27.6875 L 45.3125 54.6875 L 62.796875 54.6875 L 62.796875 0 L 45.3125 0 L 45.3125 7.90625 Q 41.359375 3.125 36.9375 0.84375 Q 32.515625 -1.421875 27.203125 -1.421875 Q 17.71875 -1.421875 12.765625 4.390625 Q 7.8125 10.203125 7.8125 21.296875"/><path id="DejaVuSans-Bold-62" d="M 37.5 11.28125 Q 43.109375 11.28125 46.0625 15.375 Q 49.03125 19.484375 49.03125 27.296875 Q 49.03125 35.109375 46.0625 39.203125 Q 43.109375 43.3125 37.5 43.3125 Q 31.890625 43.3125 28.875 39.1875 Q 25.875 35.0625 25.875 27.296875 Q 25.875 19.53125 28.875 15.40625 Q 31.890625 11.28125 37.5 11.28125 M 25.875 46.6875 Q 29.5 51.46875 33.890625 53.734375 Q 38.28125 56 44 56 Q 54.109375 56 60.59375 47.96875 Q 67.09375 39.9375 67.09375 27.296875 Q 67.09375 14.65625 60.59375 6.609375 Q 54.109375 -1.421875 44 -1.421875 Q 38.28125 -1.421875 33.890625 0.84375 Q 29.5 3.125 25.875 7.90625 L 25.875 0 L 8.40625 0 L 8.40625 75.984375 L 25.875 75.984375 z"/></defs><g id="g8339" transform="translate(637.2 338.5152)scale(0.18 -0.18)"><use id="use8341" xlink:href="#DejaVuSans-Bold-52"/><use id="use8343" x="77.002" xlink:href="#DejaVuSans-Bold-75"/><use id="use8345" x="148.193" xlink:href="#DejaVuSans-Bold-62"/><use id="use8347" x="219.775" xlink:href="#DejaVuSans-Bold-79"/></g></g><g id="text_24"><defs id="defs8350"><path id="DejaVuSans-Bold-23" d="M 44.484375 71.78125 L 39.796875 52.984375 L 52.6875 52.984375 L 57.421875 71.78125 L 68.21875 71.78125 L 63.484375 52.984375 L 77 52.984375 L 77 42.578125 L 60.890625 42.578125 L 57.515625 29.203125 L 71.390625 29.203125 L 71.390625 18.703125 L 54.984375 18.703125 L 50.296875 0 L 39.5 0 L 44.1875 18.703125 L 31.296875 18.703125 L 26.609375 0 L 15.71875 0 L 20.40625 18.703125 L 6.78125 18.703125 L 6.78125 29.203125 L 22.796875 29.203125 L 26.21875 42.578125 L 12.40625 42.578125 L 12.40625 52.984375 L 28.90625 52.984375 L 33.59375 71.78125 z M 50 42.578125 L 37.109375 42.578125 L 33.6875 29.203125 L 46.578125 29.203125 z"/></defs><g style="fill:#fff" id="g8353" transform="translate(877.14 312.4224)scale(0.15 -0.15)"><use id="use8355" xlink:href="#DejaVuSans-Bold-43"/><use id="use8357" x="73.389" xlink:href="#DejaVuSans-Bold-23"/></g></g><g id="text_25"><defs id="defs8360"><path id="DejaVuSans-Bold-4a" d="M 9.1875 72.90625 L 27.984375 72.90625 L 27.984375 7.078125 Q 27.984375 -6.546875 20.578125 -13.28125 Q 13.1875 -20.015625 -1.8125 -20.015625 L -5.609375 -20.015625 L -5.609375 -5.8125 L -2.6875 -5.8125 Q 3.171875 -5.8125 6.171875 -2.53125 Q 9.1875 0.734375 9.1875 7.078125 z"/><path id="DejaVuSans-Bold-76" d="M 1.515625 54.6875 L 19 54.6875 L 32.625 16.890625 L 46.1875 54.6875 L 63.71875 54.6875 L 42.1875 0 L 23 0 z"/></defs><g id="g8364" transform="translate(748.8 619.0128)scale(0.2 -0.2)"><use id="use8366" xlink:href="#DejaVuSans-Bold-4a"/><use id="use8368" x="37.207" xlink:href="#DejaVuSans-Bold-61"/><use id="use8370" x="104.688" xlink:href="#DejaVuSans-Bold-76"/><use id="use8372" x="169.873" xlink:href="#DejaVuSans-Bold-61"/></g></g><g id="text_26"><defs id="defs8375"><path id="DejaVuSans-Bold-77" d="M 3.515625 54.6875 L 20.515625 54.6875 L 29.6875 17 L 38.921875 54.6875 L 53.515625 54.6875 L 62.703125 17.390625 L 71.921875 54.6875 L 88.921875 54.6875 L 74.515625 0 L 55.421875 0 L 46.1875 37.59375 L 37.015625 0 L 17.921875 0 z"/><path id="DejaVuSans-Bold-69" d="M 8.40625 54.6875 L 25.875 54.6875 L 25.875 0 L 8.40625 0 z M 8.40625 75.984375 L 25.875 75.984375 L 25.875 61.71875 L 8.40625 61.71875 z"/><path id="DejaVuSans-Bold-66" d="M 44.390625 75.984375 L 44.390625 64.5 L 34.71875 64.5 Q 31 64.5 29.53125 63.15625 Q 28.078125 61.8125 28.078125 58.5 L 28.078125 54.6875 L 43.015625 54.6875 L 43.015625 42.1875 L 28.078125 42.1875 L 28.078125 0 L 10.59375 0 L 10.59375 42.1875 L 1.90625 42.1875 L 1.90625 54.6875 L 10.59375 54.6875 L 10.59375 58.5 Q 10.59375 67.4375 15.578125 71.703125 Q 20.5625 75.984375 31 75.984375 z"/></defs><g id="g8380" transform="translate(877.14 233.49168)scale(0.14 -0.14)"><use id="use8382" xlink:href="#DejaVuSans-Bold-53"/><use id="use8384" x="72.021" xlink:href="#DejaVuSans-Bold-77"/><use id="use8386" x="164.404" xlink:href="#DejaVuSans-Bold-69"/><use id="use8388" x="198.682" xlink:href="#DejaVuSans-Bold-66"/><use id="use8390" x="242.188" xlink:href="#DejaVuSans-Bold-74"/></g></g><g id="text_27"><defs id="defs8393"><path id="DejaVuSans-Bold-47" d="M 74.703125 5.421875 Q 67.671875 2 60.109375 0.28125 Q 52.546875 -1.421875 44.484375 -1.421875 Q 26.265625 -1.421875 15.625 8.765625 Q 4.984375 18.953125 4.984375 36.375 Q 4.984375 54 15.8125 64.109375 Q 26.65625 74.21875 45.515625 74.21875 Q 52.78125 74.21875 59.4375 72.84375 Q 66.109375 71.484375 72.015625 68.796875 L 72.015625 53.71875 Q 65.921875 57.171875 59.890625 58.875 Q 53.859375 60.59375 47.796875 60.59375 Q 36.578125 60.59375 30.5 54.3125 Q 24.421875 48.046875 24.421875 36.375 Q 24.421875 24.8125 30.28125 18.5 Q 36.140625 12.203125 46.921875 12.203125 Q 49.859375 12.203125 52.375 12.5625 Q 54.890625 12.9375 56.890625 13.71875 L 56.890625 27.875 L 45.40625 27.875 L 45.40625 40.484375 L 74.703125 40.484375 z"/></defs><g id="g8396" transform="translate(916.2 256.32288)scale(0.14 -0.14)"><use id="use8398" xlink:href="#DejaVuSans-Bold-47"/><use id="use8400" x="82.08" xlink:href="#DejaVuSans-Bold-6f"/></g></g><g id="text_28"><defs id="defs8403"><path id="DejaVuSans-Bold-4f" d="M 42.484375 60.59375 Q 33.890625 60.59375 29.15625 54.25 Q 24.421875 47.90625 24.421875 36.375 Q 24.421875 24.90625 29.15625 18.546875 Q 33.890625 12.203125 42.484375 12.203125 Q 51.125 12.203125 55.859375 18.546875 Q 60.59375 24.90625 60.59375 36.375 Q 60.59375 47.90625 55.859375 54.25 Q 51.125 60.59375 42.484375 60.59375 M 42.484375 74.21875 Q 60.0625 74.21875 70.015625 64.15625 Q 79.984375 54.109375 79.984375 36.375 Q 79.984375 18.703125 70.015625 8.640625 Q 60.0625 -1.421875 42.484375 -1.421875 Q 24.953125 -1.421875 14.96875 8.640625 Q 4.984375 18.703125 4.984375 36.375 Q 4.984375 54.109375 14.96875 64.15625 Q 24.953125 74.21875 42.484375 74.21875"/><path id="DejaVuSans-Bold-6a" d="M 8.40625 54.6875 L 25.875 54.6875 L 25.875 0.984375 Q 25.875 -10.015625 20.59375 -15.796875 Q 15.328125 -21.578125 5.328125 -21.578125 L -3.328125 -21.578125 L -3.328125 -10.109375 L -0.296875 -10.109375 Q 4.6875 -10.109375 6.546875 -7.859375 Q 8.40625 -5.609375 8.40625 0.984375 z M 8.40625 75.984375 L 25.875 75.984375 L 25.875 61.71875 L 8.40625 61.71875 z"/><path id="DejaVuSans-Bold-2d" d="M 5.421875 35.890625 L 36.078125 35.890625 L 36.078125 21.6875 L 5.421875 21.6875 z"/></defs><g id="g8408" transform="translate(637.2 256.9752)scale(0.14 -0.14)"><use id="use8410" xlink:href="#DejaVuSans-Bold-4f"/><use id="use8412" x="85.01" xlink:href="#DejaVuSans-Bold-62"/><use id="use8414" x="156.592" xlink:href="#DejaVuSans-Bold-6a"/><use id="use8416" x="190.869" xlink:href="#DejaVuSans-Bold-65"/><use id="use8418" x="258.691" xlink:href="#DejaVuSans-Bold-63"/><use id="use8420" x="317.969" xlink:href="#DejaVuSans-Bold-74"/><use id="use8422" x="365.771" xlink:href="#DejaVuSans-Bold-69"/><use id="use8424" x="400.049" xlink:href="#DejaVuSans-Bold-76"/><use id="use8426" x="465.234" xlink:href="#DejaVuSans-Bold-65"/><use id="use8428" x="533.057" xlink:href="#DejaVuSans-Bold-2d"/><use id="use8430" x="574.561" xlink:href="#DejaVuSans-Bold-43"/></g></g><g id="patch_7"><path style="fill:none;stroke:#000;stroke-linecap:round" id="path8433" d="M 995.981508 240.523917 Q 904.037602 212.833964 812.093697 185.144011"/></g><g id="text_29"><g id="g8436" transform="translate(999.9 247.1904)scale(0.14 -0.14)"><use id="use8438" xlink:href="#DejaVuSans-Bold-52"/></g></g><g id="patch_8"><path style="fill:none;stroke:#000;stroke-linecap:round" id="path8441" d="M 995.96869 215.091836 Q 917.99043 194.539662 840.012171 173.987488"/></g><g id="text_30"><defs id="defs8444"><path id="DejaVuSans-Bold-73" d="M 51.125 52.984375 L 51.125 39.703125 Q 45.515625 42.046875 40.28125 43.21875 Q 35.0625 44.390625 30.421875 44.390625 Q 25.4375 44.390625 23.015625 43.140625 Q 20.609375 41.890625 20.609375 39.3125 Q 20.609375 37.203125 22.4375 36.078125 Q 24.265625 34.96875 29 34.421875 L 32.078125 33.984375 Q 45.515625 32.28125 50.140625 28.375 Q 54.78125 24.46875 54.78125 16.109375 Q 54.78125 7.375 48.328125 2.96875 Q 41.890625 -1.421875 29.109375 -1.421875 Q 23.6875 -1.421875 17.890625 -0.5625 Q 12.109375 0.296875 6 2 L 6 15.28125 Q 11.234375 12.75 16.71875 11.46875 Q 22.21875 10.203125 27.875 10.203125 Q 33.015625 10.203125 35.59375 11.609375 Q 38.1875 13.03125 38.1875 15.828125 Q 38.1875 18.171875 36.40625 19.3125 Q 34.625 20.453125 29.296875 21.09375 L 26.21875 21.484375 Q 14.546875 22.953125 9.859375 26.90625 Q 5.171875 30.859375 5.171875 38.921875 Q 5.171875 47.609375 11.125 51.796875 Q 17.09375 56 29.390625 56 Q 34.234375 56 39.546875 55.265625 Q 44.875 54.546875 51.125 52.984375"/><path id="DejaVuSans-Bold-6b" d="M 8.40625 75.984375 L 25.875 75.984375 L 25.875 34.625 L 46 54.6875 L 66.3125 54.6875 L 39.59375 29.59375 L 68.40625 0 L 47.21875 0 L 25.875 22.796875 L 25.875 0 L 8.40625 0 z"/></defs><g id="g8448" transform="translate(999.9 227.6208)scale(0.14 -0.14)"><use id="use8450" xlink:href="#DejaVuSans-Bold-48"/><use id="use8452" x="83.691" xlink:href="#DejaVuSans-Bold-61"/><use id="use8454" x="151.172" xlink:href="#DejaVuSans-Bold-73"/><use id="use8456" x="210.693" xlink:href="#DejaVuSans-Bold-6b"/><use id="use8458" x="277.166" xlink:href="#DejaVuSans-Bold-65"/><use id="use8460" x="344.988" xlink:href="#DejaVuSans-Bold-6c"/><use id="use8462" x="379.266" xlink:href="#DejaVuSans-Bold-6c"/></g></g><g id="patch_9"><path style="fill:none;stroke:#000;stroke-linecap:round" id="path8465" d="M 995.976372 199.267124 Q 929.154284 181.090751 862.332195 162.914379"/></g><g id="text_31"><defs id="defs8468"><path id="DejaVuSans-Bold-4c" d="M 9.1875 72.90625 L 27.984375 72.90625 L 27.984375 14.203125 L 60.984375 14.203125 L 60.984375 0 L 9.1875 0 z"/></defs><g id="g8471" transform="translate(999.9 208.0512)scale(0.14 -0.14)"><use id="use8473" xlink:href="#DejaVuSans-Bold-4c"/><use id="use8475" x="63.721" xlink:href="#DejaVuSans-Bold-75"/><use id="use8477" x="134.912" xlink:href="#DejaVuSans-Bold-61"/></g></g><g id="patch_10"><path style="fill:none;stroke:#000;stroke-linecap:round" id="path8480" d="M 995.951516 177.703006 Q 937.522922 164.71834 879.094328 151.733673"/></g><g id="text_32"><defs id="defs8483"><path id="DejaVuSans-Bold-4d" d="M 9.1875 72.90625 L 33.109375 72.90625 L 49.703125 33.890625 L 66.40625 72.90625 L 90.28125 72.90625 L 90.28125 0 L 72.515625 0 L 72.515625 53.328125 L 55.71875 14.015625 L 43.796875 14.015625 L 27 53.328125 L 27 0 L 9.1875 0 z"/></defs><g id="g8486" transform="translate(999.9 188.4816)scale(0.14 -0.14)"><use id="use8488" xlink:href="#DejaVuSans-Bold-4d"/><use id="use8490" x="99.512" xlink:href="#DejaVuSans-Bold-61"/><use id="use8492" x="166.992" xlink:href="#DejaVuSans-Bold-74"/><use id="use8494" x="214.795" xlink:href="#DejaVuSans-Bold-6c"/><use id="use8496" x="249.072" xlink:href="#DejaVuSans-Bold-61"/><use id="use8498" x="316.553" xlink:href="#DejaVuSans-Bold-62"/></g></g><g id="patch_11"><path style="fill:none;stroke:#000;stroke-linecap:round" id="path8501" d="M 995.928809 159.710476 Q 943.101418 150.779384 890.274027 141.848292"/></g><g id="text_33"><g id="g8504" transform="translate(999.9 168.912)scale(0.14 -0.14)"><use id="use8506" xlink:href="#DejaVuSans-Bold-43"/><use id="use8508" x="73.389" xlink:href="#DejaVuSans-Bold-6c"/><use id="use8510" x="107.666" xlink:href="#DejaVuSans-Bold-6f"/><use id="use8512" x="176.367" xlink:href="#DejaVuSans-Bold-6a"/><use id="use8514" x="210.645" xlink:href="#DejaVuSans-Bold-75"/><use id="use8516" x="281.836" xlink:href="#DejaVuSans-Bold-72"/><use id="use8518" x="331.152" xlink:href="#DejaVuSans-Bold-65"/></g></g><g id="patch_12"><path style="fill:none;stroke:#000;stroke-linecap:round" id="path8521" d="M 995.917277 142.96196 Q 948.123702 137.460177 900.330126 131.958394"/></g><g id="text_34"><g id="g8524" transform="translate(999.9 149.3424)scale(0.14 -0.14)"><use id="use8526" xlink:href="#DejaVuSans-Bold-52"/><use id="use8528" x="77.002" xlink:href="#DejaVuSans-Bold-75"/><use id="use8530" x="148.193" xlink:href="#DejaVuSans-Bold-73"/><use id="use8532" x="207.715" xlink:href="#DejaVuSans-Bold-74"/></g></g><g id="patch_13"><path style="fill:none;stroke:#000;stroke-linecap:round" id="path8535" d="M 995.904008 125.460861 Q 951.471652 124.698541 907.039297 123.936222"/></g><g id="text_35"><defs id="defs8538"><path id="DejaVuSans-Bold-45" d="M 9.1875 72.90625 L 59.90625 72.90625 L 59.90625 58.6875 L 27.984375 58.6875 L 27.984375 45.125 L 58.015625 45.125 L 58.015625 30.90625 L 27.984375 30.90625 L 27.984375 14.203125 L 60.984375 14.203125 L 60.984375 0 L 9.1875 0 z"/><path id="DejaVuSans-Bold-67" d="M 45.609375 9.28125 Q 42 4.5 37.640625 2.25 Q 33.296875 0 27.59375 0 Q 17.578125 0 11.03125 7.875 Q 4.5 15.765625 4.5 27.984375 Q 4.5 40.234375 11.03125 48.0625 Q 17.578125 55.90625 27.59375 55.90625 Q 33.296875 55.90625 37.640625 53.65625 Q 42 51.421875 45.609375 46.578125 L 45.609375 54.6875 L 63.1875 54.6875 L 63.1875 5.515625 Q 63.1875 -7.671875 54.859375 -14.625 Q 46.53125 -21.578125 30.71875 -21.578125 Q 25.59375 -21.578125 20.796875 -20.796875 Q 16.015625 -20.015625 11.1875 -18.40625 L 11.1875 -4.78125 Q 15.765625 -7.421875 20.15625 -8.71875 Q 24.5625 -10.015625 29 -10.015625 Q 37.59375 -10.015625 41.59375 -6.25 Q 45.609375 -2.484375 45.609375 5.515625 z M 34.078125 43.3125 Q 28.65625 43.3125 25.625 39.296875 Q 22.609375 35.296875 22.609375 27.984375 Q 22.609375 20.453125 25.53125 16.578125 Q 28.46875 12.703125 34.078125 12.703125 Q 39.546875 12.703125 42.578125 16.703125 Q 45.609375 20.703125 45.609375 27.984375 Q 45.609375 35.296875 42.578125 39.296875 Q 39.546875 43.3125 34.078125 43.3125"/></defs><g id="g8542" transform="translate(999.9 129.7728)scale(0.14 -0.14)"><use id="use8544" xlink:href="#DejaVuSans-Bold-45"/><use id="use8546" x="68.311" xlink:href="#DejaVuSans-Bold-72"/><use id="use8548" x="117.627" xlink:href="#DejaVuSans-Bold-6c"/><use id="use8550" x="151.904" xlink:href="#DejaVuSans-Bold-61"/><use id="use8552" x="219.385" xlink:href="#DejaVuSans-Bold-6e"/><use id="use8554" x="290.576" xlink:href="#DejaVuSans-Bold-67"/></g></g><g id="patch_14"><path style="fill:none;stroke:#000;stroke-linecap:round" id="path8557" d="M 995.911907 108.278792 Q 953.700769 113.042864 911.489631 117.806936"/></g><g id="text_36"><defs id="defs8560"><path id="DejaVuSans-Bold-56" d="M 0.484375 72.90625 L 19.390625 72.90625 L 38.71875 19.09375 L 58.015625 72.90625 L 76.90625 72.90625 L 49.90625 0 L 27.484375 0 z"/><path id="DejaVuSans-Bold-20"/><path id="DejaVuSans-Bold-42" d="M 38.375 44.671875 Q 42.828125 44.671875 45.109375 46.625 Q 47.40625 48.578125 47.40625 52.390625 Q 47.40625 56.15625 45.109375 58.125 Q 42.828125 60.109375 38.375 60.109375 L 27.984375 60.109375 L 27.984375 44.671875 z M 39.015625 12.796875 Q 44.671875 12.796875 47.53125 15.1875 Q 50.390625 17.578125 50.390625 22.40625 Q 50.390625 27.15625 47.5625 29.515625 Q 44.734375 31.890625 39.015625 31.890625 L 27.984375 31.890625 L 27.984375 12.796875 z M 56.5 39.015625 Q 62.546875 37.25 65.859375 32.515625 Q 69.1875 27.78125 69.1875 20.90625 Q 69.1875 10.359375 62.0625 5.171875 Q 54.9375 0 40.375 0 L 9.1875 0 L 9.1875 72.90625 L 37.40625 72.90625 Q 52.59375 72.90625 59.40625 68.3125 Q 66.21875 63.71875 66.21875 53.609375 Q 66.21875 48.296875 63.71875 44.5625 Q 61.234375 40.828125 56.5 39.015625"/></defs><g id="g8565" transform="translate(999.9 110.2032)scale(0.14 -0.14)"><use id="use8567" xlink:href="#DejaVuSans-Bold-56"/><use id="use8569" x="77.393" xlink:href="#DejaVuSans-Bold-20"/><use id="use8571" width="100%" height="100%" x="112.207" y="0" transform="translate(-34.285713,0)" xlink:href="#DejaVuSans-Bold-42" style="stroke-linecap:butt;stroke-linejoin:round"/></g></g><g id="patch_15"><path style="fill:none;stroke:#000;stroke-linecap:round" id="path8574" d="M 995.946943 93.995699 Q 954.819324 102.867005 913.691705 111.738311"/></g><g id="text_37"><defs id="defs8577"><path id="DejaVuSans-Bold-46" d="M 9.1875 72.90625 L 59.90625 72.90625 L 59.90625 58.6875 L 27.984375 58.6875 L 27.984375 45.125 L 58.015625 45.125 L 58.015625 30.90625 L 27.984375 30.90625 L 27.984375 0 L 9.1875 0 z"/></defs><g id="g8580" transform="translate(999.9 90.6336)scale(0.14 -0.14)"><use id="use8582" xlink:href="#DejaVuSans-Bold-46"/><use id="use8584" x="68.248" xlink:href="#DejaVuSans-Bold-6f"/><use id="use8586" x="136.949" xlink:href="#DejaVuSans-Bold-72"/><use id="use8588" x="186.266" xlink:href="#DejaVuSans-Bold-74"/><use id="use8590" x="234.068" xlink:href="#DejaVuSans-Bold-72"/><use id="use8592" x="283.385" xlink:href="#DejaVuSans-Bold-61"/><use id="use8594" x="350.865" xlink:href="#DejaVuSans-Bold-6e"/></g></g><g id="patch_16"><path style="fill:none;stroke:#000;stroke-linecap:round" id="path8597" d="M 998.504505 76.64165 Q 956.620566 91.458277 914.736627 106.274905"/></g><g id="text_38"><g id="g8600" transform="translate(999.9 71.064)scale(0.14 -0.14)"><use id="use8602" xlink:href="#DejaVuSans-Bold-50"/><use id="use8604" x="73.26" xlink:href="#DejaVuSans-Bold-61"/><use id="use8606" x="140.74" xlink:href="#DejaVuSans-Bold-73"/><use id="use8608" x="200.262" xlink:href="#DejaVuSans-Bold-63"/><use id="use8610" x="259.539" xlink:href="#DejaVuSans-Bold-61"/><use id="use8612" x="327.02" xlink:href="#DejaVuSans-Bold-6c"/></g></g><g id="legend_1"><g id="patch_17"><path style="fill:#fff;opacity:.8;stroke:#ccc;stroke-linejoin:miter" id="path8616" d="M 979 751 L 1070.721875 751 Q 1072.721875 751 1072.721875 749 L 1072.721875 427.08125 Q 1072.721875 425.08125 1070.721875 425.08125 L 979 425.08125 Q 977 425.08125 977 427.08125 L 977 749 Q 977 751 979 751 z"/></g><g id="patch_18"><path style="fill:violet" id="path8619" d="M 981 436.679687 L 1001 436.679687 L 1001 429.679687 L 981 429.679687 z"/></g><g id="text_39"><defs id="defs8622"><path id="DejaVuSans-50" d="M 19.671875 64.796875 L 19.671875 37.40625 L 32.078125 37.40625 Q 38.96875 37.40625 42.71875 40.96875 Q 46.484375 44.53125 46.484375 51.125 Q 46.484375 57.671875 42.71875 61.234375 Q 38.96875 64.796875 32.078125 64.796875 z M 9.8125 72.90625 L 32.078125 72.90625 Q 44.34375 72.90625 50.609375 67.359375 Q 56.890625 61.8125 56.890625 51.125 Q 56.890625 40.328125 50.609375 34.8125 Q 44.34375 29.296875 32.078125 29.296875 L 19.671875 29.296875 L 19.671875 0 L 9.8125 0 z"/><path id="DejaVuSans-68" d="M 54.890625 33.015625 L 54.890625 0 L 45.90625 0 L 45.90625 32.71875 Q 45.90625 40.484375 42.875 44.328125 Q 39.84375 48.1875 33.796875 48.1875 Q 26.515625 48.1875 22.3125 43.546875 Q 18.109375 38.921875 18.109375 30.90625 L 18.109375 0 L 9.078125 0 L 9.078125 75.984375 L 18.109375 75.984375 L 18.109375 46.1875 Q 21.34375 51.125 25.703125 53.5625 Q 30.078125 56 35.796875 56 Q 45.21875 56 50.046875 50.171875 Q 54.890625 44.34375 54.890625 33.015625"/><path id="DejaVuSans-6e" d="M 54.890625 33.015625 L 54.890625 0 L 45.90625 0 L 45.90625 32.71875 Q 45.90625 40.484375 42.875 44.328125 Q 39.84375 48.1875 33.796875 48.1875 Q 26.515625 48.1875 22.3125 43.546875 Q 18.109375 38.921875 18.109375 30.90625 L 18.109375 0 L 9.078125 0 L 9.078125 54.6875 L 18.109375 54.6875 L 18.109375 46.1875 Q 21.34375 51.125 25.703125 53.5625 Q 30.078125 56 35.796875 56 Q 45.21875 56 50.046875 50.171875 Q 54.890625 44.34375 54.890625 33.015625"/></defs><g id="g8627" transform="translate(1009 436.679687)scale(0.1 -0.1)"><use id="use8629" xlink:href="#DejaVuSans-50"/><use id="use8631" x="60.303" xlink:href="#DejaVuSans-79"/><use id="use8633" x="119.482" xlink:href="#DejaVuSans-74"/><use id="use8635" x="158.691" xlink:href="#DejaVuSans-68"/><use id="use8637" x="222.07" xlink:href="#DejaVuSans-6f"/><use id="use8639" x="283.252" xlink:href="#DejaVuSans-6e"/></g></g><g id="patch_19"><path style="fill:#8b008b" id="path8642" d="M 981 451.357812 L 1001 451.357812 L 1001 444.357812 L 981 444.357812 z"/></g><g id="text_40"><defs id="defs8645"><path id="DejaVuSans-4a" d="M 9.8125 72.90625 L 19.671875 72.90625 L 19.671875 5.078125 Q 19.671875 -8.109375 14.671875 -14.0625 Q 9.671875 -20.015625 -1.421875 -20.015625 L -5.171875 -20.015625 L -5.171875 -11.71875 L -2.09375 -11.71875 Q 4.4375 -11.71875 7.125 -8.046875 Q 9.8125 -4.390625 9.8125 5.078125 z"/><path id="DejaVuSans-76" d="M 2.984375 54.6875 L 12.5 54.6875 L 29.59375 8.796875 L 46.6875 54.6875 L 56.203125 54.6875 L 35.6875 0 L 23.484375 0 z"/></defs><g id="g8649" transform="translate(1009 451.357812)scale(0.1 -0.1)"><use id="use8651" xlink:href="#DejaVuSans-4a"/><use id="use8653" x="29.492" xlink:href="#DejaVuSans-61"/><use id="use8655" x="90.771" xlink:href="#DejaVuSans-76"/><use id="use8657" x="149.951" xlink:href="#DejaVuSans-61"/></g></g><g id="patch_20"><path style="fill:#d8bfd8" id="path8660" d="M 981 466.035937 L 1001 466.035937 L 1001 459.035937 L 981 459.035937 z"/></g><g id="text_41"><defs id="defs8663"><path id="DejaVuSans-43" d="M 64.40625 67.28125 L 64.40625 56.890625 Q 59.421875 61.53125 53.78125 63.8125 Q 48.140625 66.109375 41.796875 66.109375 Q 29.296875 66.109375 22.65625 58.46875 Q 16.015625 50.828125 16.015625 36.375 Q 16.015625 21.96875 22.65625 14.328125 Q 29.296875 6.6875 41.796875 6.6875 Q 48.140625 6.6875 53.78125 8.984375 Q 59.421875 11.28125 64.40625 15.921875 L 64.40625 5.609375 Q 59.234375 2.09375 53.4375 0.328125 Q 47.65625 -1.421875 41.21875 -1.421875 Q 24.65625 -1.421875 15.125 8.703125 Q 5.609375 18.84375 5.609375 36.375 Q 5.609375 53.953125 15.125 64.078125 Q 24.65625 74.21875 41.21875 74.21875 Q 47.75 74.21875 53.53125 72.484375 Q 59.328125 70.75 64.40625 67.28125"/></defs><g id="g8666" transform="translate(1009 466.035937)scale(0.1 -0.1)"><use id="use8668" xlink:href="#DejaVuSans-43"/></g></g><g id="patch_21"><path style="fill:#639" id="path8671" d="M 981 480.714062 L 1001 480.714062 L 1001 473.714062 L 981 473.714062 z"/></g><g id="text_42"><defs id="defs8674"><path id="DejaVuSans-2b" d="M 46 62.703125 L 46 35.5 L 73.1875 35.5 L 73.1875 27.203125 L 46 27.203125 L 46 0 L 37.796875 0 L 37.796875 27.203125 L 10.59375 27.203125 L 10.59375 35.5 L 37.796875 35.5 L 37.796875 62.703125 z"/></defs><g id="g8677" transform="translate(1009 480.714062)scale(0.1 -0.1)"><use id="use8679" xlink:href="#DejaVuSans-43"/><use id="use8681" x="69.824" xlink:href="#DejaVuSans-2b"/><use id="use8683" x="153.613" xlink:href="#DejaVuSans-2b"/></g></g><g id="patch_22"><path style="fill:#7b68ee" id="path8686" d="M 981 495.392187 L 1001 495.392187 L 1001 488.392187 L 981 488.392187 z"/></g><g id="text_43"><defs id="defs8689"><path id="DejaVuSans-48" d="M 9.8125 72.90625 L 19.671875 72.90625 L 19.671875 43.015625 L 55.515625 43.015625 L 55.515625 72.90625 L 65.375 72.90625 L 65.375 0 L 55.515625 0 L 55.515625 34.71875 L 19.671875 34.71875 L 19.671875 0 L 9.8125 0 z"/></defs><g id="g8692" transform="translate(1009 495.392187)scale(0.1 -0.1)"><use id="use8694" xlink:href="#DejaVuSans-50"/><use id="use8696" x="60.303" xlink:href="#DejaVuSans-48"/><use id="use8698" x="135.498" xlink:href="#DejaVuSans-50"/></g></g><g id="patch_23"><path style="fill:#87cefa" id="path8701" d="M 981 510.070312 L 1001 510.070312 L 1001 503.070312 L 981 503.070312 z"/></g><g id="text_44"><defs id="defs8704"><path id="DejaVuSans-52" d="M 44.390625 34.1875 Q 47.5625 33.109375 50.5625 29.59375 Q 53.5625 26.078125 56.59375 19.921875 L 66.609375 0 L 56 0 L 46.6875 18.703125 Q 43.0625 26.03125 39.671875 28.421875 Q 36.28125 30.8125 30.421875 30.8125 L 19.671875 30.8125 L 19.671875 0 L 9.8125 0 L 9.8125 72.90625 L 32.078125 72.90625 Q 44.578125 72.90625 50.734375 67.671875 Q 56.890625 62.453125 56.890625 51.90625 Q 56.890625 45.015625 53.6875 40.46875 Q 50.484375 35.9375 44.390625 34.1875 M 19.671875 64.796875 L 19.671875 38.921875 L 32.078125 38.921875 Q 39.203125 38.921875 42.84375 42.21875 Q 46.484375 45.515625 46.484375 51.90625 Q 46.484375 58.296875 42.84375 61.546875 Q 39.203125 64.796875 32.078125 64.796875 z"/><path id="DejaVuSans-62" d="M 48.6875 27.296875 Q 48.6875 37.203125 44.609375 42.84375 Q 40.53125 48.484375 33.40625 48.484375 Q 26.265625 48.484375 22.1875 42.84375 Q 18.109375 37.203125 18.109375 27.296875 Q 18.109375 17.390625 22.1875 11.75 Q 26.265625 6.109375 33.40625 6.109375 Q 40.53125 6.109375 44.609375 11.75 Q 48.6875 17.390625 48.6875 27.296875 M 18.109375 46.390625 Q 20.953125 51.265625 25.265625 53.625 Q 29.59375 56 35.59375 56 Q 45.5625 56 51.78125 48.09375 Q 58.015625 40.1875 58.015625 27.296875 Q 58.015625 14.40625 51.78125 6.484375 Q 45.5625 -1.421875 35.59375 -1.421875 Q 29.59375 -1.421875 25.265625 0.953125 Q 20.953125 3.328125 18.109375 8.203125 L 18.109375 0 L 9.078125 0 L 9.078125 75.984375 L 18.109375 75.984375 z"/></defs><g id="g8708" transform="translate(1009 510.070312)scale(0.1 -0.1)"><use id="use8710" xlink:href="#DejaVuSans-52"/><use id="use8712" x="69.42" xlink:href="#DejaVuSans-75"/><use id="use8714" x="132.799" xlink:href="#DejaVuSans-62"/><use id="use8716" x="196.275" xlink:href="#DejaVuSans-79"/></g></g><g id="patch_24"><path style="fill:navy" id="path8719" d="M 981 524.748437 L 1001 524.748437 L 1001 517.748437 L 981 517.748437 z"/></g><g id="text_45"><defs id="defs8722"><path id="DejaVuSans-23" d="M 51.125 44 L 36.921875 44 L 32.8125 27.6875 L 47.125 27.6875 z M 43.796875 71.78125 L 38.71875 51.515625 L 52.984375 51.515625 L 58.109375 71.78125 L 65.921875 71.78125 L 60.890625 51.515625 L 76.125 51.515625 L 76.125 44 L 58.984375 44 L 54.984375 27.6875 L 70.515625 27.6875 L 70.515625 20.21875 L 53.078125 20.21875 L 48 0 L 40.1875 0 L 45.21875 20.21875 L 30.90625 20.21875 L 25.875 0 L 18.015625 0 L 23.09375 20.21875 L 7.71875 20.21875 L 7.71875 27.6875 L 24.90625 27.6875 L 29 44 L 13.28125 44 L 13.28125 51.515625 L 30.90625 51.515625 L 35.890625 71.78125 z"/></defs><g id="g8725" transform="translate(1009 524.748437)scale(0.1 -0.1)"><use id="use8727" xlink:href="#DejaVuSans-43"/><use id="use8729" x="69.824" xlink:href="#DejaVuSans-23"/></g></g><g id="patch_25"><path style="fill:#add8e6" id="path8732" d="M 981 539.426562 L 1001 539.426562 L 1001 532.426562 L 981 532.426562 z"/></g><g id="text_46"><defs id="defs8735"><path id="DejaVuSans-4f" d="M 39.40625 66.21875 Q 28.65625 66.21875 22.328125 58.203125 Q 16.015625 50.203125 16.015625 36.375 Q 16.015625 22.609375 22.328125 14.59375 Q 28.65625 6.59375 39.40625 6.59375 Q 50.140625 6.59375 56.421875 14.59375 Q 62.703125 22.609375 62.703125 36.375 Q 62.703125 50.203125 56.421875 58.203125 Q 50.140625 66.21875 39.40625 66.21875 M 39.40625 74.21875 Q 54.734375 74.21875 63.90625 63.9375 Q 73.09375 53.65625 73.09375 36.375 Q 73.09375 19.140625 63.90625 8.859375 Q 54.734375 -1.421875 39.40625 -1.421875 Q 24.03125 -1.421875 14.8125 8.828125 Q 5.609375 19.09375 5.609375 36.375 Q 5.609375 53.65625 14.8125 63.9375 Q 24.03125 74.21875 39.40625 74.21875"/><path id="DejaVuSans-6a" d="M 9.421875 54.6875 L 18.40625 54.6875 L 18.40625 -0.984375 Q 18.40625 -11.421875 14.421875 -16.109375 Q 10.453125 -20.796875 1.609375 -20.796875 L -1.8125 -20.796875 L -1.8125 -13.1875 L 0.59375 -13.1875 Q 5.71875 -13.1875 7.5625 -10.8125 Q 9.421875 -8.453125 9.421875 -0.984375 z M 9.421875 75.984375 L 18.40625 75.984375 L 18.40625 64.59375 L 9.421875 64.59375 z"/><path id="DejaVuSans-63" d="M 48.78125 52.59375 L 48.78125 44.1875 Q 44.96875 46.296875 41.140625 47.34375 Q 37.3125 48.390625 33.40625 48.390625 Q 24.65625 48.390625 19.8125 42.84375 Q 14.984375 37.3125 14.984375 27.296875 Q 14.984375 17.28125 19.8125 11.734375 Q 24.65625 6.203125 33.40625 6.203125 Q 37.3125 6.203125 41.140625 7.25 Q 44.96875 8.296875 48.78125 10.40625 L 48.78125 2.09375 Q 45.015625 0.34375 40.984375 -0.53125 Q 36.96875 -1.421875 32.421875 -1.421875 Q 20.0625 -1.421875 12.78125 6.34375 Q 5.515625 14.109375 5.515625 27.296875 Q 5.515625 40.671875 12.859375 48.328125 Q 20.21875 56 33.015625 56 Q 37.15625 56 41.109375 55.140625 Q 45.0625 54.296875 48.78125 52.59375"/><path id="DejaVuSans-2d" d="M 4.890625 31.390625 L 31.203125 31.390625 L 31.203125 23.390625 L 4.890625 23.390625 z"/></defs><g id="g8741" transform="translate(1009 539.426562)scale(0.1 -0.1)"><use id="use8743" xlink:href="#DejaVuSans-4f"/><use id="use8745" x="78.711" xlink:href="#DejaVuSans-62"/><use id="use8747" x="142.188" xlink:href="#DejaVuSans-6a"/><use id="use8749" x="169.971" xlink:href="#DejaVuSans-65"/><use id="use8751" x="231.494" xlink:href="#DejaVuSans-63"/><use id="use8753" x="286.475" xlink:href="#DejaVuSans-74"/><use id="use8755" x="325.684" xlink:href="#DejaVuSans-69"/><use id="use8757" x="353.467" xlink:href="#DejaVuSans-76"/><use id="use8759" x="412.646" xlink:href="#DejaVuSans-65"/><use id="use8761" x="474.17" xlink:href="#DejaVuSans-2d"/><use id="use8763" x="510.254" xlink:href="#DejaVuSans-43"/></g></g><g id="patch_26"><path style="fill:teal" id="path8766" d="M 981 554.104687 L 1001 554.104687 L 1001 547.104687 L 981 547.104687 z"/></g><g id="text_47"><defs id="defs8769"><path id="DejaVuSans-47" d="M 59.515625 10.40625 L 59.515625 29.984375 L 43.40625 29.984375 L 43.40625 38.09375 L 69.28125 38.09375 L 69.28125 6.78125 Q 63.578125 2.734375 56.6875 0.65625 Q 49.8125 -1.421875 42 -1.421875 Q 24.90625 -1.421875 15.25 8.5625 Q 5.609375 18.5625 5.609375 36.375 Q 5.609375 54.25 15.25 64.234375 Q 24.90625 74.21875 42 74.21875 Q 49.125 74.21875 55.546875 72.453125 Q 61.96875 70.703125 67.390625 67.28125 L 67.390625 56.78125 Q 61.921875 61.421875 55.765625 63.765625 Q 49.609375 66.109375 42.828125 66.109375 Q 29.4375 66.109375 22.71875 58.640625 Q 16.015625 51.171875 16.015625 36.375 Q 16.015625 21.625 22.71875 14.15625 Q 29.4375 6.6875 42.828125 6.6875 Q 48.046875 6.6875 52.140625 7.59375 Q 56.25 8.5 59.515625 10.40625"/></defs><g id="g8772" transform="translate(1009 554.104687)scale(0.1 -0.1)"><use id="use8774" xlink:href="#DejaVuSans-47"/><use id="use8776" x="77.49" xlink:href="#DejaVuSans-6f"/></g></g><g id="patch_27"><path style="fill:#00fa9a" id="path8779" d="M 981 568.782812 L 1001 568.782812 L 1001 561.782812 L 981 561.782812 z"/></g><g id="text_48"><defs id="defs8782"><path id="DejaVuSans-53" d="M 53.515625 70.515625 L 53.515625 60.890625 Q 47.90625 63.578125 42.921875 64.890625 Q 37.9375 66.21875 33.296875 66.21875 Q 25.25 66.21875 20.875 63.09375 Q 16.5 59.96875 16.5 54.203125 Q 16.5 49.359375 19.40625 46.890625 Q 22.3125 44.4375 30.421875 42.921875 L 36.375 41.703125 Q 47.40625 39.59375 52.65625 34.296875 Q 57.90625 29 57.90625 20.125 Q 57.90625 9.515625 50.796875 4.046875 Q 43.703125 -1.421875 29.984375 -1.421875 Q 24.8125 -1.421875 18.96875 -0.25 Q 13.140625 0.921875 6.890625 3.21875 L 6.890625 13.375 Q 12.890625 10.015625 18.65625 8.296875 Q 24.421875 6.59375 29.984375 6.59375 Q 38.421875 6.59375 43.015625 9.90625 Q 47.609375 13.234375 47.609375 19.390625 Q 47.609375 24.75 44.3125 27.78125 Q 41.015625 30.8125 33.5 32.328125 L 27.484375 33.5 Q 16.453125 35.6875 11.515625 40.375 Q 6.59375 45.0625 6.59375 53.421875 Q 6.59375 63.09375 13.40625 68.65625 Q 20.21875 74.21875 32.171875 74.21875 Q 37.3125 74.21875 42.625 73.28125 Q 47.953125 72.359375 53.515625 70.515625"/><path id="DejaVuSans-77" d="M 4.203125 54.6875 L 13.1875 54.6875 L 24.421875 12.015625 L 35.59375 54.6875 L 46.1875 54.6875 L 57.421875 12.015625 L 68.609375 54.6875 L 77.59375 54.6875 L 63.28125 0 L 52.6875 0 L 40.921875 44.828125 L 29.109375 0 L 18.5 0 z"/><path id="DejaVuSans-66" d="M 37.109375 75.984375 L 37.109375 68.5 L 28.515625 68.5 Q 23.6875 68.5 21.796875 66.546875 Q 19.921875 64.59375 19.921875 59.515625 L 19.921875 54.6875 L 34.71875 54.6875 L 34.71875 47.703125 L 19.921875 47.703125 L 19.921875 0 L 10.890625 0 L 10.890625 47.703125 L 2.296875 47.703125 L 2.296875 54.6875 L 10.890625 54.6875 L 10.890625 58.5 Q 10.890625 67.625 15.140625 71.796875 Q 19.390625 75.984375 28.609375 75.984375 z"/></defs><g id="g8787" transform="translate(1009 568.782812)scale(0.1 -0.1)"><use id="use8789" xlink:href="#DejaVuSans-53"/><use id="use8791" x="63.477" xlink:href="#DejaVuSans-77"/><use id="use8793" x="145.264" xlink:href="#DejaVuSans-69"/><use id="use8795" x="173.047" xlink:href="#DejaVuSans-66"/><use id="use8797" x="208.236" xlink:href="#DejaVuSans-74"/></g></g><g id="patch_28"><path style="fill:green" id="path8800" d="M 981 583.460937 L 1001 583.460937 L 1001 576.460937 L 981 576.460937 z"/></g><g id="text_49"><g id="g8803" transform="translate(1009 583.460937)scale(0.1 -0.1)"><use id="use8805" xlink:href="#DejaVuSans-53"/><use id="use8807" x="63.477" xlink:href="#DejaVuSans-63"/><use id="use8809" x="118.457" xlink:href="#DejaVuSans-61"/><use id="use8811" x="179.736" xlink:href="#DejaVuSans-6c"/><use id="use8813" x="207.52" xlink:href="#DejaVuSans-61"/></g></g><g id="patch_29"><path style="fill:#adff2f" id="path8816" d="M 981 598.139062 L 1001 598.139062 L 1001 591.139062 L 981 591.139062 z"/></g><g id="text_50"><g id="g8819" transform="translate(1009 598.139062)scale(0.1 -0.1)"><use id="use8821" xlink:href="#DejaVuSans-50"/><use id="use8823" x="60.256" xlink:href="#DejaVuSans-65"/><use id="use8825" x="121.779" xlink:href="#DejaVuSans-72"/><use id="use8827" x="162.893" xlink:href="#DejaVuSans-6c"/></g></g><g id="patch_30"><path style="fill:olive" id="path8830" d="M 981 612.817187 L 1001 612.817187 L 1001 605.817187 L 981 605.817187 z"/></g><g id="text_51"><g id="g8833" transform="translate(1009 612.817187)scale(0.1 -0.1)"><use id="use8835" xlink:href="#DejaVuSans-52"/></g></g><g id="patch_31"><path style="fill:khaki" id="path8838" d="M 981 627.495312 L 1001 627.495312 L 1001 620.495312 L 981 620.495312 z"/></g><g id="text_52"><defs id="defs8841"><path id="DejaVuSans-73" d="M 44.28125 53.078125 L 44.28125 44.578125 Q 40.484375 46.53125 36.375 47.5 Q 32.28125 48.484375 27.875 48.484375 Q 21.1875 48.484375 17.84375 46.4375 Q 14.5 44.390625 14.5 40.28125 Q 14.5 37.15625 16.890625 35.375 Q 19.28125 33.59375 26.515625 31.984375 L 29.59375 31.296875 Q 39.15625 29.25 43.1875 25.515625 Q 47.21875 21.78125 47.21875 15.09375 Q 47.21875 7.46875 41.1875 3.015625 Q 35.15625 -1.421875 24.609375 -1.421875 Q 20.21875 -1.421875 15.453125 -0.5625 Q 10.6875 0.296875 5.421875 2 L 5.421875 11.28125 Q 10.40625 8.6875 15.234375 7.390625 Q 20.0625 6.109375 24.8125 6.109375 Q 31.15625 6.109375 34.5625 8.28125 Q 37.984375 10.453125 37.984375 14.40625 Q 37.984375 18.0625 35.515625 20.015625 Q 33.0625 21.96875 24.703125 23.78125 L 21.578125 24.515625 Q 13.234375 26.265625 9.515625 29.90625 Q 5.8125 33.546875 5.8125 39.890625 Q 5.8125 47.609375 11.28125 51.796875 Q 16.75 56 26.8125 56 Q 31.78125 56 36.171875 55.265625 Q 40.578125 54.546875 44.28125 53.078125"/><path id="DejaVuSans-6b" d="M 9.078125 75.984375 L 18.109375 75.984375 L 18.109375 31.109375 L 44.921875 54.6875 L 56.390625 54.6875 L 27.390625 29.109375 L 57.625 0 L 45.90625 0 L 18.109375 26.703125 L 18.109375 0 L 9.078125 0 z"/></defs><g id="g8845" transform="translate(1009 627.495312)scale(0.1 -0.1)"><use id="use8847" xlink:href="#DejaVuSans-48"/><use id="use8849" x="75.195" xlink:href="#DejaVuSans-61"/><use id="use8851" x="136.475" xlink:href="#DejaVuSans-73"/><use id="use8853" x="188.574" xlink:href="#DejaVuSans-6b"/><use id="use8855" x="246.438" xlink:href="#DejaVuSans-65"/><use id="use8857" x="307.961" xlink:href="#DejaVuSans-6c"/><use id="use8859" x="335.744" xlink:href="#DejaVuSans-6c"/></g></g><g id="patch_32"><path style="fill:#b8860b" id="path8862" d="M 981 642.173437 L 1001 642.173437 L 1001 635.173437 L 981 635.173437 z"/></g><g id="text_53"><defs id="defs8865"><path id="DejaVuSans-4c" d="M 9.8125 72.90625 L 19.671875 72.90625 L 19.671875 8.296875 L 55.171875 8.296875 L 55.171875 0 L 9.8125 0 z"/></defs><g id="g8868" transform="translate(1009 642.173437)scale(0.1 -0.1)"><use id="use8870" xlink:href="#DejaVuSans-4c"/><use id="use8872" x="55.697" xlink:href="#DejaVuSans-75"/><use id="use8874" x="119.076" xlink:href="#DejaVuSans-61"/></g></g><g id="patch_33"><path style="fill:gold" id="path8877" d="M 981 656.851562 L 1001 656.851562 L 1001 649.851562 L 981 649.851562 z"/></g><g id="text_54"><defs id="defs8880"><path id="DejaVuSans-4d" d="M 9.8125 72.90625 L 24.515625 72.90625 L 43.109375 23.296875 L 61.8125 72.90625 L 76.515625 72.90625 L 76.515625 0 L 66.890625 0 L 66.890625 64.015625 L 48.09375 14.015625 L 38.1875 14.015625 L 19.390625 64.015625 L 19.390625 0 L 9.8125 0 z"/></defs><g id="g8883" transform="translate(1009 656.851562)scale(0.1 -0.1)"><use id="use8885" xlink:href="#DejaVuSans-4d"/><use id="use8887" x="86.279" xlink:href="#DejaVuSans-61"/><use id="use8889" x="147.559" xlink:href="#DejaVuSans-74"/><use id="use8891" x="186.768" xlink:href="#DejaVuSans-6c"/><use id="use8893" x="214.551" xlink:href="#DejaVuSans-61"/><use id="use8895" x="275.83" xlink:href="#DejaVuSans-62"/></g></g><g id="patch_34"><path style="fill:#ff8c00" id="path8898" d="M 981 671.529687 L 1001 671.529687 L 1001 664.529687 L 981 664.529687 z"/></g><g id="text_55"><g id="g8901" transform="translate(1009 671.529687)scale(0.1 -0.1)"><use id="use8903" xlink:href="#DejaVuSans-43"/><use id="use8905" x="69.824" xlink:href="#DejaVuSans-6c"/><use id="use8907" x="97.607" xlink:href="#DejaVuSans-6f"/><use id="use8909" x="158.789" xlink:href="#DejaVuSans-6a"/><use id="use8911" x="186.572" xlink:href="#DejaVuSans-75"/><use id="use8913" x="249.951" xlink:href="#DejaVuSans-72"/><use id="use8915" x="291.033" xlink:href="#DejaVuSans-65"/></g></g><g id="patch_35"><path style="fill:#ffdab9" id="path8918" d="M 981 686.207812 L 1001 686.207812 L 1001 679.207812 L 981 679.207812 z"/></g><g id="text_56"><g id="g8921" transform="translate(1009 686.207812)scale(0.1 -0.1)"><use id="use8923" xlink:href="#DejaVuSans-52"/><use id="use8925" x="69.42" xlink:href="#DejaVuSans-75"/><use id="use8927" x="132.799" xlink:href="#DejaVuSans-73"/><use id="use8929" x="184.898" xlink:href="#DejaVuSans-74"/></g></g><g id="patch_36"><path style="fill:tomato" id="path8932" d="M 981 700.885937 L 1001 700.885937 L 1001 693.885937 L 981 693.885937 z"/></g><g id="text_57"><defs id="defs8935"><path id="DejaVuSans-45" d="M 9.8125 72.90625 L 55.90625 72.90625 L 55.90625 64.59375 L 19.671875 64.59375 L 19.671875 43.015625 L 54.390625 43.015625 L 54.390625 34.71875 L 19.671875 34.71875 L 19.671875 8.296875 L 56.78125 8.296875 L 56.78125 0 L 9.8125 0 z"/><path id="DejaVuSans-67" d="M 45.40625 27.984375 Q 45.40625 37.75 41.375 43.109375 Q 37.359375 48.484375 30.078125 48.484375 Q 22.859375 48.484375 18.828125 43.109375 Q 14.796875 37.75 14.796875 27.984375 Q 14.796875 18.265625 18.828125 12.890625 Q 22.859375 7.515625 30.078125 7.515625 Q 37.359375 7.515625 41.375 12.890625 Q 45.40625 18.265625 45.40625 27.984375 M 54.390625 6.78125 Q 54.390625 -7.171875 48.1875 -13.984375 Q 42 -20.796875 29.203125 -20.796875 Q 24.46875 -20.796875 20.265625 -20.09375 Q 16.0625 -19.390625 12.109375 -17.921875 L 12.109375 -9.1875 Q 16.0625 -11.328125 19.921875 -12.34375 Q 23.78125 -13.375 27.78125 -13.375 Q 36.625 -13.375 41.015625 -8.765625 Q 45.40625 -4.15625 45.40625 5.171875 L 45.40625 9.625 Q 42.625 4.78125 38.28125 2.390625 Q 33.9375 0 27.875 0 Q 17.828125 0 11.671875 7.65625 Q 5.515625 15.328125 5.515625 27.984375 Q 5.515625 40.671875 11.671875 48.328125 Q 17.828125 56 27.875 56 Q 33.9375 56 38.28125 53.609375 Q 42.625 51.21875 45.40625 46.390625 L 45.40625 54.6875 L 54.390625 54.6875 z"/></defs><g id="g8939" transform="translate(1009 700.885937)scale(0.1 -0.1)"><use id="use8941" xlink:href="#DejaVuSans-45"/><use id="use8943" x="63.184" xlink:href="#DejaVuSans-72"/><use id="use8945" x="104.297" xlink:href="#DejaVuSans-6c"/><use id="use8947" x="132.08" xlink:href="#DejaVuSans-61"/><use id="use8949" x="193.359" xlink:href="#DejaVuSans-6e"/><use id="use8951" x="256.738" xlink:href="#DejaVuSans-67"/></g></g><g id="patch_37"><path style="fill:#b22222" id="path8954" d="M 981 715.564062 L 1001 715.564062 L 1001 708.564062 L 981 708.564062 z"/></g><g id="text_58"><defs id="defs8957"><path id="DejaVuSans-56" d="M 28.609375 0 L 0.78125 72.90625 L 11.078125 72.90625 L 34.1875 11.53125 L 57.328125 72.90625 L 67.578125 72.90625 L 39.796875 0 z"/><path id="DejaVuSans-20"/><path id="DejaVuSans-42" d="M 19.671875 34.8125 L 19.671875 8.109375 L 35.5 8.109375 Q 43.453125 8.109375 47.28125 11.40625 Q 51.125 14.703125 51.125 21.484375 Q 51.125 28.328125 47.28125 31.5625 Q 43.453125 34.8125 35.5 34.8125 z M 19.671875 64.796875 L 19.671875 42.828125 L 34.28125 42.828125 Q 41.5 42.828125 45.03125 45.53125 Q 48.578125 48.25 48.578125 53.8125 Q 48.578125 59.328125 45.03125 62.0625 Q 41.5 64.796875 34.28125 64.796875 z M 9.8125 72.90625 L 35.015625 72.90625 Q 46.296875 72.90625 52.390625 68.21875 Q 58.5 63.53125 58.5 54.890625 Q 58.5 48.1875 55.375 44.234375 Q 52.25 40.28125 46.1875 39.3125 Q 53.46875 37.75 57.5 32.78125 Q 61.53125 27.828125 61.53125 20.40625 Q 61.53125 10.640625 54.890625 5.3125 Q 48.25 0 35.984375 0 L 9.8125 0 z"/></defs><g id="g8962" transform="translate(1009 715.564062)scale(0.1 -0.1)"><use id="use8964" xlink:href="#DejaVuSans-56"/><use id="use8966" x="68.377" xlink:href="#DejaVuSans-69"/><use id="use8968" x="96.16" xlink:href="#DejaVuSans-73"/><use id="use8970" x="148.26" xlink:href="#DejaVuSans-75"/><use id="use8972" x="211.639" xlink:href="#DejaVuSans-61"/><use id="use8974" x="272.918" xlink:href="#DejaVuSans-6c"/><use id="use8976" x="300.701" xlink:href="#DejaVuSans-20"/><use id="use8978" x="332.488" xlink:href="#DejaVuSans-42"/><use id="use8980" x="401.092" xlink:href="#DejaVuSans-61"/><use id="use8982" x="462.371" xlink:href="#DejaVuSans-73"/><use id="use8984" x="514.471" xlink:href="#DejaVuSans-69"/><use id="use8986" x="542.254" xlink:href="#DejaVuSans-63"/></g></g><g id="patch_38"><path style="fill:#bc8f8f" id="path8989" d="M 981 730.242188 L 1001 730.242188 L 1001 723.242188 L 981 723.242188 z"/></g><g id="text_59"><defs id="defs8992"><path id="DejaVuSans-46" d="M 9.8125 72.90625 L 51.703125 72.90625 L 51.703125 64.59375 L 19.671875 64.59375 L 19.671875 43.109375 L 48.578125 43.109375 L 48.578125 34.8125 L 19.671875 34.8125 L 19.671875 0 L 9.8125 0 z"/><path id="DejaVuSans-54" d="M -0.296875 72.90625 L 61.375 72.90625 L 61.375 64.59375 L 35.5 64.59375 L 35.5 0 L 25.59375 0 L 25.59375 64.59375 L -0.296875 64.59375 z"/><path id="DejaVuSans-41" d="M 34.1875 63.1875 L 20.796875 26.90625 L 47.609375 26.90625 z M 28.609375 72.90625 L 39.796875 72.90625 L 67.578125 0 L 57.328125 0 L 50.6875 18.703125 L 17.828125 18.703125 L 11.1875 0 L 0.78125 0 z"/><path id="DejaVuSans-4e" d="M 9.8125 72.90625 L 23.09375 72.90625 L 55.421875 11.921875 L 55.421875 72.90625 L 64.984375 72.90625 L 64.984375 0 L 51.703125 0 L 19.390625 60.984375 L 19.390625 0 L 9.8125 0 z"/></defs><g id="g8998" transform="translate(1009 730.242188)scale(0.1 -0.1)"><use id="use9000" xlink:href="#DejaVuSans-46"/><use id="use9002" x="57.52" xlink:href="#DejaVuSans-4f"/><use id="use9004" x="136.23" xlink:href="#DejaVuSans-52"/><use id="use9006" x="205.604" xlink:href="#DejaVuSans-54"/><use id="use9008" x="266.688" xlink:href="#DejaVuSans-52"/><use id="use9010" x="336.107" xlink:href="#DejaVuSans-41"/><use id="use9012" x="404.516" xlink:href="#DejaVuSans-4e"/></g></g><g id="patch_39"><path style="fill:#696969" id="path9015" d="M 981 744.920312 L 1001 744.920312 L 1001 737.920312 L 981 737.920312 z"/></g><g id="text_60"><g id="g9018" transform="translate(1009 744.920312)scale(0.1 -0.1)"><use id="use9020" xlink:href="#DejaVuSans-50"/><use id="use9022" x="60.24" xlink:href="#DejaVuSans-61"/><use id="use9024" x="121.52" xlink:href="#DejaVuSans-73"/><use id="use9026" x="173.619" xlink:href="#DejaVuSans-63"/><use id="use9028" x="228.6" xlink:href="#DejaVuSans-61"/><use id="use9030" x="289.879" xlink:href="#DejaVuSans-6c"/></g></g></g></g></g><defs id="defs9032"><clipPath id="p4f8df83cda"><rect id="rect9035" width="837" height="652.32" x="135" y="103.68"/></clipPath></defs></svg>