<svg xmlns="http://www.w3.org/2000/svg" xmlns:svg="http://www.w3.org/2000/svg" id="svg2" width="120" height="42" version="1.1"><metadata id="metadata35"/><g id="g4"><title id="title6">Layer 1</title><g id="layer1"><g id="g325" transform="matrix(0.9937808,0,0,0.9936927,-177.69414,-148.87729)"><path id="path3817_3_" fill="#aab2ab" d="m182.235352,150.26416l114.063965,0.202637c1.59375,0 3.017578,-0.236328 3.017578,3.180176l-0.139648,37.566895l-119.820313,0l0,-37.706055c0,-1.685059 0.163086,-3.243652 2.878418,-3.243652z"/><g id="g5908_3_" transform="matrix(0.872921,0,0,0.872921,50.12536,143.2144)"><path id="path5906_3_" fill="#fff" d="m187.209457,30.09433c0.005585,8.680241 -7.027863,15.721531 -15.708084,15.727112c-8.680206,0.005039 -15.722046,-7.027863 -15.727097,-15.708071c0,-0.00671 0,-0.012331 0,-0.019041c-0.005035,-8.680759 7.027847,-15.72205 15.708084,-15.727079c8.68132,-0.00504 15.722061,7.027859 15.727097,15.708069c0,0.006161 0,0.0123 0,0.019011z"/><g id="g5706_3_"><path id="path4173" d="m 184.26889,17.292168 c 3.48541,3.485382 5.22839,7.753365 5.22839,12.802155 0,5.049408 -1.71283,9.272026 -5.13836,12.667938 -3.63532,3.576019 -7.93177,5.36377 -12.88944,5.36377 -4.89779,0 -9.11987,-1.77264 -12.66513,-5.31958 -3.54581,-3.545261 -5.31842,-7.78299 -5.31842,-12.712128 0,-4.928566 1.77262,-9.195953 5.31842,-12.802155 3.4552,-3.487091 7.67728,-5.229515 12.66513,-5.229515 5.04825,-1.5e-5 9.314,1.742424 12.79941,5.229515 z"/><path id="path4171" d="m 161.15091,19.636467 c -2.94678,2.976379 -4.41956,6.46344 -4.41956,10.462341 0,3.998352 1.45825,7.455231 4.37421,10.371193 2.91657,2.915947 6.38852,4.374237 10.41705,4.374237 4.02857,0 7.53022,-1.47226 10.5066,-4.41898 2.82586,-2.73587 4.23938,-6.177059 4.23938,-10.32645 0,-4.118042 -1.43647,-7.612946 -4.30768,-10.484161 -2.87061,-2.870667 -6.34986,-4.306549 -10.4383,-4.306549 -4.08837,0 -7.54638,1.443146 -10.3717,4.328369 z" style="fill:#fff;fill-opacity:1"/></g></g><path id="path332" d="m297.296387,149.822266l-116.229004,0c-1.246567,0 -2.261215,1.013672 -2.261215,2.260254l0,39.496094c0,0.281738 0.228989,0.510254 0.510727,0.510254l119.729492,0c0.281738,0 0.510742,-0.228531 0.510742,-0.510254l0,-39.496094c0,-1.246582 -1.01416,-2.260254 -2.260742,-2.260254zm-116.229004,1.020508l116.229004,0c0.683594,0 1.239258,0.556152 1.239258,1.239746c0,0 0,15.885254 0,27.381348l-83.07373,0c-3.044922,5.505859 -8.911133,9.243652 -15.643555,9.243652c-6.735352,0 -12.600098,-3.734863 -15.643555,-9.243652l-4.347168,0c0,-11.496094 0,-27.381348 0,-27.381348c0,-0.683594 0.556152,-1.239746 1.239746,-1.239746z"/><g id="g6379_1_" transform="matrix(1.146822,0,0,1.146822,457.9375,166.153)"><path id="path6381_1_" fill="#fff" d="m-154.144989,-1.09436c0.003418,4.82693 -3.906006,8.74188 -8.733368,8.7457c-4.826523,0.00299 -8.741898,-3.90686 -8.7453,-8.73294c0,-0.0051 0,-0.00894 0,-0.01276c-0.003403,-4.82739 3.906006,-8.74234 8.732513,-8.74615c4.827377,-0.00299 8.742767,3.90686 8.74614,8.73294c0.000015,0.00427 0.000015,0.00894 0.000015,0.01321z"/></g><g id="g349"><circle id="circle351" cx="242.562" cy="165.136" r="10.806" fill="#fff"/><g id="g353"><path id="path355" d="m 274.27791,162.00928 c 0,-0.41651 -0.33789,-0.75391 -0.75391,-0.75391 l -4.77246,0 c -0.41603,0 -0.75392,0.3374 -0.75392,0.75391 l 0,4.77295 1.33105,0 0,5.65187 3.61719,0 0,-5.65187 1.33203,0 0,-4.77295 2e-5,0 z"/><circle id="circle357" cx="271.138" cy="158.995" r="1.632"/></g><path id="path359" d="m 271.12263,153.22949 c -3.23144,0 -5.96826,1.12744 -8.20752,3.38379 -2.29785,2.3335 -3.44628,5.0957 -3.44628,8.28467 0,3.18896 1.14843,5.93164 3.44628,8.22656 2.29786,2.29444 5.03418,3.4419 8.20752,3.4419 3.2129,0 5.99805,-1.15625 8.35352,-3.47119 2.2207,-2.19729 3.33009,-4.92969 3.33009,-8.19729 0,-3.26757 -1.12892,-6.0288 -3.38771,-8.28466 -2.25879,-2.25634 -5.02441,-3.38378 -8.2959,-3.38378 z m 0.0293,2.09961 c 2.64844,0 4.89746,0.93408 6.74707,2.80078 1.87012,1.84766 2.80469,4.10352 2.80469,6.76807 0,2.68359 -0.91504,4.91064 -2.74609,6.68017 -1.92774,1.90625 -4.19629,2.85891 -6.80567,2.85891 -2.60936,0 -4.8584,-0.94336 -6.74658,-2.82959 -1.88965,-1.88674 -2.8335,-4.12307 -2.8335,-6.70948 0,-2.58691 0.95411,-4.84277 2.86231,-6.76808 1.83056,-1.8667 4.07031,-2.80078 6.71777,-2.80078 z" style="clip-rule:evenodd;fill-rule:evenodd"/><path style="clip-rule:evenodd;fill-rule:evenodd" id="path4201" d="m 242.53484,153.22949 c -3.23144,0 -5.96826,1.12744 -8.20752,3.38379 -2.29785,2.3335 -3.44628,5.0957 -3.44628,8.28467 0,3.18896 1.14843,5.93164 3.44628,8.22656 2.29786,2.29444 5.03418,3.4419 8.20752,3.4419 3.2129,0 5.99805,-1.15625 8.35352,-3.47119 2.2207,-2.19729 3.33009,-4.92969 3.33009,-8.19729 0,-3.26757 -1.12892,-6.0288 -3.38771,-8.28466 -2.25879,-2.25634 -5.02441,-3.38378 -8.2959,-3.38378 z m 0.0293,2.09961 c 2.64844,0 4.89746,0.93408 6.74707,2.80078 1.87012,1.84766 2.80469,4.10352 2.80469,6.76807 0,2.68359 -0.91504,4.91064 -2.74609,6.68017 -1.92774,1.90625 -4.19629,2.85891 -6.80567,2.85891 -2.60936,0 -4.8584,-0.94336 -6.74658,-2.82959 -1.88965,-1.88674 -2.8335,-4.12307 -2.8335,-6.70948 0,-2.58691 0.95411,-4.84277 2.86231,-6.76808 1.83056,-1.8667 4.07031,-2.80078 6.71777,-2.80078 z"/></g></g></g></g><text style="font-style:normal;font-weight:400;font-size:12.5px;line-height:125%;font-family:sans-serif;letter-spacing:0;word-spacing:0;fill:#000;fill-opacity:1;stroke:none;stroke-width:1px;stroke-linecap:butt;stroke-linejoin:miter;stroke-opacity:1" id="text4163" x="10.212" y="24.528" xml:space="preserve"><tspan id="tspan4165" x="10.212" y="24.528" style="font-style:normal;font-variant:normal;font-weight:700;font-stretch:normal;font-size:17.5px;font-family:'Berthold Akzidenz Grotesk';-inkscape-font-specification:'Berthold Akzidenz Grotesk Bold'">do</tspan></text><text style="font-style:normal;font-weight:400;font-size:12.5px;line-height:125%;font-family:sans-serif;letter-spacing:0;word-spacing:0;fill:#000;fill-opacity:1;stroke:none;stroke-width:1px;stroke-linecap:butt;stroke-linejoin:miter;stroke-opacity:1" id="text4193" x="53.269" y="39.352" xml:space="preserve"><tspan id="tspan4195" x="53.269" y="39.352" style="font-style:normal;font-variant:normal;font-weight:700;font-stretch:normal;font-size:9.375px;font-family:'Berthold Akzidenz Grotesk';-inkscape-font-specification:'Berthold Akzidenz Grotesk Bold';fill:#fff;fill-opacity:1">WTF</tspan></text><text id="text4197" x="83.473" y="39.352" xml:space="preserve" style="font-style:normal;font-weight:400;font-size:12.5px;line-height:125%;font-family:sans-serif;letter-spacing:0;word-spacing:0;fill:#000;fill-opacity:1;stroke:none;stroke-width:1px;stroke-linecap:butt;stroke-linejoin:miter;stroke-opacity:1"><tspan style="font-style:normal;font-variant:normal;font-weight:700;font-stretch:normal;font-size:9.375px;font-family:'Berthold Akzidenz Grotesk';-inkscape-font-specification:'Berthold Akzidenz Grotesk Bold';fill:#fff;fill-opacity:1" id="tspan4199" x="83.473" y="39.352">UW</tspan></text><text style="font-style:normal;font-weight:400;font-size:12.5px;line-height:125%;font-family:sans-serif;letter-spacing:0;word-spacing:0;fill:#000;fill-opacity:1;stroke:none;stroke-width:1px;stroke-linecap:butt;stroke-linejoin:miter;stroke-opacity:1" id="text4203" x="55.716" y="20.381" xml:space="preserve"><tspan id="tspan4205" x="55.716" y="20.381" style="font-style:normal;font-variant:normal;font-weight:700;font-stretch:normal;font-size:15px;font-family:'Berthold Akzidenz Grotesk';-inkscape-font-specification:'Berthold Akzidenz Grotesk Bold'">?!</tspan></text></svg>